/* XPM */
static char * desktop_xpm[] = {
"20 20 16 1",
" 	c None",
".	c #BBBBBB",
"+	c #676767",
"@	c #646464",
"#	c #616161",
"$	c #5B5B5B",
"%	c #575757",
"&	c #4F4F4F",
"*	c #4B4B4B",
"=	c #414141",
"-	c #000000",
";	c #3B3B3B",
">	c #FFFFFF",
",	c #2D2D2D",
"'	c #FEFEFE",
")	c #242424",
"                    ",
"                    ",
"                    ",
"    ............    ",
"   .++++++++++++.   ",
"   .@@@@@@@@@@@@.   ",
"   .############.   ",
"   .$$$$$$$$$$$$.   ",
"   .%%%%%%%%%%%%.   ",
"   .&&&&&&&&&&&&.   ",
"   .************.   ",
"   .=----------=.   ",
"   .;>>>>>>>>>>;.   ",
"   .,'''''''''',.   ",
"   .)----------).   ",
"   .------------.   ",
"    ............    ",
"                    ",
"                    ",
"                    "};
