/* XPM */
static char * icewm_22_xpm[] = {
"24 24 155 2",
"  	c None",
". 	c #A9DFF3",
"+ 	c #A8DFF3",
"@ 	c #B4E3F3",
"# 	c #C5E9F4",
"$ 	c #C7E9F4",
"% 	c #C5E8F4",
"& 	c #BEE6F4",
"* 	c #BFE6F3",
"= 	c #ADE0F3",
"- 	c #ACE0F3",
"; 	c #BCE5F4",
"> 	c #CBEBF4",
", 	c #DAF0F5",
"' 	c #E9F6F6",
") 	c #ECF7F5",
"! 	c #B2E2F3",
"~ 	c #B6E3F3",
"{ 	c #DBF1F5",
"] 	c #AFE1F3",
"^ 	c #94D9F3",
"/ 	c #76D0F4",
"( 	c #AEE1F3",
"_ 	c #D0ECF5",
": 	c #B1E1F3",
"< 	c #A3DDF3",
"[ 	c #4CC9F4",
"} 	c #38C6F4",
"| 	c #87D5F3",
"1 	c #ABE0F3",
"2 	c #DDF2F5",
"3 	c #B0E2F3",
"4 	c #B1E2F3",
"5 	c #6DCFF4",
"6 	c #37C5F4",
"7 	c #36C5F4",
"8 	c #48C8F4",
"9 	c #A5DEF3",
"0 	c #CAEAF4",
"a 	c #DBF0F5",
"b 	c #B6E4F4",
"c 	c #C0E7F4",
"d 	c #8FD7F3",
"e 	c #31C1F3",
"f 	c #09AFEF",
"g 	c #1DB6F1",
"h 	c #EBF7F6",
"i 	c #B8E4F3",
"j 	c #ADE1F3",
"k 	c #A4DEF3",
"l 	c #48C6F3",
"m 	c #09AFF0",
"n 	c #00ADEF",
"o 	c #25B9F1",
"p 	c #57CAF4",
"q 	c #BCE5F3",
"r 	c #F7FCF6",
"s 	c #C1E7F4",
"t 	c #76D0F3",
"u 	c #15B2F0",
"v 	c #32C2F3",
"w 	c #98DAF3",
"x 	c #E1F3F5",
"y 	c #F2FAF6",
"z 	c #9CDBF3",
"A 	c #27BAF1",
"B 	c #01ADEF",
"C 	c #29BCF2",
"D 	c #78D1F3",
"E 	c #B7E4F3",
"F 	c #FBFEF7",
"G 	c #AAE0F3",
"H 	c #6ACCF3",
"I 	c #04AEEF",
"J 	c #0EB0F0",
"K 	c #30C1F3",
"L 	c #4DC9F4",
"M 	c #B3E2F3",
"N 	c #F9FDF7",
"O 	c #EDF8F6",
"P 	c #EAF7F6",
"Q 	c #D9F0F5",
"R 	c #B0E1F3",
"S 	c #9FDCF3",
"T 	c #30C0F3",
"U 	c #9BDBF3",
"V 	c #D1EDF4",
"W 	c #FAFDF7",
"X 	c #E7F6F6",
"Y 	c #CEECF4",
"Z 	c #8AD6F3",
"` 	c #20B7F1",
" .	c #8DD7F3",
"..	c #D1EDF5",
"+.	c #C3E8F4",
"@.	c #82D4F3",
"#.	c #62CCF4",
"$.	c #41C7F4",
"%.	c #A0DCF3",
"&.	c #9CDCF3",
"*.	c #38C5F4",
"=.	c #07AFEF",
"-.	c #16B3F0",
";.	c #34C3F3",
">.	c #A7DEF3",
",.	c #8CD6F3",
"'.	c #62CDF4",
").	c #37C6F4",
"!.	c #35C4F4",
"~.	c #75D0F3",
"{.	c #7ED3F3",
"].	c #2ABCF2",
"^.	c #64CDF3",
"/.	c #89D6F3",
"(.	c #9DDBF3",
"_.	c #AADFF3",
":.	c #6ACEF4",
"<.	c #1CB5F1",
"[.	c #17B3F0",
"}.	c #8DD6F3",
"|.	c #2CBDF2",
"1.	c #1AB4F0",
"2.	c #67CEF4",
"3.	c #61CBF4",
"4.	c #12B2EF",
"5.	c #50C9F4",
"6.	c #43C7F4",
"7.	c #36C4F3",
"8.	c #08AFEF",
"9.	c #2ABDF2",
"0.	c #61CAF3",
"a.	c #11B1F0",
"b.	c #70CFF4",
"c.	c #05AEEF",
"d.	c #58C9F3",
"e.	c #ADE1F2",
"f.	c #66CCF3",
"g.	c #26BAF2",
"h.	c #5ECCF4",
"i.	c #2EBFF2",
"j.	c #24B9F1",
"k.	c #03AEEF",
"l.	c #28BBF2",
"m.	c #A1DDF3",
"n.	c #7CD2F4",
"o.	c #1DB5F1",
"p.	c #26BAF1",
"q.	c #3BC5F4",
"r.	c #6FCFF3",
"s.	c #84D4F3",
"t.	c #7FD3F3",
"u.	c #85D4F3",
"v.	c #9ADBF3",
"w.	c #A7DFF3",
"x.	c #B1E2F4",
"                                                ",
"              . + + @ # $ % & * =               ",
"            . + + + + - ; > , ' ) !             ",
"          - + + + + + + + + + + ~ { ]           ",
"          + ^ / + ] - + + + + + + ( _ :         ",
"        - < [ } | 1 2 . + + + + + + 3 $         ",
"      4 + 5 6 7 8 9 0 a + + + + + + + b c       ",
"      . d e f g } | + h $ + + + + + + + & i     ",
"    j k l m n o } p + q r i + + + + + + + s -   ",
"    . t u n n v } } w + x y ] + + + + + + + +   ",
"  j z A n B C } } } D + E F h 4 + + + + + + + - ",
"  G H I J K } } } } L + M F F N O P P Q R + +   ",
"  S C n T } } } } } } U V F F W X Y ] + + + 1   ",
"G Z C n ` } } } } } }  .c ..+.- S @.#.$.%.+     ",
"1 &.*.=.n -.;.} } } } %.+ >.,.'.).7 !.~.+ G     ",
"  G {.].n n =.e } } ^.+ /.L } } } g 6 (.+       ",
"    _.:.<.n n [.} } }./.} } } } |.1.2.+ (       ",
"      9 3.4.n B } 5.%.6.} } } 7.8.9.^ G         ",
"      ] 9 0.a.n !./.b.} } } 7.g c.d.+ e.        ",
"        G 9 f.g.h.z ).i.j.[.B k.l.,.1           ",
"          - + | m.n.T o.` p.i.q.r.+             ",
"            1 + + z s.t.u.}.v.w.+ x.            ",
"                G _.+ + + + + 1 =               ",
"                                                "};
