/* XPM */
static char * taskbuttonbg_xpm[] = {
"1 28 7 1",
" 	c None",
".	c #3A3A3A",
"+	c #393939",
"@	c #383838",
"#	c #373737",
"$	c #363636",
"%	c #353535",
".",
".",
".",
".",
".",
".",
"+",
"+",
"+",
"+",
"@",
"@",
"@",
"@",
"#",
"#",
"#",
"#",
"#",
"#",
"$",
"$",
"$",
"$",
"$",
"%",
"%",
"%"};
