/* XPM */
static char * windows_xpm[] = {
"20 20 12 1",
" 	c None",
".	c #BBBBBB",
"+	c #000000",
"@	c #FFFFFF",
"#	c #FEFEFE",
"$	c #4B4B4B",
"%	c #848484",
"&	c #4F4F4F",
"*	c #575757",
"=	c #5E5E5E",
"-	c #646464",
";	c #676767",
"                    ",
"                    ",
"   ..........       ",
"  .++++++++++.      ",
"  .+@@@@@@@@+.      ",
"  .+########+.      ",
"  .++++++++++.      ",
"  .$$$%..........   ",
"  .&&&.++++++++++.  ",
"  .***.+@@@@@@@@+.  ",
"  .===.+########+.  ",
"  .---.++++++++++.  ",
"  .;;;.++++++++++.  ",
"   ....&&&&&&&&&&.  ",
"      .**********.  ",
"      .==========.  ",
"      .----------.  ",
"      .;;;;;;;;;;.  ",
"       ..........   ",
"                    "};
