/* XPM */
static char * frameITR_xpm[] = {
"5 22 11 1",
" 	c None",
".	c #1E1E1E",
"+	c #393939",
"@	c #363636",
"#	c #303030",
"$	c #353535",
"%	c #343434",
"&	c #333333",
"*	c #323232",
"=	c #313131",
"-	c #232323",
"     ",
"..   ",
"++.  ",
"@@#. ",
"$$#. ",
"$$$#.",
"$$$#.",
"$$$#.",
"%%%#.",
"%%%#.",
"%%%#.",
"&&&#.",
"***#.",
"***#.",
"***#.",
"***#.",
"===#.",
"===#.",
"===#.",
"===#.",
"####.",
"----."};
