/* XPM */
static char * frameATL_xpm[] = {
"5 22 24 1",
" 	c None",
".	c #1961B8",
"+	c #247AE2",
"@	c #267BE2",
"#	c #4C92E7",
"$	c #1E74DE",
"%	c #1D70D6",
"&	c #1D73DB",
"*	c #1657A5",
"=	c #1B6BCD",
"-	c #1D72D9",
";	c #1D70D5",
">	c #1C6ED2",
",	c #1C6CCE",
"'	c #1B6BCC",
")	c #1B69C9",
"!	c #1A68C6",
"~	c #1B6ACA",
"{	c #1B6CCE",
"]	c #1C6ED1",
"^	c #1C6ED3",
"/	c #1C6FD4",
"(	c #2379E2",
"_	c #1E75DF",
"     ",
"   .+",
"  .@#",
" .@$$",
" .%&&",
"*=---",
"*=;;;",
"*=>>>",
"*=,,,",
"*='''",
"*=)))",
"*=!!!",
"*=!!!",
"*=)))",
"*=~~~",
"*='''",
"*={{{",
"*=]]]",
"*=^^^",
"*=///",
"*=%%%",
"()___"};
