/* XPM */
static char * maximizeO_xpm[] = {
"19 38 109 2",
"  	c None",
". 	c #1E75DF",
"+ 	c #2379E2",
"@ 	c #1961BA",
"# 	c #1B6CCD",
"$ 	c #1C6DCF",
"% 	c #1C6DD0",
"& 	c #1C6DD1",
"* 	c #1961B9",
"= 	c #2178E1",
"- 	c #1E74DE",
"; 	c #2077E1",
"> 	c #185FB5",
", 	c #1A68C6",
"' 	c #1B68C7",
") 	c #1B69C7",
"! 	c #1B69C9",
"~ 	c #185EB3",
"{ 	c #1D73DB",
"] 	c #1860B6",
"^ 	c #185DB2",
"/ 	c #1A67C4",
"( 	c #458EE6",
"_ 	c #3685E4",
": 	c #3886E4",
"< 	c #3987E5",
"[ 	c #448DE6",
"} 	c #1A67C3",
"| 	c #1D72D9",
"1 	c #1A65C1",
"2 	c #1E75E0",
"3 	c #1D73DC",
"4 	c #1E74DD",
"5 	c #185FB6",
"6 	c #1D70D5",
"7 	c #1A64BF",
"8 	c #2F81E3",
"9 	c #1E76E0",
"0 	c #1A68C5",
"a 	c #1B68C6",
"b 	c #1A67C5",
"c 	c #1964BE",
"d 	c #185FB4",
"e 	c #1C6ED2",
"f 	c #1963BD",
"g 	c #2D7FE3",
"h 	c #2279E2",
"i 	c #98C0F1",
"j 	c #1963BC",
"k 	c #1C6CCE",
"l 	c #1962BC",
"m 	c #2B7EE3",
"n 	c #297DE2",
"o 	c #99C1F1",
"p 	c #287CE2",
"q 	c #1962BA",
"r 	c #1B6BCC",
"s 	c #185CB0",
"t 	c #2E80E3",
"u 	c #1B69C8",
"v 	c #1B6ACB",
"w 	c #1D71D7",
"x 	c #175CAE",
"y 	c #247AE2",
"z 	c #257AE2",
"A 	c #1C6FD4",
"B 	c #1964BF",
"C 	c #1D74DC",
"D 	c #1B6AC9",
"E 	c #2278E1",
"F 	c #1A65C0",
"G 	c #1D71D8",
"H 	c #1B6CCE",
"I 	c #1A66C2",
"J 	c #1C70D5",
"K 	c #1B6ACA",
"L 	c #1A66C3",
"M 	c #1962BB",
"N 	c #3B87E5",
"O 	c #1C6ED1",
"P 	c #1C6CCF",
"Q 	c #1D73DA",
"R 	c #1C6ED3",
"S 	c #1E75DE",
"T 	c #1B6BCB",
"U 	c #1D70D6",
"V 	c #175CAF",
"W 	c #1C6FD3",
"X 	c #175BAD",
"Y 	c #1758A9",
"Z 	c #185DB0",
"` 	c #185EB4",
" .	c #1759A9",
"..	c #175AAC",
"+.	c #1657A7",
"@.	c #1658A7",
"#.	c #1759AA",
"$.	c #175AAB",
"%.	c #1658A8",
"&.	c #1657A5",
"*.	c #1758A8",
"=.	c #8EBAF0",
"-.	c #8DB9F0",
";.	c #1657A6",
">.	c #1656A4",
",.	c #1655A2",
"'.	c #185DB1",
").	c #175BAE",
"!.	c #175CB0",
". + @ # $ $ % & & & % $ $ # * = . - - ",
"; * > , ' ) ! ! ! ! ) ' , , ~ * ; { { ",
"] ^ / ( _ : < < < < < : _ [ } ^ ] | | ",
"] 1 2 3 4 - . . . . . - 3 { 2 1 5 6 6 ",
"> 7 8 9 0 0 a ' ' ' a 0 b 9 4 c d e e ",
"~ f g h a i i i i i i i 0 h 3 j ~ k k ",
"^ l m n ' i o o o o o i ' p { q ^ r r ",
"s * p t u o v r r v v i u g w * x ! ! ",
"c 5 y . u o r + z y v o u - A 5 c , , ",
"B 5 z C D o r E + = v o u 3 6 5 c , , ",
"F * p G u o v H H r v o u G w * F ! ! ",
"I q n J u o o o o o o i ' J | * I K K ",
"L M m % ' u D D D D u u a % { q I r r ",
"b j N r # % % O O O % P # r Q j b H H ",
"} u B b u D D v v v D ! u / c ' L O O ",
"3 a D 7 1 1 I I I I I 1 1 7 u 0 { R R ",
"w S u v T r r H H H r r T K u 4 w A A ",
"U U U U U U U U U U U U U U U U U U U ",
". . . . . . . . . . . . . . . . . . . ",
"{ U V f j M M * * M M M j c V w C - - ",
"W X Y ~ ^ ^ Z s s Z ^ ^ ~ `  .X J { { ",
"..+.^ + w U A A A A A U G y ^ @.X | | ",
"#.V } f M q @ @ @ @ q M f c b V $.6 6 ",
"@...k c $. . .%.%.%. .#.$.F F ..%.e e ",
"&.*.v B  .=.-.-.-.-.-.=. .F j #.;.k k ",
">.@., 1 %.-.-.-.-.-.-.-. .L q %.>.r r ",
",.&.L L %.-.>.>.>.>.&.-.%./ 5 &.,.! ! ",
"$.>.c d +.-.>.$.$.X >.-.%.5 ` >.$., , ",
"$.>.c ~ +.-.>.#. .$.>.-.%.` ` >.$., , ",
"X &.L '.%.-.>.,.,.>.&.-.%.~ 5 &.X ! ! ",
").&./ s %.-.-.-.-.-.-.-. .'.* @.x K K ",
"V %.) !. .%.+.+.;.+.%.%. .'.M *.s r r ",
"^ #.G !.).X $.$.$.$.X X x !.f #.~ H H ",
"~ ~ #.X X ..$.#.#.$.$.X X X $.~ ~ O O ",
"u > ~ ..#.#.*.*.*.*.*.#.#...> > D R R ",
"O v 5 5 > ~ ~ ~ ~ ~ ~ > > ] 5 T O A A ",
"U U U U U U U U U U U U U U U U U U U ",
". . . . . . . . . . . . . . . . . . . "};
