/* XPM */
static char * menuButtonI_xpm[] = {
"19 38 9 1",
" 	c None",
".	c #363636",
"+	c #353535",
"@	c #343434",
"#	c #333333",
"$	c #323232",
"%	c #313131",
"&	c #303030",
"*	c #232323",
"...................",
"+++++++++++++++++++",
"+++++++++++++++++++",
"+++++++++++++++++++",
"+++++++++++++++++++",
"@@@@@@@@@@@@@@@@@@@",
"@@@@@@@@@@@@@@@@@@@",
"@@@@@@@@@@@@@@@@@@@",
"###################",
"$$$$$$$$$$$$$$$$$$$",
"$$$$$$$$$$$$$$$$$$$",
"$$$$$$$$$$$$$$$$$$$",
"$$$$$$$$$$$$$$$$$$$",
"%%%%%%%%%%%%%%%%%%%",
"%%%%%%%%%%%%%%%%%%%",
"%%%%%%%%%%%%%%%%%%%",
"%%%%%%%%%%%%%%%%%%%",
"&&&&&&&&&&&&&&&&&&&",
"*******************",
"...................",
"+++++++++++++++++++",
"+++++++++++++++++++",
"+++++++++++++++++++",
"+++++++++++++++++++",
"@@@@@@@@@@@@@@@@@@@",
"@@@@@@@@@@@@@@@@@@@",
"@@@@@@@@@@@@@@@@@@@",
"###################",
"$$$$$$$$$$$$$$$$$$$",
"$$$$$$$$$$$$$$$$$$$",
"$$$$$$$$$$$$$$$$$$$",
"$$$$$$$$$$$$$$$$$$$",
"%%%%%%%%%%%%%%%%%%%",
"%%%%%%%%%%%%%%%%%%%",
"%%%%%%%%%%%%%%%%%%%",
"%%%%%%%%%%%%%%%%%%%",
"&&&&&&&&&&&&&&&&&&&",
"*******************"};
