/* XPM */
static char * menuButtonA_xpm[] = {
"19 38 17 1",
" 	c None",
".	c #1E74DE",
"+	c #1D73DB",
"@	c #1D72D9",
"#	c #1D70D5",
"$	c #1C6ED2",
"%	c #1C6CCE",
"&	c #1B6BCC",
"*	c #1B69C9",
"=	c #1A68C6",
"-	c #1B6ACA",
";	c #1B6CCE",
">	c #1C6ED1",
",	c #1C6ED3",
"'	c #1C6FD4",
")	c #1D70D6",
"!	c #1E75DF",
"...................",
"+++++++++++++++++++",
"@@@@@@@@@@@@@@@@@@@",
"###################",
"$$$$$$$$$$$$$$$$$$$",
"%%%%%%%%%%%%%%%%%%%",
"&&&&&&&&&&&&&&&&&&&",
"*******************",
"===================",
"===================",
"*******************",
"-------------------",
"&&&&&&&&&&&&&&&&&&&",
";;;;;;;;;;;;;;;;;;;",
">>>>>>>>>>>>>>>>>>>",
",,,,,,,,,,,,,,,,,,,",
"'''''''''''''''''''",
")))))))))))))))))))",
"!!!!!!!!!!!!!!!!!!!",
"...................",
"+++++++++++++++++++",
"@@@@@@@@@@@@@@@@@@@",
"###################",
"$$$$$$$$$$$$$$$$$$$",
"%%%%%%%%%%%%%%%%%%%",
"&&&&&&&&&&&&&&&&&&&",
"*******************",
"===================",
"===================",
"*******************",
"-------------------",
"&&&&&&&&&&&&&&&&&&&",
";;;;;;;;;;;;;;;;;;;",
">>>>>>>>>>>>>>>>>>>",
",,,,,,,,,,,,,,,,,,,",
"'''''''''''''''''''",
")))))))))))))))))))",
"!!!!!!!!!!!!!!!!!!!"};
