/* XPM */
static char * minimizeA_xpm[] = {
"19 38 55 1",
" 	c None",
".	c #1E74DE",
"+	c #185EB3",
"@	c #1A68C6",
"#	c #1D73DB",
"$	c #175CAF",
"%	c #1963BD",
"&	c #185DB1",
"*	c #175BAD",
"=	c #1962BB",
"-	c #3484E4",
";	c #257AE2",
">	c #1D72D9",
",	c #185CB0",
"'	c #1960B8",
")	c #1C6ED2",
"!	c #1B6BCC",
"~	c #1D70D5",
"{	c #175CAE",
"]	c #185FB5",
"^	c #1E76E0",
"/	c #1C6DD0",
"(	c #1C6CCE",
"_	c #1E74DD",
":	c #1C6FD3",
"<	c #1B6BCB",
"[	c #175AAB",
"}	c #1D70D6",
"|	c #1B6ACA",
"1	c #1658A8",
"2	c #1B68C7",
"3	c #1B69C9",
"4	c #185EB4",
"5	c #1B6AC9",
"6	c #1A67C4",
"7	c #185FB4",
"8	c #1B69C7",
"9	c #1961B9",
"0	c #1860B6",
"a	c #1A67C5",
"b	c #93BDF1",
"c	c #1D71D8",
"d	c #1A66C3",
"e	c #1A65C0",
"f	c #287CE2",
"g	c #1964BE",
"h	c #1B6CCE",
"i	c #1963BC",
"j	c #1962BA",
"k	c #1C6ED1",
"l	c #1C6ED3",
"m	c #1A64BF",
"n	c #1C6FD4",
"o	c #1E75DF",
"p	c #134C90",
"..+@@@@@@@@@@@+....",
"#+$%%%%%%%%%%%$+###",
"&*=-;;;;;;;;;-=*&>>",
",')!!!!!!!!!!!)',~~",
"{]^///////////(]{))",
"*+_:::::::::::<+*((",
"[&#}}}}}}}}}}}|&[!!",
"1$}>>>>>>>>>>>2$133",
"4*:|5||5||||||6*4@@",
"7*:899999999986*7@@",
"0$}a9bbbbbbb9a2$033",
"9,cd9bbbbbbb9d3,9||",
"9&#e999999999e|&9!!",
"=+fggggggggggg|+=hh",
"i%]9jjjjjjjjj9]%ikk",
"l%m]]]]]]]]]]]m%lll",
"nnmeeeeeeeeeeemnnnn",
"}}}}}}}}}}}}}}}}}}}",
"ooooooooooooooooooo",
"ppppppppppppppppppp",
"ppppppppppppppppppp",
"ppppppppppppppppppp",
"ppppppppppppppppppp",
"ppppppppppppppppppp",
"ppppppppppppppppppp",
"ppppppppppppppppppp",
"ppppppppppppppppppp",
"ppppppppppppppppppp",
"ppppppppppppppppppp",
"ppppppppppppppppppp",
"ppppppppppppppppppp",
"ppppppppppppppppppp",
"ppppppppppppppppppp",
"ppppppppppppppppppp",
"ppppppppppppppppppp",
"ppppppppppppppppppp",
"ppppppppppppppppppp",
"ppppppppppppppppppp"};
