/* XPM */
static char * rolldownO_xpm[] = {
"19 38 112 2",
"  	c None",
". 	c #1E75DF",
"+ 	c #2379E2",
"@ 	c #1961BA",
"# 	c #1B6CCD",
"$ 	c #1C6DCF",
"% 	c #1C6DD0",
"& 	c #1C6DD1",
"* 	c #1961B9",
"= 	c #2178E1",
"- 	c #1E74DE",
"; 	c #2077E1",
"> 	c #185FB5",
", 	c #1A68C6",
"' 	c #1B68C7",
") 	c #1B69C7",
"! 	c #1B69C9",
"~ 	c #185EB3",
"{ 	c #1D73DB",
"] 	c #1860B6",
"^ 	c #185DB2",
"/ 	c #1A67C4",
"( 	c #458EE6",
"_ 	c #3685E4",
": 	c #3886E4",
"< 	c #3987E5",
"[ 	c #448DE6",
"} 	c #1A67C3",
"| 	c #1D72D9",
"1 	c #1A65C1",
"2 	c #1E75E0",
"3 	c #1D73DC",
"4 	c #1E74DD",
"5 	c #185FB6",
"6 	c #1D70D5",
"7 	c #1A64BF",
"8 	c #2F81E3",
"9 	c #1E76E0",
"0 	c #1F77E1",
"a 	c #1A68C5",
"b 	c #1B68C6",
"c 	c #1964BE",
"d 	c #185FB4",
"e 	c #1C6ED2",
"f 	c #1963BD",
"g 	c #2D7FE3",
"h 	c #2279E2",
"i 	c #98C0F1",
"j 	c #1963BC",
"k 	c #1C6CCE",
"l 	c #1962BC",
"m 	c #2B7EE3",
"n 	c #297DE2",
"o 	c #99C1F1",
"p 	c #287CE2",
"q 	c #1962BA",
"r 	c #1B6BCC",
"s 	c #185CB0",
"t 	c #2E80E3",
"u 	c #1B69C8",
"v 	c #1D71D7",
"w 	c #175CAE",
"x 	c #247AE2",
"y 	c #9AC2F2",
"z 	c #1C6FD4",
"A 	c #1964BF",
"B 	c #257AE2",
"C 	c #1D74DC",
"D 	c #1B6AC9",
"E 	c #1A65C0",
"F 	c #1D71D8",
"G 	c #1A66C2",
"H 	c #1C70D5",
"I 	c #1B6ACA",
"J 	c #1A66C3",
"K 	c #1962BB",
"L 	c #1A67C5",
"M 	c #3B87E5",
"N 	c #1C6ED1",
"O 	c #1C6CCF",
"P 	c #1D73DA",
"Q 	c #1B6CCE",
"R 	c #1B6ACB",
"S 	c #1C6ED3",
"T 	c #1E75DE",
"U 	c #1B6BCB",
"V 	c #1D70D6",
"W 	c #175CAF",
"X 	c #1C6FD3",
"Y 	c #175BAD",
"Z 	c #1758A9",
"` 	c #185DB0",
" .	c #185EB4",
"..	c #1759A9",
"+.	c #175AAC",
"@.	c #1657A7",
"#.	c #1658A7",
"$.	c #1759AA",
"%.	c #175AAB",
"&.	c #1658A8",
"*.	c #1657A5",
"=.	c #1758A8",
"-.	c #8EBAF0",
";.	c #8DB9F0",
">.	c #1657A6",
",.	c #1656A4",
"'.	c #1655A2",
").	c #8BB9F0",
"!.	c #8CB9F0",
"~.	c #185DB1",
"{.	c #175BAE",
"].	c #175CB0",
". + @ # $ $ % & & & % $ $ # * = . - - ",
"; * > , ' ) ! ! ! ! ) ' , , ~ * ; { { ",
"] ^ / ( _ : < < < < < : _ [ } ^ ] | | ",
"] 1 2 3 4 - . . . . . - 3 { 2 1 5 6 6 ",
"> 7 8 9 0 a b ' ' ' b a 0 9 4 c d e e ",
"~ f g h b i i i i i i i a h 3 j ~ k k ",
"^ l m n ' i o o o o o i ' p { q ^ r r ",
"s * p t u o o o o o o i u g v * w ! ! ",
"c 5 x . u o o y y o o o u - z 5 c , , ",
"A 5 B C D o o y y y o o u 3 6 5 c , , ",
"E * p F u o o o y o o o u F v * E ! ! ",
"G q n H u o o o o o o i ' H | * G I I ",
"J K m % e u D D D D u u e % { q G r r ",
"L j M r # % % N N N % O # r P j L Q Q ",
"} u A L u D D R R R D ! u / c ' J N N ",
"3 b D 7 1 1 G G G G G 1 1 7 u a { S S ",
"v T u R U r r Q Q Q r r U I u 4 v z z ",
"V V V V V V V V V V V V V V V V V V V ",
". . . . . . . . . . . . . . . . . . . ",
"{ V W f j K K * * K K K j c W v C - - ",
"X Y Z ~ ^ ^ ` s s ` ^ ^ ~  ...Y H { { ",
"+.@.^ + v V z z z z z V F x ^ #.Y | | ",
"$.W } f K q @ @ @ @ q K f c L W %.6 6 ",
"#.+.k c f ....&.&.&...$.f E E +.&.e e ",
"*.=.R A ..-.;.;.;.;.;.-...E j $.>.k k ",
",.#., 1 &.;.;.;.;.;.;.;...J q &.,.r r ",
"'.*.J J &.;.;.).).!.;.;.&./ 5 *.'.! ! ",
"%.,.c d @.;.).).).).;.;.&.5  .,.%., , ",
"%.,.c ~ @.;.).).).).;.;.&. . .,.%., , ",
"Y *.J ~.&.;.!.).).!.;.;.&.~ 5 *.Y ! ! ",
"{.*./ s &.;.;.;.;.;.;.;...~.* #.w I I ",
"W &.) ].{.&.@.@.>.@.&.&.w ~.K =.s r r ",
"^ $.F ].{.Y %.%.%.%.Y Y w ].f $.~ Q Q ",
"~ ~ $.Y Y +.%.$.$.%.%.Y Y Y %.~ ~ N N ",
"u > ~ +.$.$.=.=.=.=.=.$.$.+.> > D S S ",
"N R 5 5 > ~ ~ ~ ~ ~ ~ > > ] 5 U N z z ",
"V V V V V V V V V V V V V V V V V V V ",
". . . . . . . . . . . . . . . . . . . "};
