/* XPM */
static char * rolldownI_xpm[] = {
"19 38 21 1",
" 	c None",
".	c #363636",
"+	c #333333",
"@	c #323232",
"#	c #353535",
"$	c #2F2F2F",
"%	c #212121",
"&	c #3B3B3B",
"*	c #343434",
"=	c #3A3A3A",
"-	c #181818",
";	c #393939",
">	c #383838",
",	c #373737",
"'	c #313131",
")	c #303030",
"!	c #232323",
"~	c #1E1E1E",
"{	c #2C2C2C",
"]	c #292929",
"^	c #2E2E2E",
"..+@@@@@@@@@@@+....",
"#+$%%%%%%%%%%%$+###",
"+$%#&&&&&&&&&#%$+##",
"@%#&&&&&&&&&&&*%@##",
"@%&=#-------#=;%@##",
"@%&=-$$$$$$$-=;%@**",
"@%&=-$$$$$$$-=;%@**",
"+%&=-$$$$$$$-=;%+**",
"+%&;-$$$$$$$-;;%+++",
"+%&>-$$$$$$$->;%+@@",
"+%&>-$$$$$$$->;%+@@",
"*%&,-$$$$$$$-,;%*@@",
"*%&.#-------#.;%*@@",
"*%############*%*''",
"++%'#########'%++''",
"'+*%%%%%%%%%%%*+'''",
"''*************''''",
")))))))))))))))))))",
"!!!!!!!!!!!!!!!!!!!",
"...................",
"###~~~~~~~~~~~#####",
"##~{{{{{{{{{{{~&###",
"#~]''''''''''''~&##",
"#~]'{-------{''~=##",
"*~])-$$$$$$$-))~=**",
"*~])-$$$$$$$-))~=**",
"*~])-$$$$$$$-))~=**",
"+~])-$$$$$$$-))~=++",
"@~]$-$$$$$$$-$$~=@@",
"@~]$-$$$$$$$-$$~=@@",
"@~]$-$$$$$$$-$$~;@@",
"@~]${-------{$$~;@@",
"'~]$$$$$$$$$$$$~;''",
"''~^^^^^^^^^^~~;'''",
"'';~~~~~~~~~~~;''''",
"''';;;;;;;;;;;'''''",
")))))))))))))))))))",
"!!!!!!!!!!!!!!!!!!!"};
