/* XPM */
static char * rolldownA_xpm[] = {
"19 38 54 1",
" 	c None",
".	c #1E74DE",
"+	c #185EB3",
"@	c #1A68C6",
"#	c #1D73DB",
"$	c #175CAF",
"%	c #1963BD",
"&	c #185DB1",
"*	c #175BAD",
"=	c #1962BB",
"-	c #3484E4",
";	c #257AE2",
">	c #1D72D9",
",	c #185CB0",
"'	c #1960B8",
")	c #1C6ED2",
"!	c #1B6BCC",
"~	c #1D70D5",
"{	c #175CAE",
"]	c #185FB5",
"^	c #1E76E0",
"/	c #1C6DD0",
"(	c #1961B9",
"_	c #1C6CCE",
":	c #1E74DD",
"<	c #1C6FD3",
"[	c #93BDF1",
"}	c #1B6BCB",
"|	c #175AAB",
"1	c #1D70D6",
"2	c #1B6ACA",
"3	c #1658A8",
"4	c #1B68C7",
"5	c #1B69C9",
"6	c #185EB4",
"7	c #1A67C4",
"8	c #185FB4",
"9	c #1B69C7",
"0	c #1860B6",
"a	c #1A67C5",
"b	c #1D71D8",
"c	c #1A66C3",
"d	c #1A65C0",
"e	c #287CE2",
"f	c #1964BE",
"g	c #1B6CCE",
"h	c #1963BC",
"i	c #1962BA",
"j	c #1C6ED1",
"k	c #1C6ED3",
"l	c #1A64BF",
"m	c #1C6FD4",
"n	c #1E75DF",
"o	c #134C90",
"..+@@@@@@@@@@@+....",
"#+$%%%%%%%%%%%$+###",
"&*=-;;;;;;;;;-=*&>>",
",')!!!!!!!!!!!)',~~",
"{]^//(((((((//_]{))",
"*+:<([[[[[[[(<}+*__",
"|&#1([[[[[[[(12&|!!",
"3$1>([[[[[[[(>4$355",
"6*<2([[[[[[[(27*6@@",
"8*<9([[[[[[[(97*8@@",
"0$1a([[[[[[[(a4$055",
"(,bc([[[[[[[(c5,(22",
"(&#dd(((((((dd2&(!!",
"=+efffffffffff2+=gg",
"h%](iiiiiiiii(]%hjj",
"k%l]]]]]]]]]]]l%kkk",
"mmldddddddddddlmmmm",
"1111111111111111111",
"nnnnnnnnnnnnnnnnnnn",
"ooooooooooooooooooo",
"ooooooooooooooooooo",
"ooooooooooooooooooo",
"ooooooooooooooooooo",
"ooooooooooooooooooo",
"ooooooooooooooooooo",
"ooooooooooooooooooo",
"ooooooooooooooooooo",
"ooooooooooooooooooo",
"ooooooooooooooooooo",
"ooooooooooooooooooo",
"ooooooooooooooooooo",
"ooooooooooooooooooo",
"ooooooooooooooooooo",
"ooooooooooooooooooo",
"ooooooooooooooooooo",
"ooooooooooooooooooo",
"ooooooooooooooooooo",
"ooooooooooooooooooo"};
