/* XPM */
static char * minimizeO_xpm[] = {
"19 38 124 2",
"  	c None",
". 	c #1E75DF",
"+ 	c #2379E2",
"@ 	c #1961BA",
"# 	c #1B6CCD",
"$ 	c #1C6DCF",
"% 	c #1C6DD0",
"& 	c #1C6DD1",
"* 	c #1961B9",
"= 	c #2178E1",
"- 	c #1E74DE",
"; 	c #2077E1",
"> 	c #185FB5",
", 	c #1A68C6",
"' 	c #1B68C7",
") 	c #1B69C7",
"! 	c #1B69C9",
"~ 	c #185EB3",
"{ 	c #1D73DB",
"] 	c #1860B6",
"^ 	c #185DB2",
"/ 	c #1A67C4",
"( 	c #458EE6",
"_ 	c #3685E4",
": 	c #3886E4",
"< 	c #3987E5",
"[ 	c #448DE6",
"} 	c #1A67C3",
"| 	c #1D72D9",
"1 	c #1A65C1",
"2 	c #1E75E0",
"3 	c #1D73DC",
"4 	c #1E74DD",
"5 	c #185FB6",
"6 	c #1D70D5",
"7 	c #1A64BF",
"8 	c #2F81E3",
"9 	c #1E76E0",
"0 	c #1F77E1",
"a 	c #2278E1",
"b 	c #2279E2",
"c 	c #1964BE",
"d 	c #185FB4",
"e 	c #1C6ED2",
"f 	c #1963BD",
"g 	c #2D7FE3",
"h 	c #257AE2",
"i 	c #277BE2",
"j 	c #287CE2",
"k 	c #297DE2",
"l 	c #267BE2",
"m 	c #1963BC",
"n 	c #1C6CCE",
"o 	c #1962BC",
"p 	c #2B7EE3",
"q 	c #2C7FE3",
"r 	c #2E80E3",
"s 	c #2F80E3",
"t 	c #1962BA",
"u 	c #1B6BCC",
"v 	c #185CB0",
"w 	c #3382E4",
"x 	c #3483E4",
"y 	c #3584E4",
"z 	c #3684E4",
"A 	c #3383E4",
"B 	c #3182E3",
"C 	c #1D71D7",
"D 	c #175CAE",
"E 	c #247AE2",
"F 	c #1E76E1",
"G 	c #1C6FD4",
"H 	c #1964BF",
"I 	c #1D74DC",
"J 	c #1B6AC9",
"K 	c #1B6ACB",
"L 	c #1B6CCE",
"M 	c #1B69C8",
"N 	c #1A65C0",
"O 	c #1D71D8",
"P 	c #99C1F1",
"Q 	c #9AC2F2",
"R 	c #1A66C2",
"S 	c #1C70D5",
"T 	c #98C0F1",
"U 	c #1B6ACA",
"V 	c #1A66C3",
"W 	c #1962BB",
"X 	c #1B68C6",
"Y 	c #1A67C5",
"Z 	c #3B87E5",
"` 	c #1C6ED1",
" .	c #1C6CCF",
"..	c #1D73DA",
"+.	c #1A68C5",
"@.	c #1C6ED3",
"#.	c #1E75DE",
"$.	c #1B6BCB",
"%.	c #1D70D6",
"&.	c #175CAF",
"*.	c #1C6FD3",
"=.	c #175BAD",
"-.	c #1758A9",
";.	c #185DB0",
">.	c #185EB4",
",.	c #1759A9",
"'.	c #175AAC",
").	c #1657A7",
"!.	c #1658A7",
"~.	c #1759AA",
"{.	c #175AAB",
"].	c #1658A8",
"^.	c #1657A5",
"/.	c #1758A8",
"(.	c #1657A6",
"_.	c #1656A4",
":.	c #1655A2",
"<.	c #175BAE",
"[.	c #185DB1",
"}.	c #1554A1",
"|.	c #8DB9F0",
"1.	c #8CB9F0",
"2.	c #8BB9F0",
"3.	c #175CB0",
". + @ # $ $ % & & & % $ $ # * = . - - ",
"; * > , ' ) ! ! ! ! ) ' , , ~ * ; { { ",
"] ^ / ( _ : < < < < < : _ [ } ^ ] | | ",
"] 1 2 3 4 - . . . . . - 3 { 2 1 5 6 6 ",
"> 7 8 9 0 = a a b a = = 0 9 4 c d e e ",
"~ f g b h i j k k j j l h b 3 m ~ n n ",
"^ o p k p q r 8 8 s r q p j { t ^ u u ",
"v * j r 8 w x y z y A B 8 g C * D ! ! ",
"c 5 E . F ; a + h E a 0 9 - G 5 c , , ",
"H 5 h I J K u L $ L K J M 3 6 5 c , , ",
"N * j O M P P P Q P P P M O C * N ! ! ",
"R t k S M P P P P P P T ' S | * R U U ",
"V W p % ' M J J J J M M X % { t R u u ",
"Y m Z u # % % ` ` ` %  .# u ..m Y L L ",
"} M H Y M J J K K K J ! M / c ' V ` ` ",
"3 X J 7 1 1 R R R R R 1 1 7 M +.{ @.@.",
"C #.M K $.u u L L L u u $.U M 4 C G G ",
"%.%.%.%.%.%.%.%.%.%.%.%.%.%.%.%.%.%.%.",
". . . . . . . . . . . . . . . . . . . ",
"{ %.&.f m W W * * W W W m c &.C I - - ",
"*.=.-.~ ^ ^ ;.v v ;.^ ^ ~ >.,.=.S { { ",
"'.).^ + C %.G G G G G %.O E ^ !.=.| | ",
"~.&.} f W t @ @ @ @ t W f c Y &.{.6 6 ",
"!.'.n c f W t @ @ @ t W f N N '.].e e ",
"^./.K H f o t * * t t o c N m ~.(.n n ",
"_.!., 1 c f W t t t o f N V t ]._.u u ",
":.^.V V N f W t t W f H 1 / 5 ^.:.! ! ",
"{._.c d ~ v <.{.{.=.D [.>.5 >._.{., , ",
"{._.c ~ ).^._.:.}.:._.(.].>.>._.{., , ",
"=.^.V [.].|.1.2.2.1.|.|.].~ 5 ^.=.! ! ",
"<.^./ v ].|.|.|.|.|.|.|.,.[.* !.D U U ",
"&.].) 3.,.].).).(.).].].,.[.W /.v u u ",
"^ ~.O 3.<.=.{.{.{.{.=.=.D 3.f ~.~ L L ",
"~ ~ ~.=.=.'.{.~.~.{.{.=.=.=.{.~ ~ ` ` ",
"M > ~ '.~.~./././././.~.~.'.> > J @.@.",
"` K 5 5 > ~ ~ ~ ~ ~ ~ > > ] 5 $.` G G ",
"%.%.%.%.%.%.%.%.%.%.%.%.%.%.%.%.%.%.%.",
". . . . . . . . . . . . . . . . . . . "};
