/* XPM */
static char * closeO_xpm[] = {
"19 38 460 2",
"  	c None",
". 	c #4864AA",
"+ 	c #4F6BB2",
"@ 	c #21337C",
"# 	c #354D97",
"$ 	c #364E99",
"% 	c #374F9A",
"& 	c #37509B",
"* 	c #38509C",
"= 	c #20337B",
"- 	c #4E6AB1",
"; 	c #4863AA",
"> 	c #4661A8",
", 	c #4B68B1",
"' 	c #20327A",
") 	c #1B2D75",
"! 	c #2B4393",
"~ 	c #2C4494",
"{ 	c #2D4596",
"] 	c #2D4697",
"^ 	c #2D4698",
"/ 	c #2D4597",
"( 	c #2C4495",
"_ 	c #2C4394",
": 	c #2B4292",
"< 	c #1A2C74",
"[ 	c #1F3279",
"} 	c #4B67B0",
"| 	c #435EA7",
"1 	c #1C3078",
"2 	c #182A73",
"3 	c #274192",
"4 	c #7397D7",
"5 	c #6285CA",
"6 	c #6487CB",
"7 	c #6588CC",
"8 	c #6589CD",
"9 	c #6588CD",
"0 	c #6386CB",
"a 	c #7296D6",
"b 	c #264091",
"c 	c #182A72",
"d 	c #1C2F77",
"e 	c #3E5BA5",
"f 	c #1B307A",
"g 	c #233C90",
"h 	c #4365B1",
"i 	c #3861B3",
"j 	c #3963B5",
"k 	c #3A64B7",
"l 	c #3B65B8",
"m 	c #3B66B9",
"n 	c #3C66B9",
"o 	c #3A64B6",
"p 	c #3962B5",
"q 	c #3860B2",
"r 	c #4265B0",
"s 	c #233C8F",
"t 	c #1A3079",
"u 	c #3957A3",
"v 	c #192E7B",
"w 	c #203A90",
"x 	c #557CC8",
"y 	c #3D67BA",
"z 	c #3F6ABC",
"A 	c #1447B2",
"B 	c #1448B3",
"C 	c #416DC1",
"D 	c #426EC1",
"E 	c #416DC0",
"F 	c #1447B1",
"G 	c #3E69BC",
"H 	c #3D67B9",
"I 	c #4062B3",
"J 	c #20398F",
"K 	c #182D7A",
"L 	c #3453A2",
"M 	c #172C79",
"N 	c #1D3890",
"O 	c #517AC8",
"P 	c #436EC1",
"Q 	c #1448B2",
"R 	c #FFF7F6",
"S 	c #FFF7F7",
"T 	c #154BB7",
"U 	c #4876C9",
"V 	c #FFF6F6",
"W 	c #426EC0",
"X 	c #3C5FB3",
"Y 	c #1C378F",
"Z 	c #172B78",
"` 	c #304FA0",
" .	c #152A7B",
"..	c #1A3690",
"+.	c #4B79CA",
"@.	c #4776C7",
"#.	c #1449B5",
"$.	c #FFF8F7",
"%.	c #FFF8F8",
"&.	c #164EBB",
"*.	c #1449B4",
"=.	c #4775C6",
"-.	c #3760B4",
";.	c #1A358F",
">.	c #142A7A",
",.	c #2B4C9F",
"'.	c #112779",
").	c #17328F",
"!.	c #4474C9",
"~.	c #4C7CCC",
"{.	c #4F7FCF",
"].	c #154DB9",
"^.	c #FFF9F8",
"/.	c #FFF9F9",
"(.	c #154CB8",
"_.	c #4E7ECE",
":.	c #4C7ACB",
"<.	c #315CB3",
"[.	c #17328E",
"}.	c #102678",
"|.	c #26489D",
"1.	c #1A3B97",
"2.	c #14308E",
"3.	c #3E70C9",
"4.	c #3A65B9",
"5.	c #3C67BC",
"6.	c #3E6BBF",
"7.	c #1650BE",
"8.	c #FFFAF9",
"9.	c #FFFAFA",
"0.	c #164FBD",
"a.	c #3D6ABE",
"b.	c #3B67BA",
"c.	c #2C58B3",
"d.	c #14308C",
"e.	c #1A3A95",
"f.	c #22459C",
"g.	c #1B3B97",
"h.	c #4071CA",
"i.	c #3862B6",
"j.	c #3A65BA",
"k.	c #164DBA",
"l.	c #3963B9",
"m.	c #3761B5",
"n.	c #2E59B3",
"o.	c #14308D",
"p.	c #1B3A95",
"q.	c #23459C",
"r.	c #1E3D98",
"s.	c #17338F",
"t.	c #4475CA",
"u.	c #355CB2",
"v.	c #1752C1",
"w.	c #154AB6",
"x.	c #355BB1",
"y.	c #315CB4",
"z.	c #1E3D97",
"A.	c #203F9A",
"B.	c #183491",
"C.	c #4676CA",
"D.	c #3258AE",
"E.	c #3760B9",
"F.	c #3157AD",
"G.	c #335EB5",
"H.	c #183390",
"I.	c #203E98",
"J.	c #284A9F",
"K.	c #214099",
"L.	c #1A3591",
"M.	c #4A78C9",
"N.	c #2E52A8",
"O.	c #3054AB",
"P.	c #3259B2",
"Q.	c #3258B1",
"R.	c #154BB8",
"S.	c #2F54AA",
"T.	c #375FB5",
"U.	c #213F98",
"V.	c #2B4CA0",
"W.	c #234299",
"X.	c #1B3790",
"Y.	c #5D8DD7",
"Z.	c #2A4DA3",
"`.	c #2C4FA5",
" +	c #2C51A8",
".+	c #2D52A9",
"++	c #2E53AA",
"@+	c #2E53AB",
"#+	c #2C50A7",
"$+	c #2B4FA4",
"%+	c #2A4DA2",
"&+	c #375FB3",
"*+	c #1B378F",
"=+	c #234298",
"-+	c #2E4FA1",
";+	c #244197",
">+	c #27469C",
",+	c #1E3A94",
"'+	c #244397",
")+	c #28479E",
"!+	c #2948A0",
"~+	c #2949A1",
"{+	c #2A4AA2",
"]+	c #2949A0",
"^+	c #28489F",
"/+	c #28469D",
"(+	c #244296",
"_+	c #1E3993",
":+	c #27459B",
"<+	c #234196",
"[+	c #3151A3",
"}+	c #3D60B2",
"|+	c #284499",
"1+	c #2A489D",
"2+	c #213B94",
"3+	c #223C96",
"4+	c #223D97",
"5+	c #233E99",
"6+	c #233F9A",
"7+	c #223E98",
"8+	c #213C95",
"9+	c #213B93",
"0+	c #29479C",
"a+	c #274398",
"b+	c #3D5FB1",
"c+	c #3453A4",
"d+	c #3A5AA9",
"e+	c #4163B3",
"f+	c #294699",
"g+	c #2C4A9D",
"h+	c #2D4B9F",
"i+	c #2E4CA1",
"j+	c #2E4DA2",
"k+	c #2E4EA2",
"l+	c #2E4DA1",
"m+	c #2D4CA0",
"n+	c #2C499D",
"o+	c #284699",
"p+	c #4062B2",
"q+	c #3756A5",
"r+	c #3A58A7",
"s+	c #4764AC",
"t+	c #445EA5",
"u+	c #3E589F",
"v+	c #172563",
"w+	c #25377B",
"x+	c #243679",
"y+	c #233578",
"z+	c #223477",
"A+	c #223376",
"B+	c #233478",
"C+	c #233579",
"D+	c #24367A",
"E+	c #25387C",
"F+	c #172664",
"G+	c #3F59A0",
"H+	c #445FA6",
"I+	c #3B549E",
"J+	c #162360",
"K+	c #111D57",
"L+	c #1B2B6F",
"M+	c #1A2A6E",
"N+	c #19296C",
"O+	c #18286B",
"P+	c #18286A",
"Q+	c #19296D",
"R+	c #1A2B6F",
"S+	c #1B2C71",
"T+	c #111E59",
"U+	c #162462",
"V+	c #3C569F",
"W+	c #13225E",
"X+	c #0F1B55",
"Y+	c #17296D",
"Z+	c #4B6DBB",
"`+	c #3B59A6",
" @	c #3A57A5",
".@	c #3956A4",
"+@	c #3955A3",
"@@	c #3855A3",
"#@	c #3956A3",
"$@	c #3B58A5",
"%@	c #3C5AA7",
"&@	c #4D6EBC",
"*@	c #182A6E",
"=@	c #101C57",
"-@	c #142360",
";@	c #11205C",
">@	c #15256B",
",@	c #274089",
"'@	c #1E3987",
")@	c #1C3785",
"!@	c #1B3583",
"~@	c #1A3482",
"{@	c #1A3481",
"]@	c #1B3582",
"^@	c #1C3684",
"/@	c #1D3886",
"(@	c #1E3A88",
"_@	c #28428B",
":@	c #15266C",
"<@	c #11215E",
"[@	c #0F1C59",
"}@	c #112266",
"|@	c #314FA1",
"1@	c #1E3A8A",
"2@	c #1D3887",
"3@	c #072076",
"4@	c #071F74",
"5@	c #1A3483",
"6@	c #071F75",
"7@	c #072177",
"8@	c #1D3989",
"9@	c #1F3C8B",
"0@	c #243C89",
"a@	c #122268",
"b@	c #0F1D5B",
"c@	c #0D1A55",
"d@	c #0F1E62",
"e@	c #2B4A9D",
"f@	c #1F3B8D",
"g@	c #FFE7E5",
"h@	c #FFE6E5",
"i@	c #061C70",
"j@	c #193385",
"k@	c #072077",
"l@	c #203D8E",
"m@	c #1F3785",
"n@	c #0F1F64",
"o@	c #0D1B56",
"p@	c #0B1753",
"q@	c #0D1C60",
"r@	c #25459C",
"s@	c #203E91",
"t@	c #071E73",
"u@	c #FFE6E4",
"v@	c #FFE5E4",
"w@	c #FFE5E3",
"x@	c #05196C",
"y@	c #214092",
"z@	c #0D1D62",
"A@	c #0B1855",
"B@	c #09154F",
"C@	c #0A195D",
"D@	c #204098",
"E@	c #214095",
"F@	c #1F3D92",
"G@	c #061A6E",
"H@	c #FFE4E2",
"I@	c #FFE4E3",
"J@	c #061C6F",
"K@	c #203E94",
"L@	c #224297",
"M@	c #17307F",
"N@	c #0B1A5F",
"O@	c #091651",
"P@	c #0D216A",
"Q@	c #09175A",
"R@	c #1C3B96",
"S@	c #172E79",
"T@	c #152B76",
"U@	c #132872",
"V@	c #051769",
"W@	c #FFE3E2",
"X@	c #FFE3E1",
"Y@	c #05186A",
"Z@	c #142A74",
"`@	c #162D77",
" #	c #18307B",
".#	c #142E7D",
"+#	c #09185D",
"@#	c #0E226C",
"##	c #0E216A",
"$#	c #152C75",
"%#	c #132972",
"&#	c #061B6E",
"*#	c #152B74",
"=#	c #162E77",
"-#	c #09185C",
";#	c #0F226C",
">#	c #10236C",
",#	c #142A72",
"'#	c #061D71",
")#	c #041667",
"!#	c #071E72",
"~#	c #10246E",
"{#	c #11256F",
"]#	c #0B1A60",
"^#	c #22429C",
"/#	c #142870",
"(#	c #071D72",
"_#	c #05196B",
":#	c #0F2065",
"<#	c #152972",
"[#	c #193382",
"}#	c #0C1B61",
"|#	c #122671",
"1#	c #132671",
"2#	c #26469D",
"3#	c #13286E",
"4#	c #12256B",
"5#	c #061D72",
"6#	c #0F2165",
"7#	c #13266C",
"8#	c #142970",
"9#	c #1C3685",
"0#	c #0E1E64",
"a#	c #132773",
"b#	c #152A74",
"c#	c #0E1F65",
"d#	c #355CB5",
"e#	c #13276C",
"f#	c #122569",
"g#	c #112367",
"h#	c #102265",
"i#	c #102164",
"j#	c #112366",
"k#	c #122468",
"l#	c #13266B",
"m#	c #14286D",
"n#	c #0F2067",
"o#	c #162B76",
"p#	c #172B75",
"q#	c #102067",
"r#	c #122366",
"s#	c #122367",
"t#	c #112265",
"u#	c #102063",
"v#	c #102163",
"w#	c #112164",
"x#	c #122467",
"y#	c #102169",
"z#	c #172C77",
"A#	c #172C78",
"B#	c #2B4797",
"C#	c #192D77",
"D#	c #182C76",
"E#	c #112168",
"F#	c #102065",
"G#	c #101F64",
"H#	c #0F1E63",
"I#	c #101F65",
"J#	c #112066",
"K#	c #112269",
"L#	c #192D78",
"M#	c #2C4899",
"N#	c #3452A1",
"O#	c #2E4A98",
"P#	c #192F78",
"Q#	c #1A2F78",
"R#	c #192D76",
"S#	c #192C75",
"T#	c #182B74",
"U#	c #182B73",
"V#	c #182C74",
"W#	c #192D75",
"X#	c #1A2E77",
"Y#	c #1B3079",
"Z#	c #1A2F79",
"`#	c #2F4B9A",
". + @ # $ % & * * * & % $ # = - ; > > ",
", ' ) ! ~ { ] ] ^ ] / ( _ : < [ } | | ",
"1 2 3 4 5 6 7 8 8 9 7 0 5 a b c d e e ",
"f g h i j k l m n m l o p q r s t u u ",
"v w x y z A B C D E B F G H I J K L L ",
"M N O P Q R S T U T R V F W X Y Z ` ` ",
" ...+.@.#.S $.%.&.%.$.R *.=.-.;.>.,.,.",
"'.).!.~.{.].%.^./.^.%.(._.:.<.[.}.|.|.",
"1.2.3.4.5.6.7.8.9./.0.a.b.k c.d.e.f.f.",
"g.2.h.i.j.&./.9.9.8.^.k.l.m.n.o.p.q.q.",
"r.s.t.u.T %.^./.v./.%.$.w.x.y.[.z.|.|.",
"A.B.C.D.w.$.%.0.E.0.%.S #.F.G.H.I.J.J.",
"K.L.M.N.O.w.(.P.P.Q.R.w.S.N.T.;.U.V.V.",
"W.X.Y.Z.`. +.+++@+++.+#+$+%+&+*+=+-+-+",
";+>+,+'+)+!+~+{+{+{+]+^+/+(+_+:+<+[+[+",
"}+|+1+2+3+4+5+5+6+5+7+4+8+9+0+a+b+c+c+",
"d+e+f+g+h+i+j+k+k+k+l+m+h+n+o+p+d+q+q+",
"r+r+r+r+r+r+r+r+r+r+r+r+r+r+r+r+r+r+r+",
"s+s+s+s+s+s+s+s+s+s+s+s+s+s+s+s+s+s+s+",
"t+u+v+w+x+y+z+A+A+z+B+C+D+E+F+G+H+> > ",
"I+J+K+L+M+N+O+P+P+O+N+Q+R+S+T+U+V+| | ",
"W+X+Y+Z+`+ @.@+@@@#@.@$@%@&@*@=@-@e e ",
";@>@,@'@)@!@~@{@{@{@]@^@/@(@_@:@<@u u ",
"[@}@|@1@2@3@4@5@~@5@6@7@8@9@0@a@b@L L ",
"c@d@e@f@6@g@h@i@j@i@h@g@k@l@m@n@o@` ` ",
"p@q@r@s@t@u@v@w@x@v@u@h@6@y@]@z@A@,.,.",
"B@C@D@E@F@G@w@H@H@I@w@J@K@L@M@N@O@|.|.",
"P@Q@R@S@T@U@V@W@X@H@Y@Z@`@ #.#+#@#f.f.",
"##Q@R@$#%#x@H@W@X@H@w@&#*#=#.#-#;#q.q.",
">#C@D@,#'#v@I@H@)#I@w@u@!#*#M@N@~#|.|.",
"{#]#^#/#(#u@v@_#:#x@v@h@4@<#[#}#|#J.J.",
"1#z@2#3#4#5#i@6#6#6#'#t@7#8#9#0#a#V.V.",
"b#c#d#e#f#g#h#i#i#h#j#k#l#m#/@n#T@-+-+",
"o#p#q#r#s#t#i#u#u#v#w#j#k#x#y#z#A#[+[+",
"B#C#D#E#F#G#d@d@d@d@H#I#J#K#C#L#M#c+c+",
"N#O#P#Q#R#S#T#U#U#U#V#W#X#Y#Z#`#N#q+q+",
"r+r+r+r+r+r+r+r+r+r+r+r+r+r+r+r+r+r+r+",
"s+s+s+s+s+s+s+s+s+s+s+s+s+s+s+s+s+s+s+"};
