/* XPM */
static char * closeO_xpm[] = {
"19 38 114 2",
"  	c None",
". 	c #1E75DF",
"+ 	c #2379E2",
"@ 	c #1961BA",
"# 	c #1B6CCD",
"$ 	c #1C6DCF",
"% 	c #1C6DD0",
"& 	c #1C6DD1",
"* 	c #1961B9",
"= 	c #2178E1",
"- 	c #1E74DE",
"; 	c #2077E1",
"> 	c #185FB5",
", 	c #1A68C6",
"' 	c #1B68C7",
") 	c #1B69C7",
"! 	c #1B69C9",
"~ 	c #185EB3",
"{ 	c #1D73DB",
"] 	c #1860B6",
"^ 	c #185DB2",
"/ 	c #1A67C4",
"( 	c #458EE6",
"_ 	c #3685E4",
": 	c #3886E4",
"< 	c #3987E5",
"[ 	c #448DE6",
"} 	c #1A67C3",
"| 	c #1D72D9",
"1 	c #1A65C1",
"2 	c #1E75E0",
"3 	c #1D73DC",
"4 	c #1E74DD",
"5 	c #185FB6",
"6 	c #1D70D5",
"7 	c #1A64BF",
"8 	c #2F81E3",
"9 	c #1E76E0",
"0 	c #1F77E1",
"a 	c #1A68C5",
"b 	c #1B68C6",
"c 	c #2278E1",
"d 	c #2279E2",
"e 	c #1964BE",
"f 	c #185FB4",
"g 	c #1C6ED2",
"h 	c #1963BD",
"i 	c #2D7FE3",
"j 	c #98C0F1",
"k 	c #1B69C8",
"l 	c #297DE2",
"m 	c #1963BC",
"n 	c #1C6CCE",
"o 	c #1962BC",
"p 	c #2B7EE3",
"q 	c #99C1F1",
"r 	c #1B6ACB",
"s 	c #287CE2",
"t 	c #1962BA",
"u 	c #1B6BCC",
"v 	c #185CB0",
"w 	c #2E80E3",
"x 	c #1B6AC9",
"y 	c #1D71D7",
"z 	c #175CAE",
"A 	c #247AE2",
"B 	c #1E76E1",
"C 	c #9AC2F2",
"D 	c #1C6FD4",
"E 	c #1964BF",
"F 	c #257AE2",
"G 	c #1D74DC",
"H 	c #1A65C0",
"I 	c #1D71D8",
"J 	c #1B6CCE",
"K 	c #1A66C2",
"L 	c #1C70D5",
"M 	c #1B6ACA",
"N 	c #1A66C3",
"O 	c #1962BB",
"P 	c #1D70D6",
"Q 	c #1A67C5",
"R 	c #3B87E5",
"S 	c #1C6ED1",
"T 	c #1C6CCF",
"U 	c #1D73DA",
"V 	c #1C6ED3",
"W 	c #1E75DE",
"X 	c #1B6BCB",
"Y 	c #175CAF",
"Z 	c #1C6FD3",
"` 	c #175BAD",
" .	c #1758A9",
"..	c #185DB0",
"+.	c #185EB4",
"@.	c #1759A9",
"#.	c #175AAC",
"$.	c #1657A7",
"%.	c #1658A7",
"&.	c #1759AA",
"*.	c #175AAB",
"=.	c #1658A8",
"-.	c #1657A5",
";.	c #1758A8",
">.	c #8EBAF0",
",.	c #8DB9F0",
"'.	c #1657A6",
").	c #1656A4",
"!.	c #1655A2",
"~.	c #8BB9F0",
"{.	c #8CB9F0",
"].	c #185DB1",
"^.	c #175BAE",
"/.	c #175CB0",
". + @ # $ $ % & & & % $ $ # * = . - - ",
"; * > , ' ) ! ! ! ! ) ' , , ~ * ; { { ",
"] ^ / ( _ : < < < < < : _ [ } ^ ] | | ",
"] 1 2 3 4 - . . . . . - 3 { 2 1 5 6 6 ",
"> 7 8 9 0 a b c d c b a 0 9 4 e f g g ",
"~ h i d b j j k l k j j a d 3 m ~ n n ",
"^ o p l ' j q q r q q j ' s { t ^ u u ",
"v * s w 8 x q q q q q x 8 i y * z ! ! ",
"e 5 A . B ; u C C q r 0 9 - D 5 e , , ",
"E 5 F G . r q C C C q x 4 3 6 5 e , , ",
"H * s I k q q q J q q q k I y * H ! ! ",
"K t l L k q q r { r q j ' L | * K M M ",
"N O p % g k x P P L k k g % { t K u u ",
"Q m R u # % % S S S % T # u U m Q J J ",
"} k E Q k x x r r r x ! k / e ' N S S ",
"3 b x 7 1 1 K K K K K 1 1 7 k a { V V ",
"y W k r X u u J J J u u X M k 4 y D D ",
"P P P P P P P P P P P P P P P P P P P ",
". . . . . . . . . . . . . . . . . . . ",
"{ P Y h m O O * * O O O m e Y y G - - ",
"Z `  .~ ^ ^ ..v v ..^ ^ ~ +.@.` L { { ",
"#.$.^ + y P D D D D D P I A ^ %.` | | ",
"&.Y } h O t @ @ @ @ t O h e Q Y *.6 6 ",
"%.#.n e h @.@.@ @ @ @.&.h H H #.=.g g ",
"-.;.r E @.>.,.$.* $.,.>.@.H m &.'.n n ",
").%., 1 =.,.,.,.-.,.,.,.@.N t =.).u u ",
"!.-.N N H -.,.~.~.{.,.$.1 / 5 -.!.! ! ",
"*.).e f ~ v ).~.~.~.).].+.5 +.).*., , ",
"*.).e ~ ].-.~.~.~.~.,.'.~ +.+.).*., , ",
"` -.N ].=.,.{.~.!.{.,.,.=.~ 5 -.` ! ! ",
"^.-./ v =.,.,.-.&.-.,.,.@.].* %.z M M ",
"Y =.) /.^.=.$.*.*.*.=.=.z ].O ;.v u u ",
"^ &.I /.^.` *.*.*.*.` ` z /.h &.~ J J ",
"~ ~ &.` ` #.*.&.&.*.*.` ` ` *.~ ~ S S ",
"k > ~ #.&.&.;.;.;.;.;.&.&.#.> > x V V ",
"S r 5 5 > ~ ~ ~ ~ ~ ~ > > ] 5 X S D D ",
"P P P P P P P P P P P P P P P P P P P ",
". . . . . . . . . . . . . . . . . . . "};
