/* XPM */
static char * maximizeO_xpm[] = {
"19 38 442 2",
"  	c None",
". 	c #4864AA",
"+ 	c #4F6BB2",
"@ 	c #21337C",
"# 	c #354D97",
"$ 	c #364E99",
"% 	c #374F9A",
"& 	c #37509B",
"* 	c #38509C",
"= 	c #20337B",
"- 	c #4E6AB1",
"; 	c #4863AA",
"> 	c #4661A8",
", 	c #4B68B1",
"' 	c #20327A",
") 	c #1B2D75",
"! 	c #2B4393",
"~ 	c #2C4494",
"{ 	c #2D4596",
"] 	c #2D4697",
"^ 	c #2D4698",
"/ 	c #2D4597",
"( 	c #2C4495",
"_ 	c #2C4394",
": 	c #2B4292",
"< 	c #1A2C74",
"[ 	c #1F3279",
"} 	c #4B67B0",
"| 	c #435EA7",
"1 	c #1C3078",
"2 	c #182A73",
"3 	c #274192",
"4 	c #7397D7",
"5 	c #6285CA",
"6 	c #6487CB",
"7 	c #6588CC",
"8 	c #6589CD",
"9 	c #6588CD",
"0 	c #6386CB",
"a 	c #7296D6",
"b 	c #264091",
"c 	c #182A72",
"d 	c #1C2F77",
"e 	c #3E5BA5",
"f 	c #1B307A",
"g 	c #233C90",
"h 	c #4365B1",
"i 	c #3861B3",
"j 	c #3963B5",
"k 	c #3A64B7",
"l 	c #3B65B8",
"m 	c #3B66B9",
"n 	c #3C66B9",
"o 	c #3A64B6",
"p 	c #3962B5",
"q 	c #3860B2",
"r 	c #4265B0",
"s 	c #233C8F",
"t 	c #1A3079",
"u 	c #3957A3",
"v 	c #192E7B",
"w 	c #203A90",
"x 	c #557CC8",
"y 	c #3D67BA",
"z 	c #1346B0",
"A 	c #1447B2",
"B 	c #1448B3",
"C 	c #1449B4",
"D 	c #1447B1",
"E 	c #1346AF",
"F 	c #3D67B9",
"G 	c #4062B3",
"H 	c #20398F",
"I 	c #182D7A",
"J 	c #3453A2",
"K 	c #172C79",
"L 	c #1D3890",
"M 	c #517AC8",
"N 	c #436EC1",
"O 	c #1448B2",
"P 	c #FFF7F6",
"Q 	c #FFF7F7",
"R 	c #FFF6F6",
"S 	c #426EC0",
"T 	c #3C5FB3",
"U 	c #1C378F",
"V 	c #172B78",
"W 	c #304FA0",
"X 	c #152A7B",
"Y 	c #1A3690",
"Z 	c #4B79CA",
"` 	c #4776C7",
" .	c #1449B5",
"..	c #FFF8F7",
"+.	c #FFF8F8",
"@.	c #4775C6",
"#.	c #3760B4",
"$.	c #1A358F",
"%.	c #142A7A",
"&.	c #2B4C9F",
"*.	c #112779",
"=.	c #17328F",
"-.	c #4474C9",
";.	c #4C7CCC",
">.	c #154AB6",
",.	c #164EBC",
"'.	c #1650BE",
").	c #1750BF",
"!.	c #164FBE",
"~.	c #164EBB",
"{.	c #154AB5",
"].	c #4C7ACB",
"^.	c #315CB3",
"/.	c #17328E",
"(.	c #102678",
"_.	c #26489D",
":.	c #1A3B97",
"<.	c #14308E",
"[.	c #3E70C9",
"}.	c #3A65B9",
"|.	c #154BB7",
"1.	c #416FC5",
"2.	c #4271C6",
"3.	c #4170C4",
"4.	c #164FBD",
"5.	c #2C58B3",
"6.	c #14308C",
"7.	c #1A3A95",
"8.	c #22459C",
"9.	c #1B3B97",
"0.	c #4071CA",
"a.	c #3862B6",
"b.	c #154CB8",
"c.	c #3F6DC4",
"d.	c #416FC6",
"e.	c #3F6CC3",
"f.	c #3761B5",
"g.	c #2E59B3",
"h.	c #14308D",
"i.	c #1B3A95",
"j.	c #23459C",
"k.	c #1E3D98",
"l.	c #17338F",
"m.	c #4475CA",
"n.	c #355CB2",
"o.	c #1751C0",
"p.	c #1752C1",
"q.	c #355BB1",
"r.	c #315CB4",
"s.	c #1E3D97",
"t.	c #203F9A",
"u.	c #183491",
"v.	c #4676CA",
"w.	c #3258AE",
"x.	c #FFF9F8",
"y.	c #3157AD",
"z.	c #335EB5",
"A.	c #183390",
"B.	c #203E98",
"C.	c #284A9F",
"D.	c #214099",
"E.	c #1A3591",
"F.	c #4A78C9",
"G.	c #2E52A8",
"H.	c #164DBA",
"I.	c #154CB9",
"J.	c #154BB8",
"K.	c #375FB5",
"L.	c #213F98",
"M.	c #2B4CA0",
"N.	c #234299",
"O.	c #1B3790",
"P.	c #5D8DD7",
"Q.	c #2A4DA3",
"R.	c #2C4FA5",
"S.	c #2C51A8",
"T.	c #2D52A9",
"U.	c #2E53AA",
"V.	c #2E53AB",
"W.	c #2C50A7",
"X.	c #2B4FA4",
"Y.	c #2A4DA2",
"Z.	c #375FB3",
"`.	c #1B378F",
" +	c #234298",
".+	c #2E4FA1",
"++	c #244197",
"@+	c #27469C",
"#+	c #1E3A94",
"$+	c #244397",
"%+	c #28479E",
"&+	c #2948A0",
"*+	c #2949A1",
"=+	c #2A4AA2",
"-+	c #2949A0",
";+	c #28489F",
">+	c #28469D",
",+	c #244296",
"'+	c #1E3993",
")+	c #27459B",
"!+	c #234196",
"~+	c #3151A3",
"{+	c #3D60B2",
"]+	c #284499",
"^+	c #2A489D",
"/+	c #213B94",
"(+	c #223C96",
"_+	c #223D97",
":+	c #233E99",
"<+	c #233F9A",
"[+	c #223E98",
"}+	c #213C95",
"|+	c #213B93",
"1+	c #29479C",
"2+	c #274398",
"3+	c #3D5FB1",
"4+	c #3453A4",
"5+	c #3A5AA9",
"6+	c #4163B3",
"7+	c #294699",
"8+	c #2C4A9D",
"9+	c #2D4B9F",
"0+	c #2E4CA1",
"a+	c #2E4DA2",
"b+	c #2E4EA2",
"c+	c #2E4DA1",
"d+	c #2D4CA0",
"e+	c #2C499D",
"f+	c #284699",
"g+	c #4062B2",
"h+	c #3756A5",
"i+	c #3A58A7",
"j+	c #4764AC",
"k+	c #445EA5",
"l+	c #3E589F",
"m+	c #172563",
"n+	c #25377B",
"o+	c #243679",
"p+	c #233578",
"q+	c #223477",
"r+	c #223376",
"s+	c #233478",
"t+	c #233579",
"u+	c #24367A",
"v+	c #25387C",
"w+	c #172664",
"x+	c #3F59A0",
"y+	c #445FA6",
"z+	c #3B549E",
"A+	c #162360",
"B+	c #111D57",
"C+	c #1B2B6F",
"D+	c #1A2A6E",
"E+	c #19296C",
"F+	c #18286B",
"G+	c #18286A",
"H+	c #19296D",
"I+	c #1A2B6F",
"J+	c #1B2C71",
"K+	c #111E59",
"L+	c #162462",
"M+	c #3C569F",
"N+	c #13225E",
"O+	c #0F1B55",
"P+	c #17296D",
"Q+	c #4B6DBB",
"R+	c #3B59A6",
"S+	c #3A57A5",
"T+	c #3956A4",
"U+	c #3955A3",
"V+	c #3855A3",
"W+	c #3956A3",
"X+	c #3B58A5",
"Y+	c #3C5AA7",
"Z+	c #4D6EBC",
"`+	c #182A6E",
" @	c #101C57",
".@	c #142360",
"+@	c #11205C",
"@@	c #15256B",
"#@	c #274089",
"$@	c #1E3987",
"%@	c #1C3785",
"&@	c #1B3583",
"*@	c #1A3482",
"=@	c #1A3481",
"-@	c #1B3582",
";@	c #1C3684",
">@	c #1D3886",
",@	c #1E3A88",
"'@	c #28428B",
")@	c #15266C",
"!@	c #11215E",
"~@	c #0F1C59",
"{@	c #112266",
"]@	c #314FA1",
"^@	c #1E3A8A",
"/@	c #082178",
"(@	c #072076",
"_@	c #071F74",
":@	c #071E73",
"<@	c #071E74",
"[@	c #071F75",
"}@	c #072177",
"|@	c #082279",
"1@	c #1F3C8B",
"2@	c #243C89",
"3@	c #122268",
"4@	c #0F1D5B",
"5@	c #0D1A55",
"6@	c #0F1E62",
"7@	c #2B4A9D",
"8@	c #1F3B8D",
"9@	c #FFE7E5",
"0@	c #FFE6E5",
"a@	c #FFE6E4",
"b@	c #072077",
"c@	c #203D8E",
"d@	c #1F3785",
"e@	c #0F1F64",
"f@	c #0D1B56",
"g@	c #0B1753",
"h@	c #0D1C60",
"i@	c #25459C",
"j@	c #203E91",
"k@	c #FFE5E4",
"l@	c #FFE5E3",
"m@	c #214092",
"n@	c #0D1D62",
"o@	c #0B1855",
"p@	c #09154F",
"q@	c #0A195D",
"r@	c #204098",
"s@	c #214095",
"t@	c #061D71",
"u@	c #05186B",
"v@	c #041768",
"w@	c #05186A",
"x@	c #05196C",
"y@	c #224297",
"z@	c #17307F",
"A@	c #0B1A5F",
"B@	c #091651",
"C@	c #0D216A",
"D@	c #09175A",
"E@	c #1C3B96",
"F@	c #172E79",
"G@	c #061C70",
"H@	c #051769",
"I@	c #0F226B",
"J@	c #0F216A",
"K@	c #10246D",
"L@	c #061D72",
"M@	c #18307B",
"N@	c #142E7D",
"O@	c #09185D",
"P@	c #0E226C",
"Q@	c #0E216A",
"R@	c #152C75",
"S@	c #0E2067",
"T@	c #0D1F65",
"U@	c #0F2269",
"V@	c #162E77",
"W@	c #09185C",
"X@	c #0F226C",
"Y@	c #10236C",
"Z@	c #142A72",
"`@	c #041667",
" #	c #071E72",
".#	c #152B74",
"+#	c #10246E",
"@#	c #11256F",
"##	c #0B1A60",
"$#	c #22429C",
"%#	c #142870",
"&#	c #071D72",
"*#	c #152972",
"=#	c #193382",
"-#	c #0C1B61",
";#	c #122671",
">#	c #132671",
",#	c #26469D",
"'#	c #13286E",
")#	c #061B6F",
"!#	c #061B6E",
"~#	c #142970",
"{#	c #1C3685",
"]#	c #0E1E64",
"^#	c #132773",
"/#	c #152A74",
"(#	c #0E1F65",
"_#	c #355CB5",
":#	c #13276C",
"<#	c #122569",
"[#	c #112367",
"}#	c #102265",
"|#	c #102164",
"1#	c #112366",
"2#	c #122468",
"3#	c #13266B",
"4#	c #14286D",
"5#	c #0F2067",
"6#	c #152B76",
"7#	c #162B76",
"8#	c #172B75",
"9#	c #102067",
"0#	c #122366",
"a#	c #122367",
"b#	c #112265",
"c#	c #102063",
"d#	c #102163",
"e#	c #112164",
"f#	c #122467",
"g#	c #102169",
"h#	c #172C77",
"i#	c #172C78",
"j#	c #2B4797",
"k#	c #192D77",
"l#	c #182C76",
"m#	c #112168",
"n#	c #102065",
"o#	c #101F64",
"p#	c #0F1E63",
"q#	c #101F65",
"r#	c #112066",
"s#	c #112269",
"t#	c #192D78",
"u#	c #2C4899",
"v#	c #3452A1",
"w#	c #2E4A98",
"x#	c #192F78",
"y#	c #1A2F78",
"z#	c #192D76",
"A#	c #192C75",
"B#	c #182B74",
"C#	c #182B73",
"D#	c #182C74",
"E#	c #192D75",
"F#	c #1A2E77",
"G#	c #1B3079",
"H#	c #1A2F79",
"I#	c #2F4B9A",
". + @ # $ % & * * * & % $ # = - ; > > ",
", ' ) ! ~ { ] ] ^ ] / ( _ : < [ } | | ",
"1 2 3 4 5 6 7 8 8 9 7 0 5 a b c d e e ",
"f g h i j k l m n m l o p q r s t u u ",
"v w x y z A B C C C B D E F G H I J J ",
"K L M N O P Q Q Q Q P R D S T U V W W ",
"X Y Z `  .Q ..+.+.+...P C @.#.$.%.&.&.",
"*.=.-.;.>...,.'.).!.~.Q {.].^./.(._._.",
":.<.[.}.|.+.'.1.2.3.4...>.k 5.6.7.8.8.",
"9.<.0.a.b.+.).c.d.e.4...|.f.g.h.i.j.j.",
"k.l.m.n.|.+.!.o.p.).4...>.q.r./.s._._.",
"t.u.v.w.>...+.x.x.+.+.Q  .y.z.A.B.C.C.",
"D.E.F.G.C >.b.H.H.I.J.>.B G.K.$.L.M.M.",
"N.O.P.Q.R.S.T.U.V.U.T.W.X.Y.Z.`. +.+.+",
"++@+#+$+%+&+*+=+=+=+-+;+>+,+'+)+!+~+~+",
"{+]+^+/+(+_+:+:+<+:+[+_+}+|+1+2+3+4+4+",
"5+6+7+8+9+0+a+b+b+b+c+d+9+e+f+g+5+h+h+",
"i+i+i+i+i+i+i+i+i+i+i+i+i+i+i+i+i+i+i+",
"j+j+j+j+j+j+j+j+j+j+j+j+j+j+j+j+j+j+j+",
"k+l+m+n+o+p+q+r+r+q+s+t+u+v+w+x+y+> > ",
"z+A+B+C+D+E+F+G+G+F+E+H+I+J+K+L+M+| | ",
"N+O+P+Q+R+S+T+U+V+W+T+X+Y+Z+`+ @.@e e ",
"+@@@#@$@%@&@*@=@=@=@-@;@>@,@'@)@!@u u ",
"~@{@]@^@/@(@_@:@:@<@[@}@|@1@2@3@4@J J ",
"5@6@7@8@[@9@0@a@a@a@0@9@b@c@d@e@f@W W ",
"g@h@i@j@:@a@k@l@l@k@a@0@[@m@-@n@o@&.&.",
"p@q@r@s@t@k@u@v@v@w@x@a@:@y@z@A@B@_._.",
"C@D@E@F@G@l@H@I@J@K@w@a@L@M@N@O@P@8.8.",
"Q@D@E@R@G@l@v@S@T@U@w@k@L@V@N@W@X@j.j.",
"Y@q@r@Z@t@k@w@`@`@H@x@a@ #.#z@A@+#_._.",
"@###$#%#&#a@k@l@l@l@k@0@_@*#=#-#;#C.C.",
">#n@,#'#_@L@G@)#!#)#t@:@(@~#{#]#^#M.M.",
"/#(#_#:#<#[#}#|#|#}#1#2#3#4#>@5#6#.+.+",
"7#8#9#0#a#b#|#c#c#d#e#1#2#f#g#h#i#~+~+",
"j#k#l#m#n#o#6@6@6@6@p#q#r#s#k#t#u#4+4+",
"v#w#x#y#z#A#B#C#C#C#D#E#F#G#H#I#v#h+h+",
"i+i+i+i+i+i+i+i+i+i+i+i+i+i+i+i+i+i+i+",
"j+j+j+j+j+j+j+j+j+j+j+j+j+j+j+j+j+j+j+"};
