/* XPM */
static char * maximizeA_xpm[] = {
"19 38 92 2",
"  	c None",
". 	c #4661A8",
"+ 	c #1C2C6F",
"@ 	c #2D4289",
"# 	c #435EA7",
"$ 	c #1B2B6D",
"% 	c #162566",
"& 	c #233781",
"* 	c #18296B",
"= 	c #142364",
"- 	c #1F357F",
"; 	c #5F82C9",
"> 	c #4F6FB8",
", 	c #3E5BA5",
"' 	c #16286B",
") 	c #1C317D",
"! 	c #35539D",
"~ 	c #2B4D9D",
"{ 	c #3957A3",
"] 	c #14256A",
"^ 	c #192E7B",
"/ 	c #4366B5",
"( 	c #2E51A2",
"_ 	c #0E3494",
": 	c #324F9E",
"< 	c #3453A2",
"[ 	c #122367",
"} 	c #162B79",
"| 	c #3E62B3",
"1 	c #3155A7",
"2 	c #FFEFEE",
"3 	c #2E4B9C",
"4 	c #304FA0",
"5 	c #102167",
"6 	c #142978",
"7 	c #385FB3",
"8 	c #345AAC",
"9 	c #294A9B",
"0 	c #2B4C9F",
"a 	c #0D1E64",
"b 	c #112676",
"c 	c #325AB1",
"d 	c #375EB1",
"e 	c #244699",
"f 	c #26489D",
"g 	c #142E80",
"h 	c #0F2474",
"i 	c #2D56B0",
"j 	c #294A99",
"k 	c #294999",
"l 	c #204398",
"m 	c #22459C",
"n 	c #152E80",
"o 	c #2E56B0",
"p 	c #274796",
"q 	c #214398",
"r 	c #23459C",
"s 	c #173082",
"t 	c #254392",
"u 	c #193284",
"v 	c #122778",
"w 	c #345CB3",
"x 	c #23408F",
"y 	c #26489B",
"z 	c #284A9F",
"A 	c #1A3385",
"B 	c #142979",
"C 	c #213D8B",
"D 	c #294A9C",
"E 	c #2B4CA0",
"F 	c #1C3686",
"G 	c #152B7A",
"H 	c #4974C6",
"I 	c #1F3A87",
"J 	c #2A4B9C",
"K 	c #2E4FA1",
"L 	c #1D3686",
"M 	c #1F3888",
"N 	c #172D7D",
"O 	c #1B337E",
"P 	c #1D3582",
"Q 	c #3151A3",
"R 	c #3453A4",
"S 	c #203887",
"T 	c #213A89",
"U 	c #192E7D",
"V 	c #3756A5",
"W 	c #213A88",
"X 	c #233C8A",
"Y 	c #3A58A7",
"Z 	c #4764AC",
"` 	c #000000",
". . + @ @ @ @ @ @ @ @ @ @ @ + . . . . ",
"# $ % & & & & & & & & & & & % $ # # # ",
"* = - ; > > > > > > > > > ; - = * , , ",
"' ) ! ~ ~ ~ ~ ~ ~ ~ ~ ~ ~ ~ ! ) ' { { ",
"] ^ / ( _ _ _ _ _ _ _ _ _ ( : ^ ] < < ",
"[ } | 1 _ 2 2 2 2 2 2 2 _ 1 3 } [ 4 4 ",
"5 6 7 8 _ 2 2 2 2 2 2 2 _ 8 9 6 5 0 0 ",
"a b c d _ 2 _ _ _ _ _ 2 _ d e b a f f ",
"g h i j _ 2 _ k j j _ 2 _ j l h g m m ",
"n h o p _ 2 _ p p p _ 2 _ p q h n r r ",
"s b c t _ 2 _ _ _ _ _ 2 _ t e b s f f ",
"u v w x _ 2 2 2 2 2 2 2 _ x y v u z z ",
"A B 7 C _ _ _ _ _ _ _ _ _ C D B A E E ",
"F G H I I I I I I I I I I I J G F K K ",
"L M N O P P P P P P P P P O N M L Q Q ",
"R S T U U U U U U U U U U U T S R R R ",
"V V W X X X X X X X X X X X W V V V V ",
"Y Y Y Y Y Y Y Y Y Y Y Y Y Y Y Y Y Y Y ",
"Z Z Z Z Z Z Z Z Z Z Z Z Z Z Z Z Z Z Z ",
"` ` ` ` ` ` ` ` ` ` ` ` ` ` ` ` ` ` ` ",
"` ` ` ` ` ` ` ` ` ` ` ` ` ` ` ` ` ` ` ",
"` ` ` ` ` ` ` ` ` ` ` ` ` ` ` ` ` ` ` ",
"` ` ` ` ` ` ` ` ` ` ` ` ` ` ` ` ` ` ` ",
"` ` ` ` ` ` ` ` ` ` ` ` ` ` ` ` ` ` ` ",
"` ` ` ` ` ` ` ` ` ` ` ` ` ` ` ` ` ` ` ",
"` ` ` ` ` ` ` ` ` ` ` ` ` ` ` ` ` ` ` ",
"` ` ` ` ` ` ` ` ` ` ` ` ` ` ` ` ` ` ` ",
"` ` ` ` ` ` ` ` ` ` ` ` ` ` ` ` ` ` ` ",
"` ` ` ` ` ` ` ` ` ` ` ` ` ` ` ` ` ` ` ",
"` ` ` ` ` ` ` ` ` ` ` ` ` ` ` ` ` ` ` ",
"` ` ` ` ` ` ` ` ` ` ` ` ` ` ` ` ` ` ` ",
"` ` ` ` ` ` ` ` ` ` ` ` ` ` ` ` ` ` ` ",
"` ` ` ` ` ` ` ` ` ` ` ` ` ` ` ` ` ` ` ",
"` ` ` ` ` ` ` ` ` ` ` ` ` ` ` ` ` ` ` ",
"` ` ` ` ` ` ` ` ` ` ` ` ` ` ` ` ` ` ` ",
"` ` ` ` ` ` ` ` ` ` ` ` ` ` ` ` ` ` ` ",
"` ` ` ` ` ` ` ` ` ` ` ` ` ` ` ` ` ` ` ",
"` ` ` ` ` ` ` ` ` ` ` ` ` ` ` ` ` ` ` "};
