/* XPM */
static char * minimizeO_xpm[] = {
"19 38 501 2",
"  	c None",
". 	c #4864AA",
"+ 	c #4F6BB2",
"@ 	c #21337C",
"# 	c #354D97",
"$ 	c #364E99",
"% 	c #374F9A",
"& 	c #37509B",
"* 	c #38509C",
"= 	c #20337B",
"- 	c #4E6AB1",
"; 	c #4863AA",
"> 	c #4661A8",
", 	c #4B68B1",
"' 	c #20327A",
") 	c #1B2D75",
"! 	c #2B4393",
"~ 	c #2C4494",
"{ 	c #2D4596",
"] 	c #2D4697",
"^ 	c #2D4698",
"/ 	c #2D4597",
"( 	c #2C4495",
"_ 	c #2C4394",
": 	c #2B4292",
"< 	c #1A2C74",
"[ 	c #1F3279",
"} 	c #4B67B0",
"| 	c #435EA7",
"1 	c #1C3078",
"2 	c #182A73",
"3 	c #274192",
"4 	c #7397D7",
"5 	c #6285CA",
"6 	c #6487CB",
"7 	c #6588CC",
"8 	c #6589CD",
"9 	c #6588CD",
"0 	c #6386CB",
"a 	c #7296D6",
"b 	c #264091",
"c 	c #182A72",
"d 	c #1C2F77",
"e 	c #3E5BA5",
"f 	c #1B307A",
"g 	c #233C90",
"h 	c #4365B1",
"i 	c #3861B3",
"j 	c #3963B5",
"k 	c #3A64B7",
"l 	c #3B65B8",
"m 	c #3B66B9",
"n 	c #3C66B9",
"o 	c #3A64B6",
"p 	c #3962B5",
"q 	c #3860B2",
"r 	c #4265B0",
"s 	c #233C8F",
"t 	c #1A3079",
"u 	c #3957A3",
"v 	c #192E7B",
"w 	c #203A90",
"x 	c #557CC8",
"y 	c #3D67BA",
"z 	c #3F6ABC",
"A 	c #406BBE",
"B 	c #416DC0",
"C 	c #416DC1",
"D 	c #426EC1",
"E 	c #416CBF",
"F 	c #3E69BC",
"G 	c #3D67B9",
"H 	c #4062B3",
"I 	c #20398F",
"J 	c #182D7A",
"K 	c #3453A2",
"L 	c #172C79",
"M 	c #1D3890",
"N 	c #517AC8",
"O 	c #436EC1",
"P 	c #4471C3",
"Q 	c #4673C6",
"R 	c #4775C7",
"S 	c #4876C8",
"T 	c #4876C9",
"U 	c #4875C8",
"V 	c #4774C7",
"W 	c #4572C5",
"X 	c #4470C2",
"Y 	c #426EC0",
"Z 	c #3C5FB3",
"` 	c #1C378F",
" .	c #172B78",
"..	c #304FA0",
"+.	c #152A7B",
"@.	c #1A3690",
"#.	c #4B79CA",
"$.	c #4776C7",
"%.	c #4978C9",
"&.	c #4B7BCC",
"*.	c #4D7DCE",
"=.	c #4E7ECF",
"-.	c #4E7FD0",
";.	c #4D7ECF",
">.	c #4C7CCD",
",.	c #4A7ACB",
"'.	c #4978C8",
").	c #4775C6",
"!.	c #3760B4",
"~.	c #1A358F",
"{.	c #142A7A",
"].	c #2B4C9F",
"^.	c #112779",
"/.	c #17328F",
"(.	c #4474C9",
"_.	c #4C7CCC",
":.	c #4F7FCF",
"<.	c #5182D2",
"[.	c #5384D4",
"}.	c #5486D6",
"|.	c #5587D6",
"1.	c #5486D5",
"2.	c #5283D3",
"3.	c #5080D0",
"4.	c #4E7ECE",
"5.	c #4C7ACB",
"6.	c #315CB3",
"7.	c #17328E",
"8.	c #102678",
"9.	c #26489D",
"0.	c #1A3B97",
"a.	c #14308E",
"b.	c #3E70C9",
"c.	c #3A65B9",
"d.	c #3C67BC",
"e.	c #3E6BBF",
"f.	c #406EC2",
"g.	c #416FC5",
"h.	c #4271C6",
"i.	c #4170C4",
"j.	c #3F6DC1",
"k.	c #3D6ABE",
"l.	c #3B67BA",
"m.	c #2C58B3",
"n.	c #14308C",
"o.	c #1A3A95",
"p.	c #22459C",
"q.	c #1B3B97",
"r.	c #4071CA",
"s.	c #3862B6",
"t.	c #154CB8",
"u.	c #164EBB",
"v.	c #1750BF",
"w.	c #1752C2",
"x.	c #1854C4",
"y.	c #1752C1",
"z.	c #164FBD",
"A.	c #164DBA",
"B.	c #154BB7",
"C.	c #3761B5",
"D.	c #2E59B3",
"E.	c #14308D",
"F.	c #1B3A95",
"G.	c #23459C",
"H.	c #1E3D98",
"I.	c #17338F",
"J.	c #4475CA",
"K.	c #355CB2",
"L.	c #FFF8F8",
"M.	c #FFF9F8",
"N.	c #FFF9F9",
"O.	c #FFFAF9",
"P.	c #FFF8F7",
"Q.	c #154AB6",
"R.	c #355BB1",
"S.	c #315CB4",
"T.	c #1E3D97",
"U.	c #203F9A",
"V.	c #183491",
"W.	c #4676CA",
"X.	c #3258AE",
"Y.	c #FFF7F7",
"Z.	c #1449B5",
"`.	c #3157AD",
" +	c #335EB5",
".+	c #183390",
"++	c #203E98",
"@+	c #284A9F",
"#+	c #214099",
"$+	c #1A3591",
"%+	c #4A78C9",
"&+	c #2E52A8",
"*+	c #1449B4",
"=+	c #154CB9",
"-+	c #154BB8",
";+	c #1448B3",
">+	c #375FB5",
",+	c #213F98",
"'+	c #2B4CA0",
")+	c #234299",
"!+	c #1B3790",
"~+	c #5D8DD7",
"{+	c #2A4DA3",
"]+	c #2C4FA5",
"^+	c #2C51A8",
"/+	c #2D52A9",
"(+	c #2E53AA",
"_+	c #2E53AB",
":+	c #2C50A7",
"<+	c #2B4FA4",
"[+	c #2A4DA2",
"}+	c #375FB3",
"|+	c #1B378F",
"1+	c #234298",
"2+	c #2E4FA1",
"3+	c #244197",
"4+	c #27469C",
"5+	c #1E3A94",
"6+	c #244397",
"7+	c #28479E",
"8+	c #2948A0",
"9+	c #2949A1",
"0+	c #2A4AA2",
"a+	c #2949A0",
"b+	c #28489F",
"c+	c #28469D",
"d+	c #244296",
"e+	c #1E3993",
"f+	c #27459B",
"g+	c #234196",
"h+	c #3151A3",
"i+	c #3D60B2",
"j+	c #284499",
"k+	c #2A489D",
"l+	c #213B94",
"m+	c #223C96",
"n+	c #223D97",
"o+	c #233E99",
"p+	c #233F9A",
"q+	c #223E98",
"r+	c #213C95",
"s+	c #213B93",
"t+	c #29479C",
"u+	c #274398",
"v+	c #3D5FB1",
"w+	c #3453A4",
"x+	c #3A5AA9",
"y+	c #4163B3",
"z+	c #294699",
"A+	c #2C4A9D",
"B+	c #2D4B9F",
"C+	c #2E4CA1",
"D+	c #2E4DA2",
"E+	c #2E4EA2",
"F+	c #2E4DA1",
"G+	c #2D4CA0",
"H+	c #2C499D",
"I+	c #284699",
"J+	c #4062B2",
"K+	c #3756A5",
"L+	c #3A58A7",
"M+	c #4764AC",
"N+	c #445EA5",
"O+	c #3E589F",
"P+	c #172563",
"Q+	c #25377B",
"R+	c #243679",
"S+	c #233578",
"T+	c #223477",
"U+	c #223376",
"V+	c #233478",
"W+	c #233579",
"X+	c #24367A",
"Y+	c #25387C",
"Z+	c #172664",
"`+	c #3F59A0",
" @	c #445FA6",
".@	c #3B549E",
"+@	c #162360",
"@@	c #111D57",
"#@	c #1B2B6F",
"$@	c #1A2A6E",
"%@	c #19296C",
"&@	c #18286B",
"*@	c #18286A",
"=@	c #19296D",
"-@	c #1A2B6F",
";@	c #1B2C71",
">@	c #111E59",
",@	c #162462",
"'@	c #3C569F",
")@	c #13225E",
"!@	c #0F1B55",
"~@	c #17296D",
"{@	c #4B6DBB",
"]@	c #3B59A6",
"^@	c #3A57A5",
"/@	c #3956A4",
"(@	c #3955A3",
"_@	c #3855A3",
":@	c #3956A3",
"<@	c #3B58A5",
"[@	c #3C5AA7",
"}@	c #4D6EBC",
"|@	c #182A6E",
"1@	c #101C57",
"2@	c #142360",
"3@	c #11205C",
"4@	c #15256B",
"5@	c #274089",
"6@	c #1E3987",
"7@	c #1C3785",
"8@	c #1B3583",
"9@	c #1A3482",
"0@	c #1A3481",
"a@	c #1B3582",
"b@	c #1C3684",
"c@	c #1D3886",
"d@	c #1E3A88",
"e@	c #28428B",
"f@	c #15266C",
"g@	c #11215E",
"h@	c #0F1C59",
"i@	c #112266",
"j@	c #314FA1",
"k@	c #1E3A8A",
"l@	c #1D3887",
"m@	c #1B3685",
"n@	c #1A3584",
"o@	c #1A3483",
"p@	c #1B3584",
"q@	c #1C3786",
"r@	c #1D3989",
"s@	c #1F3C8B",
"t@	c #243C89",
"u@	c #122268",
"v@	c #0F1D5B",
"w@	c #0D1A55",
"x@	c #0F1E62",
"y@	c #2B4A9D",
"z@	c #1F3B8D",
"A@	c #1D398A",
"B@	c #1B3688",
"C@	c #1A3586",
"D@	c #193385",
"E@	c #1A3486",
"F@	c #1B3587",
"G@	c #1C3789",
"H@	c #1E3A8B",
"I@	c #203D8E",
"J@	c #1F3785",
"K@	c #0F1F64",
"L@	c #0D1B56",
"M@	c #0B1753",
"N@	c #0D1C60",
"O@	c #25459C",
"P@	c #203E91",
"Q@	c #1E3B8E",
"R@	c #1C388B",
"S@	c #1A3689",
"T@	c #193488",
"U@	c #193487",
"V@	c #1A3589",
"W@	c #1B378A",
"X@	c #1D398D",
"Y@	c #1F3D90",
"Z@	c #214092",
"`@	c #0D1D62",
" #	c #0B1855",
".#	c #09154F",
"+#	c #0A195D",
"@#	c #204098",
"##	c #214095",
"$#	c #1F3D92",
"%#	c #1C398F",
"&#	c #1A378D",
"*#	c #19358B",
"=#	c #18348B",
"-#	c #19368C",
";#	c #1B388E",
">#	c #1D3B91",
",#	c #203E94",
"'#	c #224297",
")#	c #17307F",
"!#	c #0B1A5F",
"~#	c #091651",
"{#	c #0D216A",
"]#	c #09175A",
"^#	c #1C3B96",
"/#	c #172E79",
"(#	c #152B76",
"_#	c #132872",
":#	c #11256E",
"<#	c #0F226B",
"[#	c #0F216A",
"}#	c #10246D",
"|#	c #122670",
"1#	c #142A74",
"2#	c #162D77",
"3#	c #18307B",
"4#	c #142E7D",
"5#	c #09185D",
"6#	c #0E226C",
"7#	c #0E216A",
"8#	c #152C75",
"9#	c #061C70",
"0#	c #05196C",
"a#	c #041768",
"b#	c #041565",
"c#	c #031463",
"d#	c #041667",
"e#	c #05186A",
"f#	c #061B6E",
"g#	c #061D72",
"h#	c #162E77",
"i#	c #09185C",
"j#	c #0F226C",
"k#	c #10236C",
"l#	c #142A72",
"m#	c #061D71",
"n#	c #FFE5E4",
"o#	c #FFE4E3",
"p#	c #FFE4E2",
"q#	c #FFE5E3",
"r#	c #FFE6E4",
"s#	c #071E72",
"t#	c #152B74",
"u#	c #10246E",
"v#	c #11256F",
"w#	c #0B1A60",
"x#	c #22429C",
"y#	c #142870",
"z#	c #071D72",
"A#	c #FFE6E5",
"B#	c #071F74",
"C#	c #152972",
"D#	c #193382",
"E#	c #0C1B61",
"F#	c #122671",
"G#	c #132671",
"H#	c #26469D",
"I#	c #13286E",
"J#	c #061B6F",
"K#	c #071E73",
"L#	c #072076",
"M#	c #142970",
"N#	c #1C3685",
"O#	c #0E1E64",
"P#	c #132773",
"Q#	c #152A74",
"R#	c #0E1F65",
"S#	c #355CB5",
"T#	c #13276C",
"U#	c #122569",
"V#	c #112367",
"W#	c #102265",
"X#	c #102164",
"Y#	c #112366",
"Z#	c #122468",
"`#	c #13266B",
" $	c #14286D",
".$	c #0F2067",
"+$	c #162B76",
"@$	c #172B75",
"#$	c #102067",
"$$	c #122366",
"%$	c #122367",
"&$	c #112265",
"*$	c #102063",
"=$	c #102163",
"-$	c #112164",
";$	c #122467",
">$	c #102169",
",$	c #172C77",
"'$	c #172C78",
")$	c #2B4797",
"!$	c #192D77",
"~$	c #182C76",
"{$	c #112168",
"]$	c #102065",
"^$	c #101F64",
"/$	c #0F1E63",
"($	c #101F65",
"_$	c #112066",
":$	c #112269",
"<$	c #192D78",
"[$	c #2C4899",
"}$	c #3452A1",
"|$	c #2E4A98",
"1$	c #192F78",
"2$	c #1A2F78",
"3$	c #192D76",
"4$	c #192C75",
"5$	c #182B74",
"6$	c #182B73",
"7$	c #182C74",
"8$	c #192D75",
"9$	c #1A2E77",
"0$	c #1B3079",
"a$	c #1A2F79",
"b$	c #2F4B9A",
". + @ # $ % & * * * & % $ # = - ; > > ",
", ' ) ! ~ { ] ] ^ ] / ( _ : < [ } | | ",
"1 2 3 4 5 6 7 8 8 9 7 0 5 a b c d e e ",
"f g h i j k l m n m l o p q r s t u u ",
"v w x y z A B C D B E A F G H I J K K ",
"L M N O P Q R S T U V W X Y Z `  .....",
"+.@.#.$.%.&.*.=.-.;.>.,.'.).!.~.{.].].",
"^./.(._.:.<.[.}.|.1.2.3.4.5.6.7.8.9.9.",
"0.a.b.c.d.e.f.g.h.i.j.k.l.k m.n.o.p.p.",
"q.a.r.s.t.u.v.w.x.y.z.A.B.C.D.E.F.G.G.",
"H.I.J.K.B.L.M.N.O.N.L.P.Q.R.S.7.T.9.9.",
"U.V.W.X.Q.P.L.M.M.L.L.Y.Z.`. +.+++@+@+",
"#+$+%+&+*+Q.t.A.A.=+-+Q.;+&+>+~.,+'+'+",
")+!+~+{+]+^+/+(+_+(+/+:+<+[+}+|+1+2+2+",
"3+4+5+6+7+8+9+0+0+0+a+b+c+d+e+f+g+h+h+",
"i+j+k+l+m+n+o+o+p+o+q+n+r+s+t+u+v+w+w+",
"x+y+z+A+B+C+D+E+E+E+F+G+B+H+I+J+x+K+K+",
"L+L+L+L+L+L+L+L+L+L+L+L+L+L+L+L+L+L+L+",
"M+M+M+M+M+M+M+M+M+M+M+M+M+M+M+M+M+M+M+",
"N+O+P+Q+R+S+T+U+U+T+V+W+X+Y+Z+`+ @> > ",
".@+@@@#@$@%@&@*@*@&@%@=@-@;@>@,@'@| | ",
")@!@~@{@]@^@/@(@_@:@/@<@[@}@|@1@2@e e ",
"3@4@5@6@7@8@9@0@0@0@a@b@c@d@e@f@g@u u ",
"h@i@j@k@l@m@n@o@9@o@p@q@r@s@t@u@v@K K ",
"w@x@y@z@A@B@C@D@D@E@F@G@H@I@J@K@L@....",
"M@N@O@P@Q@R@S@T@U@V@W@X@Y@Z@a@`@ #].].",
".#+#@###$#%#&#*#=#-#;#>#,#'#)#!#~#9.9.",
"{#]#^#/#(#_#:#<#[#}#|#1#2#3#4#5#6#p.p.",
"7#]#^#8#9#0#a#b#c#d#e#f#g#h#4#i#j#G.G.",
"k#+#@#l#m#n#o#p#p#o#q#r#s#t#)#!#u#9.9.",
"v#w#x#y#z#r#n#q#q#q#n#A#B#C#D#E#F#@+@+",
"G#`@H#I#B#g#9#J#f#J#m#K#L#M#N#O#P#'+'+",
"Q#R#S#T#U#V#W#X#X#W#Y#Z#`# $c@.$(#2+2+",
"+$@$#$$$%$&$X#*$*$=$-$Y#Z#;$>$,$'$h+h+",
")$!$~${$]$^$x@x@x@x@/$($_$:$!$<$[$w+w+",
"}$|$1$2$3$4$5$6$6$6$7$8$9$0$a$b$}$K+K+",
"L+L+L+L+L+L+L+L+L+L+L+L+L+L+L+L+L+L+L+",
"M+M+M+M+M+M+M+M+M+M+M+M+M+M+M+M+M+M+M+"};
