/* XPM */
static char * minimizeA_xpm[] = {
"19 38 92 2",
"  	c None",
". 	c #4661A8",
"+ 	c #1C2C6F",
"@ 	c #2D4289",
"# 	c #435EA7",
"$ 	c #1B2B6D",
"% 	c #162566",
"& 	c #233781",
"* 	c #18296B",
"= 	c #142364",
"- 	c #1F357F",
"; 	c #5F82C9",
"> 	c #4F6FB8",
", 	c #3E5BA5",
"' 	c #16286B",
") 	c #1C317D",
"! 	c #35539D",
"~ 	c #2B4D9D",
"{ 	c #3957A3",
"] 	c #14256A",
"^ 	c #192E7B",
"/ 	c #4366B5",
"( 	c #2E51A2",
"_ 	c #324F9E",
": 	c #3453A2",
"< 	c #122367",
"[ 	c #162B79",
"} 	c #3E62B3",
"| 	c #3155A7",
"1 	c #2E4B9C",
"2 	c #304FA0",
"3 	c #102167",
"4 	c #142978",
"5 	c #385FB3",
"6 	c #345AAC",
"7 	c #294A9B",
"8 	c #2B4C9F",
"9 	c #0D1E64",
"0 	c #112676",
"a 	c #325AB1",
"b 	c #375EB1",
"c 	c #244699",
"d 	c #26489D",
"e 	c #142E80",
"f 	c #0F2474",
"g 	c #2D56B0",
"h 	c #294A99",
"i 	c #294999",
"j 	c #204398",
"k 	c #22459C",
"l 	c #152E80",
"m 	c #2E56B0",
"n 	c #274796",
"o 	c #0E3494",
"p 	c #214398",
"q 	c #23459C",
"r 	c #173082",
"s 	c #254392",
"t 	c #FFEFEE",
"u 	c #193284",
"v 	c #122778",
"w 	c #345CB3",
"x 	c #23408F",
"y 	c #26489B",
"z 	c #284A9F",
"A 	c #1A3385",
"B 	c #142979",
"C 	c #213D8B",
"D 	c #294A9C",
"E 	c #2B4CA0",
"F 	c #1C3686",
"G 	c #152B7A",
"H 	c #4974C6",
"I 	c #1F3A87",
"J 	c #2A4B9C",
"K 	c #2E4FA1",
"L 	c #1D3686",
"M 	c #1F3888",
"N 	c #172D7D",
"O 	c #1B337E",
"P 	c #1D3582",
"Q 	c #3151A3",
"R 	c #3453A4",
"S 	c #203887",
"T 	c #213A89",
"U 	c #192E7D",
"V 	c #3756A5",
"W 	c #213A88",
"X 	c #233C8A",
"Y 	c #3A58A7",
"Z 	c #4764AC",
"` 	c #000000",
". . + @ @ @ @ @ @ @ @ @ @ @ + . . . . ",
"# $ % & & & & & & & & & & & % $ # # # ",
"* = - ; > > > > > > > > > ; - = * , , ",
"' ) ! ~ ~ ~ ~ ~ ~ ~ ~ ~ ~ ~ ! ) ' { { ",
"] ^ / ( ( ( ( ( ( ( ( ( ( ( _ ^ ] : : ",
"< [ } | | | | | | | | | | | 1 [ < 2 2 ",
"3 4 5 6 6 6 6 6 6 6 6 6 6 6 7 4 3 8 8 ",
"9 0 a b b b b b b b b b b b c 0 9 d d ",
"e f g h i h h i h h h h h h j f e k k ",
"l f m n o o o o o o o o o n p f l q q ",
"r 0 a s o t t t t t t t o s c 0 r d d ",
"u v w x o t t t t t t t o x y v u z z ",
"A B 5 C o o o o o o o o o C D B A E E ",
"F G H I I I I I I I I I I I J G F K K ",
"L M N O P P P P P P P P P O N M L Q Q ",
"R S T U U U U U U U U U U U T S R R R ",
"V V W X X X X X X X X X X X W V V V V ",
"Y Y Y Y Y Y Y Y Y Y Y Y Y Y Y Y Y Y Y ",
"Z Z Z Z Z Z Z Z Z Z Z Z Z Z Z Z Z Z Z ",
"` ` ` ` ` ` ` ` ` ` ` ` ` ` ` ` ` ` ` ",
"` ` ` ` ` ` ` ` ` ` ` ` ` ` ` ` ` ` ` ",
"` ` ` ` ` ` ` ` ` ` ` ` ` ` ` ` ` ` ` ",
"` ` ` ` ` ` ` ` ` ` ` ` ` ` ` ` ` ` ` ",
"` ` ` ` ` ` ` ` ` ` ` ` ` ` ` ` ` ` ` ",
"` ` ` ` ` ` ` ` ` ` ` ` ` ` ` ` ` ` ` ",
"` ` ` ` ` ` ` ` ` ` ` ` ` ` ` ` ` ` ` ",
"` ` ` ` ` ` ` ` ` ` ` ` ` ` ` ` ` ` ` ",
"` ` ` ` ` ` ` ` ` ` ` ` ` ` ` ` ` ` ` ",
"` ` ` ` ` ` ` ` ` ` ` ` ` ` ` ` ` ` ` ",
"` ` ` ` ` ` ` ` ` ` ` ` ` ` ` ` ` ` ` ",
"` ` ` ` ` ` ` ` ` ` ` ` ` ` ` ` ` ` ` ",
"` ` ` ` ` ` ` ` ` ` ` ` ` ` ` ` ` ` ` ",
"` ` ` ` ` ` ` ` ` ` ` ` ` ` ` ` ` ` ` ",
"` ` ` ` ` ` ` ` ` ` ` ` ` ` ` ` ` ` ` ",
"` ` ` ` ` ` ` ` ` ` ` ` ` ` ` ` ` ` ` ",
"` ` ` ` ` ` ` ` ` ` ` ` ` ` ` ` ` ` ` ",
"` ` ` ` ` ` ` ` ` ` ` ` ` ` ` ` ` ` ` ",
"` ` ` ` ` ` ` ` ` ` ` ` ` ` ` ` ` ` ` "};
