/* XPM */
static char * restoreO_xpm[] = {
"19 38 114 2",
"  	c None",
". 	c #1E75DF",
"+ 	c #2379E2",
"@ 	c #1961BA",
"# 	c #1B6CCD",
"$ 	c #1C6DCF",
"% 	c #1C6DD0",
"& 	c #1C6DD1",
"* 	c #1961B9",
"= 	c #2178E1",
"- 	c #1E74DE",
"; 	c #2077E1",
"> 	c #185FB5",
", 	c #1A68C6",
"' 	c #1B68C7",
") 	c #1B69C7",
"! 	c #1B69C9",
"~ 	c #185EB3",
"{ 	c #1D73DB",
"] 	c #1860B6",
"^ 	c #185DB2",
"/ 	c #1A67C4",
"( 	c #458EE6",
"_ 	c #3685E4",
": 	c #3886E4",
"< 	c #3987E5",
"[ 	c #448DE6",
"} 	c #1A67C3",
"| 	c #1D72D9",
"1 	c #1A65C1",
"2 	c #1E75E0",
"3 	c #1D73DC",
"4 	c #1E74DD",
"5 	c #185FB6",
"6 	c #1D70D5",
"7 	c #1A64BF",
"8 	c #2F81E3",
"9 	c #1E76E0",
"0 	c #1F77E1",
"a 	c #2278E1",
"b 	c #2279E2",
"c 	c #1964BE",
"d 	c #185FB4",
"e 	c #1C6ED2",
"f 	c #1963BD",
"g 	c #2D7FE3",
"h 	c #257AE2",
"i 	c #1B69C8",
"j 	c #1B6AC9",
"k 	c #1963BC",
"l 	c #1C6CCE",
"m 	c #1962BC",
"n 	c #2B7EE3",
"o 	c #297DE2",
"p 	c #99C1F1",
"q 	c #287CE2",
"r 	c #1962BA",
"s 	c #1B6BCC",
"t 	c #185CB0",
"u 	c #2E80E3",
"v 	c #1D71D7",
"w 	c #175CAE",
"x 	c #247AE2",
"y 	c #1E76E1",
"z 	c #1B6ACB",
"A 	c #1B6CCE",
"B 	c #1C6FD4",
"C 	c #1964BF",
"D 	c #1D74DC",
"E 	c #1A65C0",
"F 	c #1D71D8",
"G 	c #9AC2F2",
"H 	c #1A66C2",
"I 	c #1C70D5",
"J 	c #1D70D6",
"K 	c #1B6ACA",
"L 	c #1A66C3",
"M 	c #1962BB",
"N 	c #1C6FD3",
"O 	c #1A67C5",
"P 	c #3B87E5",
"Q 	c #1C6ED1",
"R 	c #1C6CCF",
"S 	c #1D73DA",
"T 	c #1B68C6",
"U 	c #1A68C5",
"V 	c #1C6ED3",
"W 	c #1E75DE",
"X 	c #1B6BCB",
"Y 	c #175CAF",
"Z 	c #175BAD",
"` 	c #1758A9",
" .	c #185DB0",
"..	c #185EB4",
"+.	c #1759A9",
"@.	c #175AAC",
"#.	c #1657A7",
"$.	c #1658A7",
"%.	c #1759AA",
"&.	c #175AAB",
"*.	c #1658A8",
"=.	c #1657A5",
"-.	c #1758A8",
";.	c #1657A6",
">.	c #1656A4",
",.	c #8DB9F0",
"'.	c #1655A2",
").	c #8BB9F0",
"!.	c #8CB9F0",
"~.	c #1655A1",
"{.	c #185DB1",
"].	c #1554A1",
"^.	c #175CB0",
"/.	c #175BAE",
". + @ # $ $ % & & & % $ $ # * = . - - ",
"; * > , ' ) ! ! ! ! ) ' , , ~ * ; { { ",
"] ^ / ( _ : < < < < < : _ [ } ^ ] | | ",
"] 1 2 3 4 - . . . . . - 3 { 2 1 5 6 6 ",
"> 7 8 9 0 = a a b a = = 0 9 4 c d e e ",
"~ f g b h i i i j i i ' h b 3 k ~ l l ",
"^ m n o n i p p p p p i n q { r ^ s s ",
"t * q u 8 j p p p p p j 8 g v * w ! ! ",
"c 5 x . y z p A A A p j 9 - B 5 c , , ",
"C 5 h D . z p A $ A p j 4 3 6 5 c , , ",
"E * q F { j p p G p p j | F v * E ! ! ",
"H r o I J j z z z z j i J I | * H K K ",
"L M n % e N I J J I I N e % { r H s s ",
"O k P s # % % Q Q Q % R # s S k O A A ",
"} i C O i j j z z z j ! i / c ' L Q Q ",
"3 T j 7 1 1 H H H H H 1 1 7 i U { V V ",
"v W i z X s s A A A s s X K i 4 v B B ",
"J J J J J J J J J J J J J J J J J J J ",
". . . . . . . . . . . . . . . . . . . ",
"{ J Y f k M M * * M M M k c Y v D - - ",
"N Z ` ~ ^ ^  .t t  .^ ^ ~ ..+.Z I { { ",
"@.#.^ + v J B B B B B J F x ^ $.Z | | ",
"%.Y } f M r @ @ @ @ r M f c O Y &.6 6 ",
"$.@.l c f M r @ @ @ r M f E E @.*.e e ",
"=.-.z C f *.*.#.#.#.*.+.c E k %.;.l l ",
">.$., 1 c #.,.,.,.,.,.*.E L r *.>.s s ",
"'.=.L L E =.,.).).!.,.#.1 / 5 =.'.! ! ",
"&.>.c d ~ =.).'.~.'.,.;...5 ..>.&., , ",
"&.>.c ~ {.=.).'.].'.,.;.~ ....>.&., , ",
"Z =.L {.^.=.!.).).!.,.#.t ~ 5 =.Z ! ! ",
"/.=./ t /.#.=.=.>.=.;.*.^.{.* $.w K K ",
"Y *.) ^./.Z &.&.&.&.@./.w {.M -.t s s ",
"^ %.F ^./.Z &.&.&.&.Z Z w ^.f %.~ A A ",
"~ ~ %.Z Z @.&.%.%.&.&.Z Z Z &.~ ~ Q Q ",
"i > ~ @.%.%.-.-.-.-.-.%.%.@.> > j V V ",
"Q z 5 5 > ~ ~ ~ ~ ~ ~ > > ] 5 X Q B B ",
"J J J J J J J J J J J J J J J J J J J ",
". . . . . . . . . . . . . . . . . . . "};
