/* XPM */
static char * restoreO_xpm[] = {
"19 38 472 2",
"  	c None",
". 	c #4864AA",
"+ 	c #4F6BB2",
"@ 	c #21337C",
"# 	c #354D97",
"$ 	c #364E99",
"% 	c #374F9A",
"& 	c #37509B",
"* 	c #38509C",
"= 	c #20337B",
"- 	c #4E6AB1",
"; 	c #4863AA",
"> 	c #4661A8",
", 	c #4B68B1",
"' 	c #20327A",
") 	c #1B2D75",
"! 	c #2B4393",
"~ 	c #2C4494",
"{ 	c #2D4596",
"] 	c #2D4697",
"^ 	c #2D4698",
"/ 	c #2D4597",
"( 	c #2C4495",
"_ 	c #2C4394",
": 	c #2B4292",
"< 	c #1A2C74",
"[ 	c #1F3279",
"} 	c #4B67B0",
"| 	c #435EA7",
"1 	c #1C3078",
"2 	c #182A73",
"3 	c #274192",
"4 	c #7397D7",
"5 	c #6285CA",
"6 	c #6487CB",
"7 	c #6588CC",
"8 	c #6589CD",
"9 	c #6588CD",
"0 	c #6386CB",
"a 	c #7296D6",
"b 	c #264091",
"c 	c #182A72",
"d 	c #1C2F77",
"e 	c #3E5BA5",
"f 	c #1B307A",
"g 	c #233C90",
"h 	c #4365B1",
"i 	c #3861B3",
"j 	c #3963B5",
"k 	c #3A64B7",
"l 	c #3B65B8",
"m 	c #3B66B9",
"n 	c #3C66B9",
"o 	c #3A64B6",
"p 	c #3962B5",
"q 	c #3860B2",
"r 	c #4265B0",
"s 	c #233C8F",
"t 	c #1A3079",
"u 	c #3957A3",
"v 	c #192E7B",
"w 	c #203A90",
"x 	c #557CC8",
"y 	c #3D67BA",
"z 	c #3F6ABC",
"A 	c #406BBE",
"B 	c #416DC0",
"C 	c #416DC1",
"D 	c #426EC1",
"E 	c #416CBF",
"F 	c #3E69BC",
"G 	c #3D67B9",
"H 	c #4062B3",
"I 	c #20398F",
"J 	c #182D7A",
"K 	c #3453A2",
"L 	c #172C79",
"M 	c #1D3890",
"N 	c #517AC8",
"O 	c #436EC1",
"P 	c #4471C3",
"Q 	c #144AB5",
"R 	c #154BB7",
"S 	c #154CB8",
"T 	c #154AB6",
"U 	c #1449B4",
"V 	c #4470C2",
"W 	c #426EC0",
"X 	c #3C5FB3",
"Y 	c #1C378F",
"Z 	c #172B78",
"` 	c #304FA0",
" .	c #152A7B",
"..	c #1A3690",
"+.	c #4B79CA",
"@.	c #4776C7",
"#.	c #4978C9",
"$.	c #FFF8F7",
"%.	c #FFF8F8",
"&.	c #4978C8",
"*.	c #4775C6",
"=.	c #3760B4",
"-.	c #1A358F",
";.	c #142A7A",
">.	c #2B4C9F",
",.	c #112779",
"'.	c #17328F",
").	c #4474C9",
"!.	c #4C7CCC",
"~.	c #4F7FCF",
"{.	c #154DB9",
"].	c #FFF9F8",
"^.	c #FFF9F9",
"/.	c #4E7ECE",
"(.	c #4C7ACB",
"_.	c #315CB3",
":.	c #17328E",
"<.	c #102678",
"[.	c #26489D",
"}.	c #1A3B97",
"|.	c #14308E",
"1.	c #3E70C9",
"2.	c #3A65B9",
"3.	c #3C67BC",
"4.	c #164EBB",
"5.	c #1752C1",
"6.	c #1752C2",
"7.	c #1751C0",
"8.	c #164DBA",
"9.	c #3B67BA",
"0.	c #2C58B3",
"a.	c #14308C",
"b.	c #1A3A95",
"c.	c #22459C",
"d.	c #1B3B97",
"e.	c #4071CA",
"f.	c #3862B6",
"g.	c #3A65BA",
"h.	c #1854C4",
"i.	c #3963B9",
"j.	c #3761B5",
"k.	c #2E59B3",
"l.	c #14308D",
"m.	c #1B3A95",
"n.	c #23459C",
"o.	c #1E3D98",
"p.	c #17338F",
"q.	c #4475CA",
"r.	c #355CB2",
"s.	c #375FB5",
"t.	c #164DBB",
"u.	c #FFFAF9",
"v.	c #154CB9",
"w.	c #365EB4",
"x.	c #355BB1",
"y.	c #315CB4",
"z.	c #1E3D97",
"A.	c #203F9A",
"B.	c #183491",
"C.	c #4676CA",
"D.	c #3258AE",
"E.	c #335AB1",
"F.	c #164FBD",
"G.	c #154BB8",
"H.	c #3359B0",
"I.	c #3157AD",
"J.	c #335EB5",
"K.	c #183390",
"L.	c #203E98",
"M.	c #284A9F",
"N.	c #214099",
"O.	c #1A3591",
"P.	c #4A78C9",
"Q.	c #2E52A8",
"R.	c #3054AB",
"S.	c #3156AE",
"T.	c #3258B0",
"U.	c #3259B2",
"V.	c #3258B1",
"W.	c #3157AF",
"X.	c #3056AD",
"Y.	c #2F54AA",
"Z.	c #213F98",
"`.	c #2B4CA0",
" +	c #234299",
".+	c #1B3790",
"++	c #5D8DD7",
"@+	c #2A4DA3",
"#+	c #2C4FA5",
"$+	c #2C51A8",
"%+	c #2D52A9",
"&+	c #2E53AA",
"*+	c #2E53AB",
"=+	c #2C50A7",
"-+	c #2B4FA4",
";+	c #2A4DA2",
">+	c #375FB3",
",+	c #1B378F",
"'+	c #234298",
")+	c #2E4FA1",
"!+	c #244197",
"~+	c #27469C",
"{+	c #1E3A94",
"]+	c #244397",
"^+	c #28479E",
"/+	c #2948A0",
"(+	c #2949A1",
"_+	c #2A4AA2",
":+	c #2949A0",
"<+	c #28489F",
"[+	c #28469D",
"}+	c #244296",
"|+	c #1E3993",
"1+	c #27459B",
"2+	c #234196",
"3+	c #3151A3",
"4+	c #3D60B2",
"5+	c #284499",
"6+	c #2A489D",
"7+	c #213B94",
"8+	c #223C96",
"9+	c #223D97",
"0+	c #233E99",
"a+	c #233F9A",
"b+	c #223E98",
"c+	c #213C95",
"d+	c #213B93",
"e+	c #29479C",
"f+	c #274398",
"g+	c #3D5FB1",
"h+	c #3453A4",
"i+	c #3A5AA9",
"j+	c #4163B3",
"k+	c #294699",
"l+	c #2C4A9D",
"m+	c #2D4B9F",
"n+	c #2E4CA1",
"o+	c #2E4DA2",
"p+	c #2E4EA2",
"q+	c #2E4DA1",
"r+	c #2D4CA0",
"s+	c #2C499D",
"t+	c #284699",
"u+	c #4062B2",
"v+	c #3756A5",
"w+	c #3A58A7",
"x+	c #4764AC",
"y+	c #445EA5",
"z+	c #3E589F",
"A+	c #172563",
"B+	c #25377B",
"C+	c #243679",
"D+	c #233578",
"E+	c #223477",
"F+	c #223376",
"G+	c #233478",
"H+	c #233579",
"I+	c #24367A",
"J+	c #25387C",
"K+	c #172664",
"L+	c #3F59A0",
"M+	c #445FA6",
"N+	c #3B549E",
"O+	c #162360",
"P+	c #111D57",
"Q+	c #1B2B6F",
"R+	c #1A2A6E",
"S+	c #19296C",
"T+	c #18286B",
"U+	c #18286A",
"V+	c #19296D",
"W+	c #1A2B6F",
"X+	c #1B2C71",
"Y+	c #111E59",
"Z+	c #162462",
"`+	c #3C569F",
" @	c #13225E",
".@	c #0F1B55",
"+@	c #17296D",
"@@	c #4B6DBB",
"#@	c #3B59A6",
"$@	c #3A57A5",
"%@	c #3956A4",
"&@	c #3955A3",
"*@	c #3855A3",
"=@	c #3956A3",
"-@	c #3B58A5",
";@	c #3C5AA7",
">@	c #4D6EBC",
",@	c #182A6E",
"'@	c #101C57",
")@	c #142360",
"!@	c #11205C",
"~@	c #15256B",
"{@	c #274089",
"]@	c #1E3987",
"^@	c #1C3785",
"/@	c #1B3583",
"(@	c #1A3482",
"_@	c #1A3481",
":@	c #1B3582",
"<@	c #1C3684",
"[@	c #1D3886",
"}@	c #1E3A88",
"|@	c #28428B",
"1@	c #15266C",
"2@	c #11215E",
"3@	c #0F1C59",
"4@	c #112266",
"5@	c #314FA1",
"6@	c #1E3A8A",
"7@	c #1D3887",
"8@	c #1B3685",
"9@	c #1A3584",
"0@	c #1A3483",
"a@	c #1B3584",
"b@	c #1C3786",
"c@	c #1D3989",
"d@	c #1F3C8B",
"e@	c #243C89",
"f@	c #122268",
"g@	c #0F1D5B",
"h@	c #0D1A55",
"i@	c #0F1E62",
"j@	c #2B4A9D",
"k@	c #1F3B8D",
"l@	c #1D398A",
"m@	c #071E73",
"n@	c #061D71",
"o@	c #061C70",
"p@	c #061C6F",
"q@	c #061D72",
"r@	c #071F74",
"s@	c #1E3A8B",
"t@	c #203D8E",
"u@	c #1F3785",
"v@	c #0F1F64",
"w@	c #0D1B56",
"x@	c #0B1753",
"y@	c #0D1C60",
"z@	c #25459C",
"A@	c #203E91",
"B@	c #1E3B8E",
"C@	c #FFE5E4",
"D@	c #FFE5E3",
"E@	c #FFE6E4",
"F@	c #1F3D90",
"G@	c #214092",
"H@	c #0D1D62",
"I@	c #0B1855",
"J@	c #09154F",
"K@	c #0A195D",
"L@	c #204098",
"M@	c #214095",
"N@	c #1F3D92",
"O@	c #061A6E",
"P@	c #FFE4E2",
"Q@	c #FFE4E3",
"R@	c #203E94",
"S@	c #224297",
"T@	c #17307F",
"U@	c #0B1A5F",
"V@	c #091651",
"W@	c #0D216A",
"X@	c #09175A",
"Y@	c #1C3B96",
"Z@	c #172E79",
"`@	c #152B76",
" #	c #05196C",
".#	c #041566",
"+#	c #041464",
"@#	c #041667",
"##	c #061B6E",
"$#	c #162D77",
"%#	c #18307B",
"&#	c #142E7D",
"*#	c #09185D",
"=#	c #0E226C",
"-#	c #0E216A",
";#	c #152C75",
">#	c #132972",
",#	c #041565",
"'#	c #031463",
")#	c #152B74",
"!#	c #162E77",
"~#	c #09185C",
"{#	c #0F226C",
"]#	c #10236C",
"^#	c #142A72",
"/#	c #13276F",
"(#	c #051A6D",
"_#	c #061B6F",
":#	c #132870",
"<#	c #10246E",
"[#	c #11256F",
"}#	c #0B1A60",
"|#	c #22429C",
"1#	c #142870",
"2#	c #12266D",
"3#	c #05196B",
"4#	c #05186B",
"5#	c #13276E",
"6#	c #152972",
"7#	c #193382",
"8#	c #0C1B61",
"9#	c #122671",
"0#	c #132671",
"a#	c #26469D",
"b#	c #13286E",
"c#	c #12256B",
"d#	c #112468",
"e#	c #102266",
"f#	c #0F2165",
"g#	c #102367",
"h#	c #11256A",
"i#	c #13266C",
"j#	c #142970",
"k#	c #1C3685",
"l#	c #0E1E64",
"m#	c #132773",
"n#	c #152A74",
"o#	c #0E1F65",
"p#	c #355CB5",
"q#	c #13276C",
"r#	c #122569",
"s#	c #112367",
"t#	c #102265",
"u#	c #102164",
"v#	c #112366",
"w#	c #122468",
"x#	c #13266B",
"y#	c #14286D",
"z#	c #0F2067",
"A#	c #162B76",
"B#	c #172B75",
"C#	c #102067",
"D#	c #122366",
"E#	c #122367",
"F#	c #112265",
"G#	c #102063",
"H#	c #102163",
"I#	c #112164",
"J#	c #122467",
"K#	c #102169",
"L#	c #172C77",
"M#	c #172C78",
"N#	c #2B4797",
"O#	c #192D77",
"P#	c #182C76",
"Q#	c #112168",
"R#	c #102065",
"S#	c #101F64",
"T#	c #0F1E63",
"U#	c #101F65",
"V#	c #112066",
"W#	c #112269",
"X#	c #192D78",
"Y#	c #2C4899",
"Z#	c #3452A1",
"`#	c #2E4A98",
" $	c #192F78",
".$	c #1A2F78",
"+$	c #192D76",
"@$	c #192C75",
"#$	c #182B74",
"$$	c #182B73",
"%$	c #182C74",
"&$	c #192D75",
"*$	c #1A2E77",
"=$	c #1B3079",
"-$	c #1A2F79",
";$	c #2F4B9A",
". + @ # $ % & * * * & % $ # = - ; > > ",
", ' ) ! ~ { ] ] ^ ] / ( _ : < [ } | | ",
"1 2 3 4 5 6 7 8 8 9 7 0 5 a b c d e e ",
"f g h i j k l m n m l o p q r s t u u ",
"v w x y z A B C D B E A F G H I J K K ",
"L M N O P Q R R S R T U V W X Y Z ` ` ",
" ...+.@.#.R $.%.%.%.$.T &.*.=.-.;.>.>.",
",.'.).!.~.{.%.].^.].%.S /.(._.:.<.[.[.",
"}.|.1.2.3.4.].5.6.7.].8.9.k 0.a.b.c.c.",
"d.|.e.f.g.4.^.6.h.5.].8.i.j.k.l.m.n.n.",
"o.p.q.r.s.t.].^.u.^.%.v.w.x.y.:.z.[.[.",
"A.B.C.D.E.v.4.F.F.F.8.G.H.I.J.K.L.M.M.",
"N.O.P.Q.R.S.T.U.U.V.W.X.Y.Q.s.-.Z.`.`.",
" +.+++@+#+$+%+&+*+&+%+=+-+;+>+,+'+)+)+",
"!+~+{+]+^+/+(+_+_+_+:+<+[+}+|+1+2+3+3+",
"4+5+6+7+8+9+0+0+a+0+b+9+c+d+e+f+g+h+h+",
"i+j+k+l+m+n+o+p+p+p+q+r+m+s+t+u+i+v+v+",
"w+w+w+w+w+w+w+w+w+w+w+w+w+w+w+w+w+w+w+",
"x+x+x+x+x+x+x+x+x+x+x+x+x+x+x+x+x+x+x+",
"y+z+A+B+C+D+E+F+F+E+G+H+I+J+K+L+M+> > ",
"N+O+P+Q+R+S+T+U+U+T+S+V+W+X+Y+Z+`+| | ",
" @.@+@@@#@$@%@&@*@=@%@-@;@>@,@'@)@e e ",
"!@~@{@]@^@/@(@_@_@_@:@<@[@}@|@1@2@u u ",
"3@4@5@6@7@8@9@0@(@0@a@b@c@d@e@f@g@K K ",
"h@i@j@k@l@m@n@o@p@o@q@r@s@t@u@v@w@` ` ",
"x@y@z@A@B@o@C@D@D@C@E@n@F@G@:@H@I@>.>.",
"J@K@L@M@N@O@D@P@P@Q@D@p@R@S@T@U@V@[.[.",
"W@X@Y@Z@`@ #P@.#+#@#D@##$#%#&#*#=#c.c.",
"-#X@Y@;#># #P@,#'#@#D@##)#!#&#~#{#n.n.",
"]#K@L@^#/#(#Q@P@P@Q@D@_#:#)#T@U@<#[.[.",
"[#}#|#1#2#_#(#3#4# ###n@5#6#7#8#9#M.M.",
"0#H@a#b#c#d#e#f#f#f#g#h#i#j#k#l#m#`.`.",
"n#o#p#q#r#s#t#u#u#t#v#w#x#y#[@z#`@)+)+",
"A#B#C#D#E#F#u#G#G#H#I#v#w#J#K#L#M#3+3+",
"N#O#P#Q#R#S#i@i@i@i@T#U#V#W#O#X#Y#h+h+",
"Z#`# $.$+$@$#$$$$$$$%$&$*$=$-$;$Z#v+v+",
"w+w+w+w+w+w+w+w+w+w+w+w+w+w+w+w+w+w+w+",
"x+x+x+x+x+x+x+x+x+x+x+x+x+x+x+x+x+x+x+"};
