/* XPM */
static char * rolldownO_xpm[] = {
"19 38 427 2",
"  	c None",
". 	c #4864AA",
"+ 	c #4F6BB2",
"@ 	c #21337C",
"# 	c #354D97",
"$ 	c #364E99",
"% 	c #374F9A",
"& 	c #37509B",
"* 	c #38509C",
"= 	c #20337B",
"- 	c #4E6AB1",
"; 	c #4863AA",
"> 	c #4661A8",
", 	c #4B68B1",
"' 	c #20327A",
") 	c #1B2D75",
"! 	c #2B4393",
"~ 	c #2C4494",
"{ 	c #2D4596",
"] 	c #2D4697",
"^ 	c #2D4698",
"/ 	c #2D4597",
"( 	c #2C4495",
"_ 	c #2C4394",
": 	c #2B4292",
"< 	c #1A2C74",
"[ 	c #1F3279",
"} 	c #4B67B0",
"| 	c #435EA7",
"1 	c #1C3078",
"2 	c #182A73",
"3 	c #274192",
"4 	c #7397D7",
"5 	c #6285CA",
"6 	c #6487CB",
"7 	c #6588CC",
"8 	c #6589CD",
"9 	c #6588CD",
"0 	c #6386CB",
"a 	c #7296D6",
"b 	c #264091",
"c 	c #182A72",
"d 	c #1C2F77",
"e 	c #3E5BA5",
"f 	c #1B307A",
"g 	c #233C90",
"h 	c #4365B1",
"i 	c #3861B3",
"j 	c #3963B5",
"k 	c #3A64B7",
"l 	c #3B65B8",
"m 	c #3B66B9",
"n 	c #3C66B9",
"o 	c #3A64B6",
"p 	c #3962B5",
"q 	c #3860B2",
"r 	c #4265B0",
"s 	c #233C8F",
"t 	c #1A3079",
"u 	c #3957A3",
"v 	c #192E7B",
"w 	c #203A90",
"x 	c #557CC8",
"y 	c #3D67BA",
"z 	c #3F6ABC",
"A 	c #1447B2",
"B 	c #1448B3",
"C 	c #1449B4",
"D 	c #1447B1",
"E 	c #3E69BC",
"F 	c #3D67B9",
"G 	c #4062B3",
"H 	c #20398F",
"I 	c #182D7A",
"J 	c #3453A2",
"K 	c #172C79",
"L 	c #1D3890",
"M 	c #517AC8",
"N 	c #436EC1",
"O 	c #1448B2",
"P 	c #FFF7F6",
"Q 	c #FFF7F7",
"R 	c #FFF6F6",
"S 	c #426EC0",
"T 	c #3C5FB3",
"U 	c #1C378F",
"V 	c #172B78",
"W 	c #304FA0",
"X 	c #152A7B",
"Y 	c #1A3690",
"Z 	c #4B79CA",
"` 	c #4776C7",
" .	c #1449B5",
"..	c #FFF8F7",
"+.	c #FFF8F8",
"@.	c #4775C6",
"#.	c #3760B4",
"$.	c #1A358F",
"%.	c #142A7A",
"&.	c #2B4C9F",
"*.	c #112779",
"=.	c #17328F",
"-.	c #4474C9",
";.	c #4C7CCC",
">.	c #154AB6",
",.	c #FFF9F8",
"'.	c #FFF9F9",
").	c #154AB5",
"!.	c #4C7ACB",
"~.	c #315CB3",
"{.	c #17328E",
"].	c #102678",
"^.	c #26489D",
"/.	c #1A3B97",
"(.	c #14308E",
"_.	c #3E70C9",
":.	c #3A65B9",
"<.	c #154BB7",
"[.	c #FFFAF9",
"}.	c #FFFAFA",
"|.	c #2C58B3",
"1.	c #14308C",
"2.	c #1A3A95",
"3.	c #22459C",
"4.	c #1B3B97",
"5.	c #4071CA",
"6.	c #3862B6",
"7.	c #154CB8",
"8.	c #3761B5",
"9.	c #2E59B3",
"0.	c #14308D",
"a.	c #1B3A95",
"b.	c #23459C",
"c.	c #1E3D98",
"d.	c #17338F",
"e.	c #4475CA",
"f.	c #355CB2",
"g.	c #355BB1",
"h.	c #315CB4",
"i.	c #1E3D97",
"j.	c #203F9A",
"k.	c #183491",
"l.	c #4676CA",
"m.	c #3258AE",
"n.	c #3157AD",
"o.	c #335EB5",
"p.	c #183390",
"q.	c #203E98",
"r.	c #284A9F",
"s.	c #214099",
"t.	c #1A3591",
"u.	c #4A78C9",
"v.	c #2E52A8",
"w.	c #3054AB",
"x.	c #164DBA",
"y.	c #154CB9",
"z.	c #154BB8",
"A.	c #2F54AA",
"B.	c #375FB5",
"C.	c #213F98",
"D.	c #2B4CA0",
"E.	c #234299",
"F.	c #1B3790",
"G.	c #5D8DD7",
"H.	c #2A4DA3",
"I.	c #2C4FA5",
"J.	c #2C51A8",
"K.	c #2D52A9",
"L.	c #2E53AA",
"M.	c #2E53AB",
"N.	c #2C50A7",
"O.	c #2B4FA4",
"P.	c #2A4DA2",
"Q.	c #375FB3",
"R.	c #1B378F",
"S.	c #234298",
"T.	c #2E4FA1",
"U.	c #244197",
"V.	c #27469C",
"W.	c #1E3A94",
"X.	c #244397",
"Y.	c #28479E",
"Z.	c #2948A0",
"`.	c #2949A1",
" +	c #2A4AA2",
".+	c #2949A0",
"++	c #28489F",
"@+	c #28469D",
"#+	c #244296",
"$+	c #1E3993",
"%+	c #27459B",
"&+	c #234196",
"*+	c #3151A3",
"=+	c #3D60B2",
"-+	c #284499",
";+	c #2A489D",
">+	c #213B94",
",+	c #223C96",
"'+	c #223D97",
")+	c #233E99",
"!+	c #233F9A",
"~+	c #223E98",
"{+	c #213C95",
"]+	c #213B93",
"^+	c #29479C",
"/+	c #274398",
"(+	c #3D5FB1",
"_+	c #3453A4",
":+	c #3A5AA9",
"<+	c #4163B3",
"[+	c #294699",
"}+	c #2C4A9D",
"|+	c #2D4B9F",
"1+	c #2E4CA1",
"2+	c #2E4DA2",
"3+	c #2E4EA2",
"4+	c #2E4DA1",
"5+	c #2D4CA0",
"6+	c #2C499D",
"7+	c #284699",
"8+	c #4062B2",
"9+	c #3756A5",
"0+	c #3A58A7",
"a+	c #4764AC",
"b+	c #445EA5",
"c+	c #3E589F",
"d+	c #172563",
"e+	c #25377B",
"f+	c #243679",
"g+	c #233578",
"h+	c #223477",
"i+	c #223376",
"j+	c #233478",
"k+	c #233579",
"l+	c #24367A",
"m+	c #25387C",
"n+	c #172664",
"o+	c #3F59A0",
"p+	c #445FA6",
"q+	c #3B549E",
"r+	c #162360",
"s+	c #111D57",
"t+	c #1B2B6F",
"u+	c #1A2A6E",
"v+	c #19296C",
"w+	c #18286B",
"x+	c #18286A",
"y+	c #19296D",
"z+	c #1A2B6F",
"A+	c #1B2C71",
"B+	c #111E59",
"C+	c #162462",
"D+	c #3C569F",
"E+	c #13225E",
"F+	c #0F1B55",
"G+	c #17296D",
"H+	c #4B6DBB",
"I+	c #3B59A6",
"J+	c #3A57A5",
"K+	c #3956A4",
"L+	c #3955A3",
"M+	c #3855A3",
"N+	c #3956A3",
"O+	c #3B58A5",
"P+	c #3C5AA7",
"Q+	c #4D6EBC",
"R+	c #182A6E",
"S+	c #101C57",
"T+	c #142360",
"U+	c #11205C",
"V+	c #15256B",
"W+	c #274089",
"X+	c #1E3987",
"Y+	c #1C3785",
"Z+	c #1B3583",
"`+	c #1A3482",
" @	c #1A3481",
".@	c #1B3582",
"+@	c #1C3684",
"@@	c #1D3886",
"#@	c #1E3A88",
"$@	c #28428B",
"%@	c #15266C",
"&@	c #11215E",
"*@	c #0F1C59",
"=@	c #112266",
"-@	c #314FA1",
";@	c #1E3A8A",
">@	c #1D3887",
",@	c #072076",
"'@	c #071F74",
")@	c #071E73",
"!@	c #071E74",
"~@	c #071F75",
"{@	c #072177",
"]@	c #1D3989",
"^@	c #1F3C8B",
"/@	c #243C89",
"(@	c #122268",
"_@	c #0F1D5B",
":@	c #0D1A55",
"<@	c #0F1E62",
"[@	c #2B4A9D",
"}@	c #1F3B8D",
"|@	c #FFE7E5",
"1@	c #FFE6E5",
"2@	c #FFE6E4",
"3@	c #072077",
"4@	c #203D8E",
"5@	c #1F3785",
"6@	c #0F1F64",
"7@	c #0D1B56",
"8@	c #0B1753",
"9@	c #0D1C60",
"0@	c #25459C",
"a@	c #203E91",
"b@	c #FFE5E4",
"c@	c #FFE5E3",
"d@	c #214092",
"e@	c #0D1D62",
"f@	c #0B1855",
"g@	c #09154F",
"h@	c #0A195D",
"i@	c #204098",
"j@	c #214095",
"k@	c #061D71",
"l@	c #FFE4E2",
"m@	c #FFE4E3",
"n@	c #224297",
"o@	c #17307F",
"p@	c #0B1A5F",
"q@	c #091651",
"r@	c #0D216A",
"s@	c #09175A",
"t@	c #1C3B96",
"u@	c #172E79",
"v@	c #061C70",
"w@	c #FFE3E2",
"x@	c #FFE3E1",
"y@	c #061D72",
"z@	c #18307B",
"A@	c #142E7D",
"B@	c #09185D",
"C@	c #0E226C",
"D@	c #0E216A",
"E@	c #152C75",
"F@	c #162E77",
"G@	c #09185C",
"H@	c #0F226C",
"I@	c #10236C",
"J@	c #142A72",
"K@	c #071E72",
"L@	c #152B74",
"M@	c #10246E",
"N@	c #11256F",
"O@	c #0B1A60",
"P@	c #22429C",
"Q@	c #142870",
"R@	c #071D72",
"S@	c #152972",
"T@	c #193382",
"U@	c #0C1B61",
"V@	c #122671",
"W@	c #132671",
"X@	c #26469D",
"Y@	c #13286E",
"Z@	c #12256B",
"`@	c #061B6F",
" #	c #061B6E",
".#	c #13266C",
"+#	c #142970",
"@#	c #1C3685",
"##	c #0E1E64",
"$#	c #132773",
"%#	c #152A74",
"&#	c #0E1F65",
"*#	c #355CB5",
"=#	c #13276C",
"-#	c #122569",
";#	c #112367",
">#	c #102265",
",#	c #102164",
"'#	c #112366",
")#	c #122468",
"!#	c #13266B",
"~#	c #14286D",
"{#	c #0F2067",
"]#	c #152B76",
"^#	c #162B76",
"/#	c #172B75",
"(#	c #102067",
"_#	c #122366",
":#	c #122367",
"<#	c #112265",
"[#	c #102063",
"}#	c #102163",
"|#	c #112164",
"1#	c #122467",
"2#	c #102169",
"3#	c #172C77",
"4#	c #172C78",
"5#	c #2B4797",
"6#	c #192D77",
"7#	c #182C76",
"8#	c #112168",
"9#	c #102065",
"0#	c #101F64",
"a#	c #0F1E63",
"b#	c #101F65",
"c#	c #112066",
"d#	c #112269",
"e#	c #192D78",
"f#	c #2C4899",
"g#	c #3452A1",
"h#	c #2E4A98",
"i#	c #192F78",
"j#	c #1A2F78",
"k#	c #192D76",
"l#	c #192C75",
"m#	c #182B74",
"n#	c #182B73",
"o#	c #182C74",
"p#	c #192D75",
"q#	c #1A2E77",
"r#	c #1B3079",
"s#	c #1A2F79",
"t#	c #2F4B9A",
". + @ # $ % & * * * & % $ # = - ; > > ",
", ' ) ! ~ { ] ] ^ ] / ( _ : < [ } | | ",
"1 2 3 4 5 6 7 8 8 9 7 0 5 a b c d e e ",
"f g h i j k l m n m l o p q r s t u u ",
"v w x y z A B C C C B D E F G H I J J ",
"K L M N O P Q Q Q Q P R D S T U V W W ",
"X Y Z `  .Q ..+.+.+...P C @.#.$.%.&.&.",
"*.=.-.;.>...+.,.'.,.+.Q ).!.~.{.].^.^.",
"/.(._.:.<.+.,.[.}.'.,...>.k |.1.2.3.3.",
"4.(.5.6.7.+.'.}.}.[.,...<.8.9.0.a.b.b.",
"c.d.e.f.<.+.,.'.[.'.+...>.g.h.{.i.^.^.",
"j.k.l.m.>...+.,.,.+.+.Q  .n.o.p.q.r.r.",
"s.t.u.v.w.>.7.x.x.y.z.>.A.v.B.$.C.D.D.",
"E.F.G.H.I.J.K.L.M.L.K.N.O.P.Q.R.S.T.T.",
"U.V.W.X.Y.Z.`. + + +.+++@+#+$+%+&+*+*+",
"=+-+;+>+,+'+)+)+!+)+~+'+{+]+^+/+(+_+_+",
":+<+[+}+|+1+2+3+3+3+4+5+|+6+7+8+:+9+9+",
"0+0+0+0+0+0+0+0+0+0+0+0+0+0+0+0+0+0+0+",
"a+a+a+a+a+a+a+a+a+a+a+a+a+a+a+a+a+a+a+",
"b+c+d+e+f+g+h+i+i+h+j+k+l+m+n+o+p+> > ",
"q+r+s+t+u+v+w+x+x+w+v+y+z+A+B+C+D+| | ",
"E+F+G+H+I+J+K+L+M+N+K+O+P+Q+R+S+T+e e ",
"U+V+W+X+Y+Z+`+ @ @ @.@+@@@#@$@%@&@u u ",
"*@=@-@;@>@,@'@)@)@!@~@{@]@^@/@(@_@J J ",
":@<@[@}@~@|@1@2@2@2@1@|@3@4@5@6@7@W W ",
"8@9@0@a@)@2@b@c@c@b@2@1@~@d@.@e@f@&.&.",
"g@h@i@j@k@b@c@l@l@m@c@2@)@n@o@p@q@^.^.",
"r@s@t@u@v@c@l@w@x@l@c@2@y@z@A@B@C@3.3.",
"D@s@t@E@v@c@l@w@x@l@c@b@y@F@A@G@H@b.b.",
"I@h@i@J@k@b@m@l@l@m@c@2@K@L@o@p@M@^.^.",
"N@O@P@Q@R@2@b@c@c@c@b@1@'@S@T@U@V@r.r.",
"W@e@X@Y@Z@y@v@`@ #`@k@)@.#+#@###$#D.D.",
"%#&#*#=#-#;#>#,#,#>#'#)#!#~#@@{#]#T.T.",
"^#/#(#_#:#<#,#[#[#}#|#'#)#1#2#3#4#*+*+",
"5#6#7#8#9#0#<@<@<@<@a#b#c#d#6#e#f#_+_+",
"g#h#i#j#k#l#m#n#n#n#o#p#q#r#s#t#g#9+9+",
"0+0+0+0+0+0+0+0+0+0+0+0+0+0+0+0+0+0+0+",
"a+a+a+a+a+a+a+a+a+a+a+a+a+a+a+a+a+a+a+"};
