/* XPM */
static char * rollupO_xpm[] = {
"19 38 492 2",
"  	c None",
". 	c #4864AA",
"+ 	c #4F6BB2",
"@ 	c #21337C",
"# 	c #354D97",
"$ 	c #364E99",
"% 	c #374F9A",
"& 	c #37509B",
"* 	c #38509C",
"= 	c #20337B",
"- 	c #4E6AB1",
"; 	c #4863AA",
"> 	c #4661A8",
", 	c #4B68B1",
"' 	c #20327A",
") 	c #1B2D75",
"! 	c #2B4393",
"~ 	c #2C4494",
"{ 	c #2D4596",
"] 	c #2D4697",
"^ 	c #2D4698",
"/ 	c #2D4597",
"( 	c #2C4495",
"_ 	c #2C4394",
": 	c #2B4292",
"< 	c #1A2C74",
"[ 	c #1F3279",
"} 	c #4B67B0",
"| 	c #435EA7",
"1 	c #1C3078",
"2 	c #182A73",
"3 	c #274192",
"4 	c #7397D7",
"5 	c #6285CA",
"6 	c #6487CB",
"7 	c #6588CC",
"8 	c #6589CD",
"9 	c #6588CD",
"0 	c #6386CB",
"a 	c #7296D6",
"b 	c #264091",
"c 	c #182A72",
"d 	c #1C2F77",
"e 	c #3E5BA5",
"f 	c #1B307A",
"g 	c #233C90",
"h 	c #4365B1",
"i 	c #3861B3",
"j 	c #3963B5",
"k 	c #3A64B7",
"l 	c #3B65B8",
"m 	c #3B66B9",
"n 	c #3C66B9",
"o 	c #3A64B6",
"p 	c #3962B5",
"q 	c #3860B2",
"r 	c #4265B0",
"s 	c #233C8F",
"t 	c #1A3079",
"u 	c #3957A3",
"v 	c #192E7B",
"w 	c #203A90",
"x 	c #557CC8",
"y 	c #3D67BA",
"z 	c #1346B0",
"A 	c #1447B2",
"B 	c #1448B3",
"C 	c #1449B4",
"D 	c #1447B1",
"E 	c #1346AF",
"F 	c #3D67B9",
"G 	c #4062B3",
"H 	c #20398F",
"I 	c #182D7A",
"J 	c #3453A2",
"K 	c #172C79",
"L 	c #1D3890",
"M 	c #517AC8",
"N 	c #436EC1",
"O 	c #1448B2",
"P 	c #FFF7F6",
"Q 	c #FFF7F7",
"R 	c #FFF6F6",
"S 	c #426EC0",
"T 	c #3C5FB3",
"U 	c #1C378F",
"V 	c #172B78",
"W 	c #304FA0",
"X 	c #152A7B",
"Y 	c #1A3690",
"Z 	c #4B79CA",
"` 	c #4776C7",
" .	c #1449B5",
"..	c #FFF8F7",
"+.	c #FFF8F8",
"@.	c #4775C6",
"#.	c #3760B4",
"$.	c #1A358F",
"%.	c #142A7A",
"&.	c #2B4C9F",
"*.	c #112779",
"=.	c #17328F",
"-.	c #4474C9",
";.	c #4C7CCC",
">.	c #154AB6",
",.	c #154DB9",
"'.	c #164EBC",
").	c #1650BE",
"!.	c #1750BF",
"~.	c #164FBE",
"{.	c #164EBB",
"].	c #154CB8",
"^.	c #154AB5",
"/.	c #4C7ACB",
"(.	c #315CB3",
"_.	c #17328E",
":.	c #102678",
"<.	c #26489D",
"[.	c #1A3B97",
"}.	c #14308E",
"|.	c #3E70C9",
"1.	c #3A65B9",
"2.	c #3C67BC",
"3.	c #3E6BBF",
"4.	c #406EC2",
"5.	c #416FC5",
"6.	c #4271C6",
"7.	c #4170C4",
"8.	c #3F6DC1",
"9.	c #3D6ABE",
"0.	c #3B67BA",
"a.	c #2C58B3",
"b.	c #14308C",
"c.	c #1A3A95",
"d.	c #22459C",
"e.	c #1B3B97",
"f.	c #4071CA",
"g.	c #3862B6",
"h.	c #3A65BA",
"i.	c #3C67BD",
"j.	c #3E6AC1",
"k.	c #3F6DC4",
"l.	c #416FC6",
"m.	c #3F6CC3",
"n.	c #3D69BF",
"o.	c #3B66BC",
"p.	c #3963B9",
"q.	c #3761B5",
"r.	c #2E59B3",
"s.	c #14308D",
"t.	c #1B3A95",
"u.	c #23459C",
"v.	c #1E3D98",
"w.	c #17338F",
"x.	c #4475CA",
"y.	c #355CB2",
"z.	c #375FB5",
"A.	c #3961B9",
"B.	c #3A64BC",
"C.	c #3C66BE",
"D.	c #3C66BF",
"E.	c #3B65BD",
"F.	c #3A63BB",
"G.	c #3860B7",
"H.	c #365EB4",
"I.	c #355BB1",
"J.	c #315CB4",
"K.	c #1E3D97",
"L.	c #203F9A",
"M.	c #183491",
"N.	c #4676CA",
"O.	c #3258AE",
"P.	c #335AB1",
"Q.	c #355CB5",
"R.	c #365EB6",
"S.	c #3760B9",
"T.	c #365FB8",
"U.	c #355EB6",
"V.	c #345CB3",
"W.	c #3359B0",
"X.	c #3157AD",
"Y.	c #335EB5",
"Z.	c #183390",
"`.	c #203E98",
" +	c #284A9F",
".+	c #214099",
"++	c #1A3591",
"@+	c #4A78C9",
"#+	c #2E52A8",
"$+	c #3054AB",
"%+	c #3156AE",
"&+	c #3258B0",
"*+	c #3259B2",
"=+	c #3258B1",
"-+	c #3157AF",
";+	c #3056AD",
">+	c #2F54AA",
",+	c #213F98",
"'+	c #2B4CA0",
")+	c #234299",
"!+	c #1B3790",
"~+	c #5D8DD7",
"{+	c #2A4DA3",
"]+	c #2C4FA5",
"^+	c #2C51A8",
"/+	c #2D52A9",
"(+	c #2E53AA",
"_+	c #2E53AB",
":+	c #2C50A7",
"<+	c #2B4FA4",
"[+	c #2A4DA2",
"}+	c #375FB3",
"|+	c #1B378F",
"1+	c #234298",
"2+	c #2E4FA1",
"3+	c #244197",
"4+	c #27469C",
"5+	c #1E3A94",
"6+	c #244397",
"7+	c #28479E",
"8+	c #2948A0",
"9+	c #2949A1",
"0+	c #2A4AA2",
"a+	c #2949A0",
"b+	c #28489F",
"c+	c #28469D",
"d+	c #244296",
"e+	c #1E3993",
"f+	c #27459B",
"g+	c #234196",
"h+	c #3151A3",
"i+	c #3D60B2",
"j+	c #284499",
"k+	c #2A489D",
"l+	c #213B94",
"m+	c #223C96",
"n+	c #223D97",
"o+	c #233E99",
"p+	c #233F9A",
"q+	c #223E98",
"r+	c #213C95",
"s+	c #213B93",
"t+	c #29479C",
"u+	c #274398",
"v+	c #3D5FB1",
"w+	c #3453A4",
"x+	c #3A5AA9",
"y+	c #4163B3",
"z+	c #294699",
"A+	c #2C4A9D",
"B+	c #2D4B9F",
"C+	c #2E4CA1",
"D+	c #2E4DA2",
"E+	c #2E4EA2",
"F+	c #2E4DA1",
"G+	c #2D4CA0",
"H+	c #2C499D",
"I+	c #284699",
"J+	c #4062B2",
"K+	c #3756A5",
"L+	c #3A58A7",
"M+	c #4764AC",
"N+	c #445EA5",
"O+	c #3E589F",
"P+	c #172563",
"Q+	c #25377B",
"R+	c #243679",
"S+	c #233578",
"T+	c #223477",
"U+	c #223376",
"V+	c #233478",
"W+	c #233579",
"X+	c #24367A",
"Y+	c #25387C",
"Z+	c #172664",
"`+	c #3F59A0",
" @	c #445FA6",
".@	c #3B549E",
"+@	c #162360",
"@@	c #111D57",
"#@	c #1B2B6F",
"$@	c #1A2A6E",
"%@	c #19296C",
"&@	c #18286B",
"*@	c #18286A",
"=@	c #19296D",
"-@	c #1A2B6F",
";@	c #1B2C71",
">@	c #111E59",
",@	c #162462",
"'@	c #3C569F",
")@	c #13225E",
"!@	c #0F1B55",
"~@	c #17296D",
"{@	c #4B6DBB",
"]@	c #3B59A6",
"^@	c #3A57A5",
"/@	c #3956A4",
"(@	c #3955A3",
"_@	c #3855A3",
":@	c #3956A3",
"<@	c #3B58A5",
"[@	c #3C5AA7",
"}@	c #4D6EBC",
"|@	c #182A6E",
"1@	c #101C57",
"2@	c #142360",
"3@	c #11205C",
"4@	c #15256B",
"5@	c #274089",
"6@	c #1E3987",
"7@	c #1C3785",
"8@	c #1B3583",
"9@	c #1A3482",
"0@	c #1A3481",
"a@	c #1B3582",
"b@	c #1C3684",
"c@	c #1D3886",
"d@	c #1E3A88",
"e@	c #28428B",
"f@	c #15266C",
"g@	c #11215E",
"h@	c #0F1C59",
"i@	c #112266",
"j@	c #314FA1",
"k@	c #1E3A8A",
"l@	c #082178",
"m@	c #072076",
"n@	c #071F74",
"o@	c #071E73",
"p@	c #071E74",
"q@	c #071F75",
"r@	c #072177",
"s@	c #082279",
"t@	c #1F3C8B",
"u@	c #243C89",
"v@	c #122268",
"w@	c #0F1D5B",
"x@	c #0D1A55",
"y@	c #0F1E62",
"z@	c #2B4A9D",
"A@	c #1F3B8D",
"B@	c #FFE7E5",
"C@	c #FFE6E5",
"D@	c #FFE6E4",
"E@	c #072077",
"F@	c #203D8E",
"G@	c #1F3785",
"H@	c #0F1F64",
"I@	c #0D1B56",
"J@	c #0B1753",
"K@	c #0D1C60",
"L@	c #25459C",
"M@	c #203E91",
"N@	c #FFE5E4",
"O@	c #FFE5E3",
"P@	c #214092",
"Q@	c #0D1D62",
"R@	c #0B1855",
"S@	c #09154F",
"T@	c #0A195D",
"U@	c #204098",
"V@	c #214095",
"W@	c #061D71",
"X@	c #061A6E",
"Y@	c #05186B",
"Z@	c #041768",
"`@	c #05186A",
" #	c #05196C",
".#	c #061C6F",
"+#	c #224297",
"@#	c #17307F",
"##	c #0B1A5F",
"$#	c #091651",
"%#	c #0D216A",
"&#	c #09175A",
"*#	c #1C3B96",
"=#	c #172E79",
"-#	c #152B76",
";#	c #132872",
">#	c #11256E",
",#	c #0F226B",
"'#	c #0F216A",
")#	c #10246D",
"!#	c #122670",
"~#	c #142A74",
"{#	c #162D77",
"]#	c #18307B",
"^#	c #142E7D",
"/#	c #09185D",
"(#	c #0E226C",
"_#	c #0E216A",
":#	c #152C75",
"<#	c #132972",
"[#	c #12266E",
"}#	c #10236A",
"|#	c #0E2067",
"1#	c #0D1F65",
"2#	c #0F2269",
"3#	c #11256C",
"4#	c #132870",
"5#	c #152B74",
"6#	c #162E77",
"7#	c #09185C",
"8#	c #0F226C",
"9#	c #10236C",
"0#	c #142A72",
"a#	c #13276F",
"b#	c #11246B",
"c#	c #0F2268",
"d#	c #0E2065",
"e#	c #0E1F65",
"f#	c #0F2167",
"g#	c #12266D",
"h#	c #10246E",
"i#	c #11256F",
"j#	c #0B1A60",
"k#	c #22429C",
"l#	c #142870",
"m#	c #112369",
"n#	c #102266",
"o#	c #0F2065",
"p#	c #0F2166",
"q#	c #102368",
"r#	c #12256B",
"s#	c #13276E",
"t#	c #152972",
"u#	c #193382",
"v#	c #0C1B61",
"w#	c #122671",
"x#	c #132671",
"y#	c #26469D",
"z#	c #13286E",
"A#	c #112468",
"B#	c #0F2165",
"C#	c #102367",
"D#	c #11256A",
"E#	c #13266C",
"F#	c #142970",
"G#	c #1C3685",
"H#	c #0E1E64",
"I#	c #132773",
"J#	c #152A74",
"K#	c #13276C",
"L#	c #122569",
"M#	c #112367",
"N#	c #102265",
"O#	c #102164",
"P#	c #112366",
"Q#	c #122468",
"R#	c #13266B",
"S#	c #14286D",
"T#	c #0F2067",
"U#	c #162B76",
"V#	c #172B75",
"W#	c #102067",
"X#	c #122366",
"Y#	c #122367",
"Z#	c #112265",
"`#	c #102063",
" $	c #102163",
".$	c #112164",
"+$	c #122467",
"@$	c #102169",
"#$	c #172C77",
"$$	c #172C78",
"%$	c #2B4797",
"&$	c #192D77",
"*$	c #182C76",
"=$	c #112168",
"-$	c #102065",
";$	c #101F64",
">$	c #0F1E63",
",$	c #101F65",
"'$	c #112066",
")$	c #112269",
"!$	c #192D78",
"~$	c #2C4899",
"{$	c #3452A1",
"]$	c #2E4A98",
"^$	c #192F78",
"/$	c #1A2F78",
"($	c #192D76",
"_$	c #192C75",
":$	c #182B74",
"<$	c #182B73",
"[$	c #182C74",
"}$	c #192D75",
"|$	c #1A2E77",
"1$	c #1B3079",
"2$	c #1A2F79",
"3$	c #2F4B9A",
". + @ # $ % & * * * & % $ # = - ; > > ",
", ' ) ! ~ { ] ] ^ ] / ( _ : < [ } | | ",
"1 2 3 4 5 6 7 8 8 9 7 0 5 a b c d e e ",
"f g h i j k l m n m l o p q r s t u u ",
"v w x y z A B C C C B D E F G H I J J ",
"K L M N O P Q Q Q Q P R D S T U V W W ",
"X Y Z `  .Q ..+.+.+...P C @.#.$.%.&.&.",
"*.=.-.;.>.,.'.).!.~.{.].^./.(._.:.<.<.",
"[.}.|.1.2.3.4.5.6.7.8.9.0.k a.b.c.d.d.",
"e.}.f.g.h.i.j.k.l.m.n.o.p.q.r.s.t.u.u.",
"v.w.x.y.z.A.B.C.D.E.F.G.H.I.J._.K.<.<.",
"L.M.N.O.P.Q.R.S.S.T.U.V.W.X.Y.Z.`. + +",
".+++@+#+$+%+&+*+*+=+-+;+>+#+z.$.,+'+'+",
")+!+~+{+]+^+/+(+_+(+/+:+<+[+}+|+1+2+2+",
"3+4+5+6+7+8+9+0+0+0+a+b+c+d+e+f+g+h+h+",
"i+j+k+l+m+n+o+o+p+o+q+n+r+s+t+u+v+w+w+",
"x+y+z+A+B+C+D+E+E+E+F+G+B+H+I+J+x+K+K+",
"L+L+L+L+L+L+L+L+L+L+L+L+L+L+L+L+L+L+L+",
"M+M+M+M+M+M+M+M+M+M+M+M+M+M+M+M+M+M+M+",
"N+O+P+Q+R+S+T+U+U+T+V+W+X+Y+Z+`+ @> > ",
".@+@@@#@$@%@&@*@*@&@%@=@-@;@>@,@'@| | ",
")@!@~@{@]@^@/@(@_@:@/@<@[@}@|@1@2@e e ",
"3@4@5@6@7@8@9@0@0@0@a@b@c@d@e@f@g@u u ",
"h@i@j@k@l@m@n@o@o@p@q@r@s@t@u@v@w@J J ",
"x@y@z@A@q@B@C@D@D@D@C@B@E@F@G@H@I@W W ",
"J@K@L@M@o@D@N@O@O@N@D@C@q@P@a@Q@R@&.&.",
"S@T@U@V@W@X@Y@Z@Z@`@ #.#o@+#@###$#<.<.",
"%#&#*#=#-#;#>#,#'#)#!#~#{#]#^#/#(#d.d.",
"_#&#*#:#<#[#}#|#1#2#3#4#5#6#^#7#8#u.u.",
"9#T@U@0#a#b#c#d#e#f#}#g#4#5#@###h#<.<.",
"i#j#k#l#g#m#n#o#o#p#q#r#s#t#u#v#w# + +",
"x#Q@y#z#r#A#n#B#B#B#C#D#E#F#G#H#I#'+'+",
"J#e#Q.K#L#M#N#O#O#N#P#Q#R#S#c@T#-#2+2+",
"U#V#W#X#Y#Z#O#`#`# $.$P#Q#+$@$#$$$h+h+",
"%$&$*$=$-$;$y@y@y@y@>$,$'$)$&$!$~$w+w+",
"{$]$^$/$($_$:$<$<$<$[$}$|$1$2$3${$K+K+",
"L+L+L+L+L+L+L+L+L+L+L+L+L+L+L+L+L+L+L+",
"M+M+M+M+M+M+M+M+M+M+M+M+M+M+M+M+M+M+M+"};
