/* XPM */
static char * titleAB_xpm[] = {
"1 19 19 1",
" 	c None",
".	c #4661A8",
"+	c #435EA7",
"@	c #3E5BA5",
"#	c #3957A3",
"$	c #3453A2",
"%	c #304FA0",
"&	c #2B4C9F",
"*	c #26489D",
"=	c #22459C",
"-	c #23459C",
";	c #284A9F",
">	c #2B4CA0",
",	c #2E4FA1",
"'	c #3151A3",
")	c #3453A4",
"!	c #3756A5",
"~	c #3A58A7",
"{	c #4764AC",
".",
"+",
"@",
"#",
"$",
"%",
"&",
"*",
"=",
"-",
"*",
";",
">",
",",
"'",
")",
"!",
"~",
"{"};
