/* XPM */
static char * icewm_logo16_xpm[] = {
"16 16 95 2",
"  	c None",
". 	c #A9DFF3",
"+ 	c #A8DFF3",
"@ 	c #BAE5F4",
"# 	c #C8EAF4",
"$ 	c #D4EEF5",
"% 	c #E0F2F5",
"& 	c #BCE6F4",
"* 	c #ABE0F3",
"= 	c #A2DDF3",
"- 	c #C6E9F4",
"; 	c #A6DEF3",
"> 	c #58CAF4",
", 	c #7FD3F4",
"' 	c #BDE6F3",
") 	c #B5E3F3",
"! 	c #BDE5F4",
"~ 	c #7BD2F3",
"{ 	c #2CBEF2",
"] 	c #40C6F4",
"^ 	c #DEF2F5",
"/ 	c #ACE0F3",
"( 	c #C0E7F3",
"_ 	c #98DAF3",
": 	c #23B8F1",
"< 	c #00ADEF",
"[ 	c #36C5F4",
"} 	c #81D3F4",
"| 	c #BEE6F4",
"1 	c #BBE5F3",
"2 	c #54C3F3",
"3 	c #1DB6F1",
"4 	c #38C6F4",
"5 	c #50C9F4",
"6 	c #E3F4F5",
"7 	c #D0ECF4",
"8 	c #8BD5F3",
"9 	c #0AAFEF",
"0 	c #21B7F1",
"a 	c #CFECF4",
"b 	c #FAFEF7",
"c 	c #E2F4F5",
"d 	c #D3EEF5",
"e 	c #D6EFF5",
"f 	c #B3E2F4",
"g 	c #ADE0F3",
"h 	c #57C4F2",
"i 	c #0FB0F0",
"j 	c #80D3F3",
"k 	c #E0F3F5",
"l 	c #F3FBF7",
"m 	c #E1F3F5",
"n 	c #C7E9F4",
"o 	c #9CDBF3",
"p 	c #AAE0F3",
"q 	c #56C8F3",
"r 	c #03AEEF",
"s 	c #1EB6F1",
"t 	c #37C5F4",
"u 	c #83D4F3",
"v 	c #9BDBF3",
"w 	c #79D1F4",
"x 	c #49C8F4",
"y 	c #36C4F4",
"z 	c #9DDBF3",
"A 	c #2EBBF2",
"B 	c #11B1EF",
"C 	c #9EDCF3",
"D 	c #6BCEF3",
"E 	c #26BAF2",
"F 	c #6BCEF4",
"G 	c #8AD6F3",
"H 	c #1AB4F0",
"I 	c #2EBFF2",
"J 	c #6ECFF3",
"K 	c #76D1F3",
"L 	c #30C1F3",
"M 	c #96D9F3",
"N 	c #AEE0F3",
"O 	c #89D5F3",
"P 	c #2EBEF2",
"Q 	c #8CD6F3",
"R 	c #2EBFF3",
"S 	c #11B1F0",
"T 	c #57C6F3",
"U 	c #93D9F3",
"V 	c #8AD5F3",
"W 	c #72CFF4",
"X 	c #23B9F1",
"Y 	c #18B3F0",
"Z 	c #3EC1F2",
"` 	c #92D8F4",
" .	c #9DDCF3",
"..	c #94D9F3",
"+.	c #AFE1F3",
"                                ",
"        . + + @ # $ % &         ",
"      * = + + + + + + - &       ",
"      ; > , ' ) + + + + !       ",
"    * ~ { ] = ^ / + + + + (     ",
"    _ : < [ } | % + + + + * 1   ",
"  * 2 < 3 4 5 + 6 7 + + + + + . ",
"  8 9 0 [ 4 4 _ a b c d e f + + ",
"g h i 4 4 4 4 j k l m n o o +   ",
"p q r s t 4 4 u + v w x y z p   ",
"  _ A < B [ 4 C D 4 4 E F .     ",
"    G H < I J K 4 4 L s M N     ",
"    * O H P Q 4 y R S T p       ",
"      . U V W X Y X Z `         ",
"        * +  .G ..o + +.        ",
"                                "};
