/* XPM */
static char * icewm_logo32_xpm[] = {
"32 32 205 2",
"  	c None",
". 	c #ADE1F2",
"+ 	c #AFE1F3",
"@ 	c #AEE1F4",
"# 	c #AAE0F3",
"$ 	c #A8DFF3",
"% 	c #ADE0F3",
"& 	c #ACE0F3",
"* 	c #B0E2F3",
"= 	c #C5E8F4",
"- 	c #D4EEF5",
"; 	c #E2F4F5",
"> 	c #E8F6F5",
", 	c #E6F5F6",
"' 	c #E1F3F6",
") 	c #DDF1F5",
"! 	c #CCEBF4",
"~ 	c #AADFF3",
"{ 	c #AEE1F3",
"] 	c #C0E7F4",
"^ 	c #CFECF4",
"/ 	c #E1F3F5",
"( 	c #F4FBF6",
"_ 	c #E2F3F5",
": 	c #A9DFF3",
"< 	c #D4EEF4",
"[ 	c #D9F0F5",
"} 	c #8FD7F3",
"| 	c #A6DFF3",
"1 	c #C7E9F4",
"2 	c #CEECF4",
"3 	c #8AD6F3",
"4 	c #38C6F4",
"5 	c #6CCEF3",
"6 	c #D0ECF4",
"7 	c #C8E9F4",
"8 	c #C2E7F4",
"9 	c #B1E2F4",
"0 	c #9EDCF3",
"a 	c #42C7F4",
"b 	c #D3EEF5",
"c 	c #D2EDF5",
"d 	c #B8E4F3",
"e 	c #61CCF3",
"f 	c #55CAF4",
"g 	c #A7DFF3",
"h 	c #ABE0F3",
"i 	c #F1F9F6",
"j 	c #C3E8F4",
"k 	c #D1EDF5",
"l 	c #84D4F3",
"m 	c #37C6F4",
"n 	c #24B9F1",
"o 	c #14B2EF",
"p 	c #33C3F4",
"q 	c #8ED7F3",
"r 	c #C6E9F4",
"s 	c #F6FBF6",
"t 	c #B4E3F3",
"u 	c #D2EDF4",
"v 	c #ADE1F3",
"w 	c #40C7F4",
"x 	c #1EB5F1",
"y 	c #00ADEF",
"z 	c #30C1F3",
"A 	c #60CCF4",
"B 	c #EDF7F6",
"C 	c #B1E2F3",
"D 	c #CAEAF4",
"E 	c #65CDF3",
"F 	c #05AEEF",
"G 	c #37C5F4",
"H 	c #9BDBF3",
"I 	c #BAE5F3",
"J 	c #FAFDF7",
"K 	c #DFF2F5",
"L 	c #B7E4F3",
"M 	c #8DD7F3",
"N 	c #2CBEF2",
"O 	c #1EB6F1",
"P 	c #79D2F3",
"Q 	c #FBFEF7",
"R 	c #A9E0F3",
"S 	c #A5DEF3",
"T 	c #4BC7F3",
"U 	c #08AFEF",
"V 	c #09AFEF",
"W 	c #33C3F3",
"X 	c #49C8F4",
"Y 	c #B3E3F3",
"Z 	c #F9FDF7",
"` 	c #FAFEF7",
" .	c #C5E9F4",
"..	c #AFE2F3",
"+.	c #81D3F3",
"@.	c #1EB6F0",
"#.	c #14B2F0",
"$.	c #94D9F3",
"%.	c #E5F5F6",
"&.	c #F9FDF6",
"*.	c #D5EEF5",
"=.	c #A7DEF3",
"-.	c #B7E4F4",
";.	c #C4E8F4",
">.	c #A4DEF3",
",.	c #40C3F3",
"'.	c #23B9F2",
").	c #77D1F3",
"!.	c #F1FAF6",
"~.	c #E6F5F5",
"{.	c #BFE6F4",
"].	c #85D5F3",
"^.	c #1BB5F1",
"/.	c #50C9F4",
"(.	c #BCE6F3",
"_.	c #EEF8F6",
":.	c #B3E2F3",
"<.	c #1FB6F1",
"[.	c #17B3F0",
"}.	c #A1DDF3",
"|.	c #E3F4F5",
"1.	c #91D8F3",
"2.	c #7BD2F3",
"3.	c #75D1F4",
"4.	c #53CAF4",
"5.	c #2ABCF2",
"6.	c #1CB5F1",
"7.	c #36C5F4",
"8.	c #3AC6F4",
"9.	c #6BCEF4",
"0.	c #3FC7F4",
"a.	c #7BD2F4",
"b.	c #84D4F4",
"c.	c #0DB0F0",
"d.	c #0EB0EF",
"e.	c #30C0F3",
"f.	c #63CDF4",
"g.	c #7AD2F3",
"h.	c #47C8F4",
"i.	c #34C4F3",
"j.	c #3EC7F4",
"k.	c #5ECCF4",
"l.	c #2DBEF3",
"m.	c #02AEEF",
"n.	c #89D5F3",
"o.	c #6FCFF3",
"p.	c #39C7F4",
"q.	c #35C4F4",
"r.	c #73D0F3",
"s.	c #A0DCF3",
"t.	c #4AC8F4",
"u.	c #1FB7F1",
"v.	c #01ADEF",
"w.	c #31C1F3",
"x.	c #41C7F4",
"y.	c #9ADBF3",
"z.	c #42C8F4",
"A.	c #27BAF2",
"B.	c #15B2F0",
"C.	c #98DAF3",
"D.	c #3FC6F4",
"E.	c #13B2F0",
"F.	c #26BAF1",
"G.	c #78D1F3",
"H.	c #56CAF4",
"I.	c #32C2F3",
"J.	c #03AEEF",
"K.	c #26BAF2",
"L.	c #66CDF3",
"M.	c #93D8F3",
"N.	c #3BC4F3",
"O.	c #0BB0EF",
"P.	c #1CB5F0",
"Q.	c #3BC7F4",
"R.	c #9FDCF3",
"S.	c #7DD2F4",
"T.	c #92D8F3",
"U.	c #3AC3F3",
"V.	c #74D0F3",
"W.	c #29BCF2",
"X.	c #18B3F0",
"Y.	c #B2E2F4",
"Z.	c #93D9F3",
"`.	c #3DC3F3",
" +	c #0FB1F0",
".+	c #43C8F4",
"++	c #72D0F3",
"@+	c #2DBEF2",
"#+	c #99DBF3",
"$+	c #4DC9F4",
"%+	c #8BD6F3",
"&+	c #3AC7F4",
"*+	c #19B4F0",
"=+	c #2BBDF2",
"-+	c #A3DDF3",
";+	c #87D5F3",
">+	c #20B7F1",
",+	c #23B9F1",
"'+	c #29BDF2",
")+	c #2FC0F3",
"!+	c #96D9F3",
"~+	c #71D0F3",
"{+	c #70CFF3",
"]+	c #7CD2F3",
"^+	c #AFE1F4",
"                                                                ",
"                  . + @ # $ $ # % & + + %                       ",
"                * $ $ $ $ & = - ; > , ' ) ! ~                   ",
"                $ $ $ $ $ $ $ $ $ { ] ^ / ( _ &                 ",
"              # $ $ $ $ $ $ $ $ $ $ $ $ $ : < [ #               ",
"            + $ $ } | $ $ $ $ $ $ $ $ $ $ $ $ 1 2 +             ",
"            : $ 3 4 5 $ $ 6 $ $ $ $ $ $ $ $ $ $ 7 8 9           ",
"          { $ 0 a 4 4 } $ b c $ $ $ $ $ $ $ $ $ $ ! d           ",
"          $ $ e 4 4 4 f g h i j $ $ $ $ $ $ $ $ $ $ k *         ",
"        h $ l m n o p 4 q $ r s t $ $ $ $ $ $ $ $ $ # u v       ",
"        $ 0 w x y y z 4 A $ $ > B h $ $ $ $ $ $ $ $ $ C D +     ",
"      h $ E n y y F G 4 4 H $ I J K $ $ $ $ $ $ $ $ $ $ I L     ",
"      $ M N y y y O 4 4 4 P $ $ K Q 6 $ $ $ $ $ $ $ $ $ $ R #   ",
"    { S T U y y V W 4 4 4 X g $ Y Z `  .$ $ $ $ $ $ $ $ $ $ $ ..",
"    $ +.@.y y #.p 4 4 4 4 4 $.$ $ %.Q &.*.t g =.& -.;.R $ $ $ & ",
"  & >.,.y y '.G 4 4 4 4 4 4 ).$ $ !.Q Q Q Q J Z Q ~.{.$ $ $ :   ",
"  $ ].n y ^.4 4 4 4 4 4 4 4 /.$ (.Q Q Q Q Q _.- :.$ $ $ $ $ +   ",
"  $ A <.y [.4 4 4 4 4 4 4 4 m }.7 Q i |.^ t $ S 1.2.3.$ $ :     ",
"+ $ 4.5.y y 6.7.4 4 4 4 4 4 8.>.$ g $ $ =.} 9.0.4 4 a.$ $ C     ",
"  $ b.G c.y y d.e.4 4 4 4 4 f.$ $ $ 0 g.h.4 4 i.p j.}.$ :       ",
"  & g k.l.y y y m.5.4 4 4 4 n.$ 0 o.p.4 4 4 4 [.q.r.$ $         ",
"    # s.t.u.y y y v.w.4 4 x.>.y.z.4 4 4 4 4 A.B.m H $ &         ",
"      $ C.D.E.y y y F.4 4 G.| H.4 4 4 4 4 I.J.K.L.$ $           ",
"        $ M.N.O.y y P.4 Q.R.S.4 4 4 4 4 4 [.y W T.$ {           ",
"        + $ 1.U.U y [.4 V.0 j.4 4 4 4 4 W.y X.H.$ :             ",
"          Y.$ Z.`. +O .+}.++4 4 G e.F.B.y y @+3 $               ",
"            h $ #+$+G %+s.&+5.[.m.y y v.*+=+/.g h               ",
"              h $ -+Z.$ ;+4 K.>+,+'+)+7.8.A !+:                 ",
"                & $ $ $ s.g.~+{+r.]+3 !+S $ $ +                 ",
"                  + $ $ $ $ $ $ $ $ $ $ $ $ {                   ",
"                      { ^+& { ~ $ # v { h                       ",
"                                                                "};
