/* XPM */
static char * frameABL_xpm[] = {
"5 5 5 1",
" 	c None",
".	c #191919",
"+	c #3B3B3B",
"@	c #363636",
"#	c #303030",
" .+@ ",
" .+@@",
"  .##",
"   ..",
"     "};
