/* XPM */
static char * frameABR_xpm[] = {
"5 5 4 1",
" 	c None",
".	c #363636",
"+	c #303030",
"@	c #191919",
" .+@ ",
"..+@ ",
"++@  ",
"@@   ",
"     "};
