/* XPM */
static char * rollupO_xpm[] = {
"19 38 112 2",
"  	c None",
". 	c #1E75DF",
"+ 	c #2379E2",
"@ 	c #1961BA",
"# 	c #1B6CCD",
"$ 	c #1C6DCF",
"% 	c #1C6DD0",
"& 	c #1C6DD1",
"* 	c #1961B9",
"= 	c #2178E1",
"- 	c #1E74DE",
"; 	c #2077E1",
"> 	c #185FB5",
", 	c #1A68C6",
"' 	c #1B68C7",
") 	c #1B69C7",
"! 	c #1B69C9",
"~ 	c #185EB3",
"{ 	c #1D73DB",
"] 	c #1860B6",
"^ 	c #185DB2",
"/ 	c #1A67C4",
"( 	c #458EE6",
"_ 	c #3685E4",
": 	c #3886E4",
"< 	c #3987E5",
"[ 	c #448DE6",
"} 	c #1A67C3",
"| 	c #1D72D9",
"1 	c #1A65C1",
"2 	c #1E75E0",
"3 	c #1D73DC",
"4 	c #1E74DD",
"5 	c #185FB6",
"6 	c #1D70D5",
"7 	c #1A64BF",
"8 	c #2F81E3",
"9 	c #1E76E0",
"0 	c #1A68C5",
"a 	c #1B68C6",
"b 	c #1A67C5",
"c 	c #1964BE",
"d 	c #185FB4",
"e 	c #1C6ED2",
"f 	c #1963BD",
"g 	c #2D7FE3",
"h 	c #2279E2",
"i 	c #98C0F1",
"j 	c #1963BC",
"k 	c #1C6CCE",
"l 	c #1962BC",
"m 	c #2B7EE3",
"n 	c #297DE2",
"o 	c #99C1F1",
"p 	c #287CE2",
"q 	c #1962BA",
"r 	c #1B6BCC",
"s 	c #185CB0",
"t 	c #2E80E3",
"u 	c #1B69C8",
"v 	c #1B6AC9",
"w 	c #1B6ACB",
"x 	c #1D71D7",
"y 	c #175CAE",
"z 	c #247AE2",
"A 	c #1E76E1",
"B 	c #2278E1",
"C 	c #257AE2",
"D 	c #1F77E1",
"E 	c #1C6FD4",
"F 	c #1964BF",
"G 	c #1D74DC",
"H 	c #1A65C0",
"I 	c #1D71D8",
"J 	c #1A66C2",
"K 	c #1C70D5",
"L 	c #1D70D6",
"M 	c #1D72DA",
"N 	c #1B6ACA",
"O 	c #1A66C3",
"P 	c #1962BB",
"Q 	c #1C6FD3",
"R 	c #3B87E5",
"S 	c #1C6ED1",
"T 	c #1C6CCF",
"U 	c #1D73DA",
"V 	c #1B6CCE",
"W 	c #1C6ED3",
"X 	c #1E75DE",
"Y 	c #1B6BCB",
"Z 	c #175CAF",
"` 	c #175BAD",
" .	c #1758A9",
"..	c #185DB0",
"+.	c #185EB4",
"@.	c #1759A9",
"#.	c #175AAC",
"$.	c #1657A7",
"%.	c #1658A7",
"&.	c #1759AA",
"*.	c #175AAB",
"=.	c #1658A8",
"-.	c #1657A5",
";.	c #1758A8",
">.	c #8EBAF0",
",.	c #8DB9F0",
"'.	c #1657A6",
").	c #1656A4",
"!.	c #1655A2",
"~.	c #175BAE",
"{.	c #185DB1",
"].	c #175CB0",
". + @ # $ $ % & & & % $ $ # * = . - - ",
"; * > , ' ) ! ! ! ! ) ' , , ~ * ; { { ",
"] ^ / ( _ : < < < < < : _ [ } ^ ] | | ",
"] 1 2 3 4 - . . . . . - 3 { 2 1 5 6 6 ",
"> 7 8 9 0 0 a ' ' ' a 0 b 9 4 c d e e ",
"~ f g h a i i i i i i i 0 h 3 j ~ k k ",
"^ l m n ' i o o o o o i ' p { q ^ r r ",
"s * p t u v w r r w w v u g x * y ! ! ",
"c 5 z . A ; B + C z B D 9 - E 5 c , , ",
"F 5 C G . A D B + = D . 4 3 6 5 c , , ",
"H * p I { G - . . . - { | I x * H ! ! ",
"J q n K L I M { { { | I L K | * J N N ",
"O P m % e Q K L L K K Q e % { q J r r ",
"b j R r # % % S S S % T # r U j b V V ",
"} u F b u v v w w w v ! u / c ' O S S ",
"3 a v 7 1 1 J J J J J 1 1 7 u 0 { W W ",
"x X u w Y r r V V V r r Y N u 4 x E E ",
"L L L L L L L L L L L L L L L L L L L ",
". . . . . . . . . . . . . . . . . . . ",
"{ L Z f j P P * * P P P j c Z x G - - ",
"Q `  .~ ^ ^ ..s s ..^ ^ ~ +.@.` K { { ",
"#.$.^ + x L E E E E E L I z ^ %.` | | ",
"&.Z } f P q @ @ @ @ q P f c b Z *.6 6 ",
"%.#.k c *.@.@.=.=.=.@.&.*.H H #.=.e e ",
"-.;.w F @.>.,.,.,.,.,.>.@.H j &.'.k k ",
").%., 1 =.,.,.,.,.,.,.,.@.O q =.).r r ",
"!.-.O O =.-.).).).).-.$.=./ 5 -.!.! ! ",
"*.).c d ~ s ~.*.*.` y {.+.5 +.).*., , ",
"*.).c ~ {.~.` &.@.*.~.s ~ +.+.).*., , ",
"` -.O {.].` *.&.&.*.` ~.s ~ 5 -.` ! ! ",
"~.-./ s ~.` *.&.&.*.#.~.].{.* %.y N N ",
"Z =.) ].~.` *.*.*.*.#.~.y {.P ;.s r r ",
"^ &.I ].~.` *.*.*.*.` ` y ].f &.~ V V ",
"~ ~ &.` ` #.*.&.&.*.*.` ` ` *.~ ~ S S ",
"u > ~ #.&.&.;.;.;.;.;.&.&.#.> > v W W ",
"S w 5 5 > ~ ~ ~ ~ ~ ~ > > ] 5 Y S E E ",
"L L L L L L L L L L L L L L L L L L L ",
". . . . . . . . . . . . . . . . . . . "};
