/* XPM */
static char * icewm_xpm[] = {
"54 16 298 2",
"  	c None",
". 	c #FFFFFF",
"+ 	c #F5F7FC",
"@ 	c #BECBED",
"# 	c #819FE0",
"$ 	c #5284D9",
"% 	c #2B76D7",
"& 	c #2B76D6",
"* 	c #2B77D7",
"= 	c #2A76D6",
"- 	c #2A76D7",
"; 	c #829FE0",
"> 	c #C8D3F0",
", 	c #427AD4",
"' 	c #1B6BCC",
") 	c #1A65C0",
"! 	c #1962BB",
"~ 	c #1961B9",
"{ 	c #1A65C1",
"] 	c #3F79D4",
"^ 	c #C8D3EF",
"/ 	c #B1C1E9",
"( 	c #1B6CCE",
"_ 	c #1963BD",
": 	c #185DB1",
"< 	c #175CAF",
"[ 	c #2559A1",
"} 	c #7288B6",
"| 	c #8599BF",
"1 	c #647DB0",
"2 	c #1155A4",
"3 	c #1B6CCF",
"4 	c #B2C1E9",
"5 	c #D1D9F1",
"6 	c #1A6BCD",
"7 	c #1961B8",
"8 	c #185DB2",
"9 	c #1A5BAC",
"0 	c #ABB6CF",
"a 	c #F1F4FA",
"b 	c #F3F6FD",
"c 	c #E9EFFB",
"d 	c #F7F9FE",
"e 	c #E5EAF3",
"f 	c #8698BE",
"g 	c #185CAF",
"h 	c #196BCD",
"i 	c #D1DAF1",
"j 	c #FBFCFE",
"k 	c #507FD2",
"l 	c #1963BE",
"m 	c #185EB2",
"n 	c #175BAE",
"o 	c #185EB3",
"p 	c #165CB0",
"q 	c #C5CEE2",
"r 	c #F3F7FD",
"s 	c #9BB6EB",
"t 	c #2E7ADB",
"u 	c #2977D9",
"v 	c #4785DE",
"w 	c #BBCDF1",
"x 	c #F8FBFE",
"y 	c #98A8CB",
"z 	c #1964BE",
"A 	c #4F7FD2",
"B 	c #D0D8F0",
"C 	c #1B69C8",
"D 	c #4C72B6",
"E 	c #C0C8DB",
"F 	c #D2DAE9",
"G 	c #B6C0D7",
"H 	c #2963B3",
"I 	c #C5CDDF",
"J 	c #CDD2E0",
"K 	c #CCD2E0",
"L 	c #B6C1DC",
"M 	c #8498C5",
"N 	c #C5CDDE",
"O 	c #1A5FB3",
"P 	c #8096C6",
"Q 	c #C1C9DB",
"R 	c #627FB9",
"S 	c #A7B5D6",
"T 	c #CBD1DF",
"U 	c #3368B7",
"V 	c #90A4CF",
"W 	c #FAFCFE",
"X 	c #89A8E2",
"Y 	c #1B6BCD",
"Z 	c #1E6DCE",
"` 	c #BBCCEE",
" .	c #F5F8FD",
"..	c #4F76BA",
"+.	c #A2B5E1",
"@.	c #C9D2E8",
"#.	c #D4DBED",
"$.	c #7D97CC",
"%.	c #E0E7F4",
"&.	c #AEBDDD",
"*.	c #859DCF",
"=.	c #A0B2D9",
"-.	c #8DA4D3",
";.	c #7C96CC",
">.	c #D2DAEB",
",.	c #F9FBFE",
"'.	c #889DCB",
").	c #A0B0D6",
"!.	c #E8EEF8",
"~.	c #8AA0D0",
"{.	c #C7D1E9",
"].	c #E1E8F4",
"^.	c #728EC9",
"/.	c #8AA0CF",
"(.	c #F4F8FE",
"_.	c #ACBCE0",
":.	c #899FCF",
"<.	c #2663B5",
"[.	c #D8DFF0",
"}.	c #D8E1F4",
"|.	c #1A66C3",
"1.	c #1A66C2",
"2.	c #8CA3D2",
"3.	c #4372BF",
"4.	c #3F75C9",
"5.	c #ADBCDC",
"6.	c #829CD7",
"7.	c #B8C5E3",
"8.	c #E6EAF3",
"9.	c #8FA0C7",
"0.	c #2C66B4",
"a.	c #1962B9",
"b.	c #6485C4",
"c.	c #FBFDFF",
"d.	c #2367BA",
"e.	c #4B74BA",
"f.	c #B7C6E5",
"g.	c #CDD5E8",
"h.	c #E0E6F4",
"i.	c #0F54A4",
"j.	c #98A8CF",
"k.	c #EAEFFA",
"l.	c #155DB3",
"m.	c #0E5CB2",
"n.	c #F1F6FD",
"o.	c #7F98CF",
"p.	c #B4C3E2",
"q.	c #185FB6",
"r.	c #1860B6",
"s.	c #CBD7EE",
"t.	c #F1F5FA",
"u.	c #A4B4D7",
"v.	c #2664B8",
"w.	c #DDE5F4",
"x.	c #CED7EB",
"y.	c #829BD6",
"z.	c #1962BA",
"A.	c #2562B5",
"B.	c #A2B3D9",
"C.	c #DFE6F5",
"D.	c #EBF0F7",
"E.	c #6C87BE",
"F.	c #ABB9D9",
"G.	c #D4DBEC",
"H.	c #597AB7",
"I.	c #F6F9FE",
"J.	c #426EB7",
"K.	c #9FB0D6",
"L.	c #F9FCFE",
"M.	c #EDF3FD",
"N.	c #889FD0",
"O.	c #0F5CB3",
"P.	c #F4F7FD",
"Q.	c #B5C2DE",
"R.	c #1658A8",
"S.	c #1658A7",
"T.	c #CCD6EC",
"U.	c #F1F5FB",
"V.	c #A2B2D5",
"W.	c #275EAB",
"X.	c #DDE4F2",
"Y.	c #A2B4DE",
"Z.	c #1963BC",
"`.	c #175DB2",
" +	c #B9C4DC",
".+	c #7E94C2",
"++	c #145BAF",
"@+	c #CFD7E9",
"#+	c #BECAE5",
"$+	c #6385C3",
"%+	c #2366B9",
"&+	c #175DB1",
"*+	c #E3E8F4",
"=+	c #F0F5FD",
"-+	c #A3B2D6",
";+	c #E0E7F6",
">+	c #4272BE",
",+	c #8B9FCB",
"'+	c #0F5CB2",
")+	c #D7DFF1",
"!+	c #DBE2F1",
"~+	c #14539F",
"{+	c #15539F",
"]+	c #899FCC",
"^+	c #4068AB",
"/+	c #456BAD",
"(+	c #ACBCDE",
"_+	c #CFD7ED",
":+	c #1A64BF",
"<+	c #A1B2DA",
"[+	c #EEF2FA",
"}+	c #D6DCE9",
"|+	c #F2F6FC",
"1+	c #879ECF",
"2+	c #708CC4",
"3+	c #4070BD",
"4+	c #155EB4",
"5+	c #ABBBDD",
"6+	c #DDE4F1",
"7+	c #E3E8F3",
"8+	c #1D5FB2",
"9+	c #0F5BB1",
"0+	c #F0F6FD",
"a+	c #8FA5D2",
"b+	c #FCFDFF",
"c+	c #9FAFCF",
"d+	c #144F96",
"e+	c #144F97",
"f+	c #1C539A",
"g+	c #CCD5E8",
"h+	c #F4F8FD",
"i+	c #4E77BD",
"j+	c #1A64BE",
"k+	c #D0D7ED",
"l+	c #FBFBFE",
"m+	c #4E7AC6",
"n+	c #185DB0",
"o+	c #4774BC",
"p+	c #7691C7",
"q+	c #4773BC",
"r+	c #2C64B4",
"s+	c #6686C3",
"t+	c #426FBA",
"u+	c #5E81C1",
"v+	c #3869B6",
"w+	c #6586C3",
"x+	c #426FB9",
"y+	c #5B7FC1",
"z+	c #2F65B5",
"A+	c #2763B4",
"B+	c #175CB0",
"C+	c #6184C3",
"D+	c #3468B7",
"E+	c #165DB1",
"F+	c #C4CFE8",
"G+	c #FBFCFF",
"H+	c #C4CDE1",
"I+	c #798CB5",
"J+	c #6179A9",
"K+	c #8B9BBE",
"L+	c #D9E0EE",
"M+	c #96A9D4",
"N+	c #4E79C6",
"O+	c #FAFBFE",
"P+	c #D0D8EC",
"Q+	c #1760B8",
"R+	c #175AAD",
"S+	c #175BAD",
"T+	c #175AAC",
"U+	c #1B5DAF",
"V+	c #A9B8DB",
"W+	c #F0F4FB",
"X+	c #E4EAF6",
"Y+	c #849BCB",
"Z+	c #D0D7EC",
"`+	c #B0BDDE",
" @	c #175AAB",
".@	c #245FAD",
"+@	c #718DC4",
"@@	c #859CCA",
"#@	c #6282BE",
"$@	c #1459AA",
"%@	c #C7CFE5",
"&@	c #3A67B0",
"*@	c #1657A6",
"=@	c #1656A3",
"-@	c #1655A2",
";@	c #1555A1",
">@	c #1655A1",
",@	c #3C67AF",
"'@	c #F5F6FA",
")@	c #BDC5DB",
"!@	c #7F92BE",
"~@	c #4C6FAD",
"{@	c #1A5AAA",
"]@	c #195AAA",
"^@	c #4A6EAD",
"/@	c #BDC5DC",
". . . . + @ # $ % % % % % % % % & & % % % * % % % % % % % % % = % % % % & & % % % % % % - % $ ; @ + . . . . ",
". . . > , ' ) ! ~ ~ ~ ~ ~ ~ ~ ~ ~ ~ ~ ~ ~ ~ ~ ~ ~ ~ ~ ~ ~ ~ ~ ~ ~ ~ ~ ~ ~ ~ ~ ~ ~ ~ ~ ~ ~ ~ ! { ' ] ^ . . . ",
". . / ( _ : : : : : : : : : : : : : : : : : : : : : : : : : : : : : : : : : : : : : < [ } | 1 2 : _ 3 4 . . ",
". 5 6 7 : 8 : : : : : : : : : : 8 8 : : 8 : : : : : : 8 : : : : : : : : : : 8 : : 9 0 a b c d e f g 7 h i . ",
"j k l 8 m m m m m m 8 n 8 8 o o o o m m 8 o m m m o m o m m m o m m m m m m 8 8 p q r s t u v w x y 8 z A j ",
"B C m m m m m m m D E F G H I J K K L o M N O o P K K Q R S J J J T U m m m m o V W X ' Y Y ' Z `  ...o C B ",
"+.) 8 8 8 8 8 8 8 @.#.$.%.&.*.=.W -.;.m >.,.'.8 ).!.~.{.].^./.(._.:.<.8 8 8 8 8 [.}.|.1.2.3.1.1.4. .5.8 ) +.",
"6.! 8 : : : : : 8 7.8.9.0.a.8 b.c.d.8 e.(.f.g.8 ).h.i.j.k.l.m.n.o.8 8 : : : : o r p.q.r.s.t.u.v.q.w.x.m ! 6.",
"y.z.8 8 8 8 8 8 8 A.B.C.D.E.m b.c.d.8 F.G.H.I.J.K.L.M.x N.8 O.n.o.8 8 8 8 8 : o P.Q.R.S.T.U.V.W.R.X.x.8 z.y.",
"Y.Z.: 8 8 8 8 : `. +.+++@+#+: $+c.%+&+*+r =+W -+K.;+>+U.,+8 '+n.o.: 8 8 8 8 : : )+!+~+{+]+^+{+{+/+d (+8 Z.Y.",
"_+:+: : : : : : : <+[+}+|+1+: b.W d.2+I.3+4+5+6+K.C.: 5+7+8+9+0+o.: : : : : : : a+b+c+d+e+e+e+f+g+h+i+: j+k+",
"l+m+r.: n+: : : : : o+p+q+: n+r+s+O t+u+: n+v+w+x+y+: z+s+A+B+C+D+n+: : : : : : E+F+G+H+I+J+K+L+,.M+: r.N+O+",
". P+Q+< R+S+T+R+S+S+S+S+S+S+S+S+S+S+S+S+S+S+S+S+S+S+S+S+S+S+R+S+R+S+S+S+S+S+S+S+S+U+V+W+b+b+b+X+Y+S+< Q+Z+. ",
". . `+B+ @R.R.R.R.R.R.R.R.R.R.R.R.R.R.R.R.R.R.R.R.R.R.R.R.R.R.R.R.R.R.R.R.R.R.R.R.R.R..@+@@@#@$@R. @&+`+. . ",
". . . %@&@*@=@-@-@-@-@-@-@-@-@-@-@-@-@-@-@-@-@-@-@-@-@-@-@-@-@-@-@-@-@-@-@-@-@-@-@-@-@;@-@>@-@=@*@,@%@. . . ",
". . . . '@)@!@~@{@]@]@]@]@]@]@]@]@]@]@]@]@]@]@]@]@]@]@]@]@]@]@]@]@]@]@]@]@]@]@]@]@]@]@]@]@]@^@!@/@'@. . . . "};
