/* XPM */
static char * icewm_32_xpm[] = {
"107 32 664 2",
"  	c None",
". 	c #FFFFFF",
"+ 	c #E8EEFA",
"@ 	c #BFCEF0",
"# 	c #93AEE6",
"$ 	c #799ADF",
"% 	c #4081DB",
"& 	c #337CDA",
"* 	c #337CDB",
"= 	c #327CDA",
"- 	c #327BDA",
"; 	c #337BDA",
"> 	c #337BD9",
", 	c #327CDB",
"' 	c #779AE0",
") 	c #93ADE6",
"! 	c #C0CEF0",
"~ 	c #FDFDFF",
"{ 	c #C9D6F2",
"] 	c #7297DF",
"^ 	c #166ED4",
"/ 	c #1C6ED2",
"( 	c #1C6FD3",
"_ 	c #1C6FD2",
": 	c #1C6FD4",
"< 	c #1C6ED3",
"[ 	c #166FD5",
"} 	c #7097E0",
"| 	c #DDE5F7",
"1 	c #6E94DE",
"2 	c #1B6ED2",
"3 	c #1C6ED1",
"4 	c #1B6BCC",
"5 	c #1A68C5",
"6 	c #1A66C2",
"7 	c #1A65C1",
"8 	c #1A65C0",
"9 	c #1B6BCB",
"0 	c #1C6DD0",
"a 	c #6A92DE",
"b 	c #DCE4F7",
"c 	c #FEFEFF",
"d 	c #B4C5ED",
"e 	c #1E70D3",
"f 	c #1C6DD1",
"g 	c #1964BE",
"h 	c #185DB2",
"i 	c #175CAF",
"j 	c #185CB0",
"k 	c #175CB0",
"l 	c #185DB0",
"m 	c #185CB1",
"n 	c #185DB1",
"o 	c #185EB2",
"p 	c #1F70D3",
"q 	c #B8C8ED",
"r 	c #9FB5E7",
"s 	c #1A6ED2",
"t 	c #1C6CCD",
"u 	c #1962BC",
"v 	c #175BAE",
"w 	c #1655A3",
"x 	c #144F97",
"y 	c #134D93",
"z 	c #144E94",
"A 	c #15519B",
"B 	c #1657A6",
"C 	c #1963BC",
"D 	c #1C6CCF",
"E 	c #1A6DD0",
"F 	c #A2B8E8",
"G 	c #1A6DD1",
"H 	c #1C6CCE",
"I 	c #1B69C9",
"J 	c #185EB4",
"K 	c #175AAC",
"L 	c #335991",
"M 	c #8697BA",
"N 	c #ABB7D3",
"O 	c #B7C4DA",
"P 	c #B5C2D9",
"Q 	c #A8B4CE",
"R 	c #778BB2",
"S 	c #134C8D",
"T 	c #155099",
"U 	c #1B6AC9",
"V 	c #1C6DCF",
"W 	c #A2B8E7",
"X 	c #C6D2F0",
"Y 	c #176CD0",
"Z 	c #1B6CCE",
"` 	c #1A68C6",
" .	c #1554A0",
"..	c #5572A6",
"+.	c #C1CCE2",
"@.	c #F3F7FD",
"#.	c #FDFEFF",
"$.	c #FCFDFF",
"%.	c #FBFDFF",
"&.	c #ECF2FA",
"*.	c #AFBCD7",
"=.	c #365D9A",
"-.	c #1657A7",
";.	c #1B68C7",
">.	c #166CCF",
",.	c #C7D3F0",
"'.	c #EDF1FB",
").	c #3B77D3",
"!.	c #1B6CCD",
"~.	c #185EB3",
"{.	c #12529E",
"].	c #9DAECF",
"^.	c #F8FBFE",
"/.	c #DFE9F9",
"(.	c #CDDCF6",
"_.	c #D0DEF7",
":.	c #E4ECFA",
"<.	c #EAF0F9",
"[.	c #7C91BC",
"}.	c #1657A5",
"|.	c #1B69C8",
"1.	c #3977D2",
"2.	c #ECF1FB",
"3.	c #97AEE3",
"4.	c #1860B6",
"5.	c #1256A4",
"6.	c #B5C3DE",
"7.	c #FAFCFE",
"8.	c #F2F6FD",
"9.	c #B4CCF3",
"0.	c #5693E6",
"a.	c #3882E0",
"b.	c #307DDE",
"c.	c #307DDF",
"d.	c #3B84E1",
"e.	c #6B9FE8",
"f.	c #C5D8F5",
"g.	c #F7FAFE",
"h.	c #F6F9FE",
"i.	c #8EA2C8",
"j.	c #1659AA",
"k.	c #1860B7",
"l.	c #1B6BCD",
"m.	c #95ADE3",
"n.	c #E9EEFA",
"o.	c #0D6BCE",
"p.	c #1A64BF",
"q.	c #1759AA",
"r.	c #165BAE",
"s.	c #A0B3D5",
"t.	c #FAFCFF",
"u.	c #E7EFFB",
"v.	c #75A4E8",
"w.	c #2A77D9",
"x.	c #1C70D5",
"y.	c #337CDC",
"z.	c #94B7ED",
"A.	c #F2F7FD",
"B.	c #7790C0",
"C.	c #1B6ACB",
"D.	c #0E6BCE",
"E.	c #AABCE7",
"F.	c #1B6ACA",
"G.	c #1457A7",
"H.	c #456AA7",
"I.	c #91A2C5",
"J.	c #A3B3D1",
"K.	c #96A9CC",
"L.	c #617DB0",
"M.	c #1055A3",
"N.	c #3669B7",
"O.	c #8B9CBE",
"P.	c #8E9EBF",
"Q.	c #8E9DBE",
"R.	c #8D9DBF",
"S.	c #8D9DBE",
"T.	c #8F9EBE",
"U.	c #8E9EBE",
"V.	c #4A73B9",
"W.	c #1E5EB0",
"X.	c #8799BD",
"Y.	c #5174B3",
"Z.	c #4270B7",
"`.	c #8F9EBF",
" +	c #8899BA",
".+	c #5C7BB0",
"++	c #1C559D",
"@+	c #125EB5",
"#+	c #8598BD",
"$+	c #8C9DBE",
"%+	c #6180B9",
"&+	c #5F81BD",
"*+	c #EEF4FD",
"=+	c #6F9DE4",
"-+	c #1B6ED1",
";+	c #2170D2",
">+	c #94B6EC",
",+	c #F8FAFE",
"'+	c #FCFEFF",
")+	c #E4EBF8",
"!+	c #2C63B1",
"~+	c #5283D5",
"{+	c #155AAD",
"]+	c #A7B7D5",
"^+	c #F5F9FE",
"/+	c #C4D0E6",
"(+	c #2760AC",
"_+	c #5D83C8",
":+	c #F9FBFF",
"<+	c #FBFCFF",
"[+	c #839ED6",
"}+	c #708DC6",
"|+	c #BAC8E2",
"1+	c #175DB3",
"2+	c #7495CF",
"3+	c #DFE7F4",
"4+	c #6C85B6",
"5+	c #0060BB",
"6+	c #EBF1FC",
"7+	c #ACBEE0",
"8+	c #125CB1",
"9+	c #C9D4EB",
"0+	c #9FBCEC",
"a+	c #1A6BCC",
"b+	c #236FCF",
"c+	c #C2D5F4",
"d+	c #A2B4D8",
"e+	c #5383D5",
"f+	c #1369CA",
"g+	c #1961B9",
"h+	c #809BCE",
"i+	c #CAD6EF",
"j+	c #9FB4DF",
"k+	c #B8C8E8",
"l+	c #B1C0DF",
"m+	c #4474C1",
"n+	c #BAC9E8",
"o+	c #BBC9E8",
"p+	c #E3EAF8",
"q+	c #E9F0FA",
"r+	c #BCCAE8",
"s+	c #6287CB",
"t+	c #175EB3",
"u+	c #BBC9E3",
"v+	c #EEF3FC",
"w+	c #2963B2",
"x+	c #185DB3",
"y+	c #7596CF",
"z+	c #C3D1ED",
"A+	c #B7C7E7",
"B+	c #C2D0ED",
"C+	c #F1F5FC",
"D+	c #E9EFF9",
"E+	c #2B67BA",
"F+	c #AFC1E5",
"G+	c #BBCAE8",
"H+	c #D7E1F3",
"I+	c #F7F9FE",
"J+	c #BBCAEA",
"K+	c #BBC9E7",
"L+	c #BAC9E7",
"M+	c #7F9BD0",
"N+	c #4875BF",
"O+	c #E3EDFB",
"P+	c #3374CD",
"Q+	c #1A67C3",
"R+	c #1A67C5",
"S+	c #1A67C4",
"T+	c #316FC5",
"U+	c #3462A7",
"V+	c #608DD7",
"W+	c #E0E9F8",
"X+	c #115DB3",
"Y+	c #CBD7F1",
"Z+	c #185FB5",
"`+	c #E3EAF5",
" @	c #165FB5",
".@	c #B2C5E7",
"+@	c #0A5EB7",
"@@	c #BECEEC",
"#@	c #CFDCF4",
"$@	c #135CB2",
"%@	c #2964B4",
"&@	c #EDF3FB",
"*@	c #8AA2CF",
"=@	c #7495CE",
"-@	c #4577C7",
";@	c #7797D1",
">@	c #7897D0",
",@	c #A2B6DC",
"'@	c #005FBB",
")@	c #93ABD8",
"!@	c #AFC4EA",
"~@	c #1965C0",
"{@	c #608CD5",
"]@	c #E6EDF9",
"^@	c #95A7CA",
"/@	c #165CAF",
"(@	c #1464C2",
"_@	c #D4E0F6",
":@	c #F9FBFE",
"<@	c #5B83C6",
"[@	c #CCD7F1",
"}@	c #BBC8EB",
"|@	c #AABDE1",
"1@	c #FBFDFE",
"2@	c #6D86B6",
"3@	c #13539F",
"4@	c #175BAD",
"5@	c #2A69BE",
"6@	c #3E75C5",
"7@	c #3B73C5",
"8@	c #BFCFEC",
"9@	c #FEFFFF",
"0@	c #CFDDF4",
"a@	c #8DA3CF",
"b@	c #E2EBF9",
"c@	c #AFC2E7",
"d@	c #CDD7EC",
"e@	c #7395CE",
"f@	c #3368B9",
"g@	c #F8FBFF",
"h@	c #87A1D3",
"i@	c #A1B5DC",
"j@	c #F0F4FD",
"k@	c #BAC8E6",
"l@	c #83A0D8",
"m@	c #608BD1",
"n@	c #D8E1F3",
"o@	c #728EC3",
"p@	c #165DB2",
"q@	c #1962BA",
"r@	c #AEC1E7",
"s@	c #89A4D7",
"t@	c #BAC5E6",
"u@	c #1A66C3",
"v@	c #4C78C1",
"w@	c #E9F0FB",
"x@	c #D0DAED",
"y@	c #97A8CA",
"z@	c #3660A1",
"A@	c #BFCEEC",
"B@	c #CED8ED",
"C@	c #B3C4E7",
"D@	c #658ACB",
"E@	c #4772B8",
"F@	c #446DB4",
"G@	c #145099",
"H@	c #135099",
"I@	c #A1B3D4",
"J@	c #F6FAFE",
"K@	c #547FC6",
"L@	c #A0B5DC",
"M@	c #EFF4FC",
"N@	c #005EBA",
"O@	c #C5D3EF",
"P@	c #5985CA",
"Q@	c #5F88CD",
"R@	c #F9FCFE",
"S@	c #C1CFE9",
"T@	c #4A76BD",
"U@	c #95ADDB",
"V@	c #9FB4DD",
"W@	c #577FC5",
"X@	c #C9D7F0",
"Y@	c #9DADCE",
"Z@	c #1459AA",
"`@	c #4773B9",
" #	c #6F90CC",
".#	c #0B5EB6",
"+#	c #DEE8F8",
"@#	c #A2B4DA",
"##	c #E4ECFB",
"$#	c #EAF2FC",
"%#	c #FBFCFE",
"&#	c #B0C3E6",
"*#	c #145DB3",
"=#	c #EFF4FD",
"-#	c #175DB1",
";#	c #C6D4EF",
">#	c #5A84C6",
",#	c #175AAB",
"'#	c #5E86C9",
")#	c #BFCFEB",
"!#	c #4C77BD",
"~#	c #97ADD8",
"{#	c #9EB3DD",
"]#	c #BBC8EA",
"^#	c #155CB2",
"/#	c #5C84C8",
"(#	c #A7BBE2",
"_#	c #9CAED2",
":#	c #A2B4D9",
"<#	c #E8EEF9",
"[#	c #305EA2",
"}#	c #325C9C",
"|#	c #B5C2DD",
"1#	c #155CB1",
"2#	c #7496CF",
"3#	c #F4F8FD",
"4#	c #AEBFE0",
"5#	c #125EB6",
"6#	c #A0B4DC",
"7#	c #005EBB",
"8#	c #BDCAE7",
"9#	c #839CCC",
"0#	c #1656A4",
"a#	c #5D84C5",
"b#	c #D7E1F4",
"c#	c #6F8EC7",
"d#	c #1456A5",
"e#	c #ADBFE2",
"f#	c #8AA5D7",
"g#	c #CBD6F0",
"h#	c #185FB4",
"i#	c #1C60B5",
"j#	c #899BC0",
"k#	c #93A1C0",
"l#	c #5A7BB8",
"m#	c #2365B9",
"n#	c #CBD7EF",
"o#	c #DFE7F7",
"p#	c #095DB5",
"q#	c #BECEEB",
"r#	c #D0DDF4",
"s#	c #135CB1",
"t#	c #155CB0",
"u#	c #DBE4F4",
"v#	c #F5F9FF",
"w#	c #F4F9FF",
"x#	c #F9FCFF",
"y#	c #6788C5",
"z#	c #4F83D0",
"A#	c #286CBE",
"B#	c #D0DCF2",
"C#	c #DDE4F3",
"D#	c #155BAE",
"E#	c #91AAD9",
"F#	c #B4C5E4",
"G#	c #1554A1",
"H#	c #5B82C3",
"I#	c #90A8D4",
"J#	c #1458A6",
"K#	c #1655A1",
"L#	c #0953A2",
"M#	c #DAE3F4",
"N#	c #5B83C8",
"O#	c #CCD7EF",
"P#	c #1265C3",
"Q#	c #185FB6",
"R#	c #135FB5",
"S#	c #DFE8F8",
"T#	c #BECAE2",
"U#	c #1154A2",
"V#	c #1658A8",
"W#	c #ABBBD9",
"X#	c #E6EEFB",
"Y#	c #0F61B8",
"Z#	c #E6EDFB",
"`#	c #E5EDFB",
" $	c #B9C6E1",
".$	c #4477C7",
"+$	c #6F90CD",
"@$	c #8CA2CD",
"#$	c #9FB4DC",
"$$	c #005EB9",
"%$	c #4A78C2",
"&$	c #ECF2FB",
"*$	c #3867AD",
"=$	c #15529D",
"-$	c #2B62AC",
";$	c #3464AA",
">$	c #15529C",
",$	c #15539E",
"'$	c #6D8CC3",
")$	c #DFE8F9",
"!$	c #1960B7",
"~$	c #1264C2",
"{$	c #507FCE",
"]$	c #1962BB",
"^$	c #A0B5DF",
"/$	c #C3CFE4",
"($	c #A2B0D0",
"_$	c #B2BFDA",
":$	c #F2F6FC",
"<$	c #C6D4EE",
"[$	c #135DB3",
"}$	c #B8C6E0",
"|$	c #FCFDFE",
"1$	c #005DB9",
"2$	c #005DB8",
"3$	c #ADBFE4",
"4$	c #EBF1FB",
"5$	c #1F60B2",
"6$	c #C9D7EF",
"7$	c #E2E9F6",
"8$	c #235FAE",
"9$	c #125CB2",
"0$	c #C7D4EE",
"a$	c #B8C7E5",
"b$	c #11519B",
"c$	c #145199",
"d$	c #15519A",
"e$	c #255AA2",
"f$	c #D8E2F3",
"g$	c #A1B6DF",
"h$	c #A9BAE2",
"i$	c #1A64BE",
"j$	c #1A60B5",
"k$	c #A8BCE3",
"l$	c #F3F7FE",
"m$	c #D5E0F4",
"n$	c #4976BF",
"o$	c #CDDBF3",
"p$	c #2262B4",
"q$	c #E7EEFA",
"r$	c #B2C3E6",
"s$	c #6087CA",
"t$	c #87A0D1",
"u$	c #7194CE",
"v$	c #4476C6",
"w$	c #698CCC",
"x$	c #97ACD5",
"y$	c #9FB4DB",
"z$	c #175DB0",
"A$	c #5E85C8",
"B$	c #F3F8FD",
"C$	c #A2B5D7",
"D$	c #0C4D96",
"E$	c #144E95",
"F$	c #1E569E",
"G$	c #C4D1EB",
"H$	c #E3EBF9",
"I$	c #2C68BB",
"J$	c #1964BF",
"K$	c #A9BAE3",
"L$	c #E9EEF9",
"M$	c #0964C1",
"N$	c #1963BD",
"O$	c #1960B8",
"P$	c #165DB1",
"Q$	c #4073C0",
"R$	c #87A3D6",
"S$	c #A2B7DD",
"T$	c #97B0DC",
"U$	c #6D8FCD",
"V$	c #1F60B4",
"W$	c #6387C8",
"X$	c #839DD2",
"Y$	c #6B8ECC",
"Z$	c #175DB2",
"`$	c #366BBA",
" %	c #809CD3",
".%	c #829DD1",
"+%	c #145DB2",
"@%	c #7E9AD0",
"#%	c #839DD3",
"$%	c #5E84C6",
"%%	c #3E70BC",
"&%	c #819CD1",
"*%	c #2765BA",
"=%	c #7594D0",
"-%	c #829DD2",
";%	c #6A8DCC",
">%	c #175CB1",
",%	c #577EC2",
"'%	c #819CD2",
")%	c #7997D0",
"!%	c #125DB4",
"~%	c #C0CDE6",
"{%	c #3F67A7",
"]%	c #134B8F",
"^%	c #134A8D",
"/%	c #134B8E",
"(%	c #134A8E",
"_%	c #114A8E",
":%	c #5E7DB3",
"<%	c #D6DFF0",
"[%	c #F4F8FE",
"}%	c #7493CF",
"|%	c #1963BE",
"1%	c #0A63C0",
"2%	c #E9EDF9",
"3%	c #95AADB",
"4%	c #185CAF",
"5%	c #155EB3",
"6%	c #B1C4E8",
"7%	c #F1F6FD",
"8%	c #C2CEE5",
"9%	c #97A9CA",
"0%	c #7B91C0",
"a%	c #7D93C1",
"b%	c #9EAFCF",
"c%	c #CDD8EC",
"d%	c #8CA6D7",
"e%	c #94AADC",
"f%	c #ECF0FA",
"g%	c #386EC1",
"h%	c #175CAE",
"i%	c #9BB2DD",
"j%	c #E5EDFA",
"k%	c #7B98D0",
"l%	c #175BAF",
"m%	c #386EC2",
"n%	c #C5D0EA",
"o%	c #135FB7",
"p%	c #175AAD",
"q%	c #175BAC",
"r%	c #527CC1",
"s%	c #BECDEA",
"t%	c #EAF1FB",
"u%	c #ACBFE3",
"v%	c #396CB9",
"w%	c #1460B8",
"x%	c #C4CFEA",
"y%	c #A0B3DD",
"z%	c #155EB4",
"A%	c #1759A9",
"B%	c #1559AA",
"C%	c #346AB7",
"D%	c #839ED0",
"E%	c #A7BAE0",
"F%	c #B5C6E4",
"G%	c #B3C4E4",
"H%	c #A4B6DD",
"I%	c #7593CB",
"J%	c #2061B2",
"K%	c #9DAEDA",
"L%	c #1658A7",
"M%	c #1758A8",
"N%	c #9DAFDB",
"O%	c #B3C1E2",
"P%	c #145CAF",
"Q%	c #1655A2",
"R%	c #1655A4",
"S%	c #1656A3",
"T%	c #1555A1",
"U%	c #1759AB",
"V%	c #155CAF",
"W%	c #B4C1E2",
"X%	c #DBE2F2",
"Y%	c #6484C0",
"Z%	c #1557A5",
"`%	c #1656A5",
" &	c #1556A5",
".&	c #6785C0",
"+&	c #DCE2F2",
"@&	c #C7D1E8",
"#&	c #6D88BF",
"$&	c #0D53A1",
"%&	c #15549F",
"&&	c #15539F",
"*&	c #E6EBF6",
"=&	c #BDC7E0",
"-&	c #8FA2CC",
";&	c #7189B8",
">&	c #2D67B2",
",&	c #1C5FB0",
"'&	c #1B5EB1",
")&	c #1B5EB0",
"!&	c #1A5EB0",
"~&	c #1C5FB1",
"{&	c #6F88B9",
"]&	c #8FA2CB",
". . . . . . . . . . . + @ # $ % & * * & = * = * - * = & & & ; ; ; ; & ; * * & * - * * * * ; & > & & * & - & ; , * - - & & - - * * & & * * * & & & ; & & & & & & & * & & & & - & - & , % ' ) ! + . . . . . . . . . . . ",
". . . . . . . . ~ { ] ^ / / ( _ ( ( ( ( ( ( ( / ( / ( ( / / / / / / / / ( ( ( ( : ( ( ( ( ( / / / ( ( ( ( _ / ( ( ( ( ( ( / / ( ( ( ( ( ( / / ( / / ( / / / ( ( ( ( ( ( / ( ( ( < / ( ( / / / [ } { ~ . . . . . . . . ",
". . . . . . . | 1 2 3 / 3 4 5 6 7 7 7 7 7 7 7 7 7 7 7 7 7 7 7 7 7 7 7 7 7 7 7 8 7 7 7 7 7 7 7 7 7 7 7 7 7 7 7 7 7 7 7 7 7 7 7 7 7 7 7 7 7 7 7 7 7 7 7 7 7 7 7 7 7 7 8 8 7 7 7 8 7 7 8 6 5 9 3 3 0 2 a b . . . . . . . ",
". . . . . c d e 0 f 9 g h i j k l l l l l j j j l l l l l l l l l l l l l l l l l l l l l l l l l l l l l l l l l l l l l l l l l l l l l l l l l l l l l l l l l l l l l m n l k k n i k k o g 9 0 0 p q c . . . . . ",
". . . . c r s 0 t u n n n n n n n n n n n n n n n n n n n n n n n n n n n n n n n n n n n n n n n n n n n n n n n n n n n n n n n n n n n n n n n n n n n n n n n n n l j n v w x y z A B j h n n C D 3 E r c . . . . ",
". . . c F G H I J n n n n n n n n n n n n n n n n n n n n n n n n n n n n n n n n n n n n n n n n n n n n n n n n n n n n n n n n n n n n n n n n n n n n n n n n n n n K y L M N O P Q R S T i h n J U V E W c . . . ",
". . . X Y Z ` o n n n n n n n n n n n n n n n n n n n n n n n n n n h n n n n n n n n h h n n n n n n n n n h n h n n n n n n h h n n n n n n n n n n n h n n n n h h  ...+.@.#.#.#.$.#.%.&.*.=.-.n n h ;.Z >.,.. . . ",
". . '.).!.I ~.n n h h h n n h h h h h h h h n h h n n m n n h h h h h h n h h h h h h h n n n h h h h h h h h h h n h h h h h n n h h n h h h h h h h h n h h h n h {.].@.$.#.^./.(._.:.%.$.%.<.[.}.h n ~.|.4 1.2.. . ",
". . 3.9 9 4.o h o o o h h h h o o o o h o o h h h h h o o h o o o o o o h o ~.o h o o o h h h o o o o o o o o o h ~.~.o o h o o o o o h ~.h h h h o h h h h h h ~.5.6.7.$.8.9.0.a.b.c.d.e.f.g.#.h.i.j.o o k.4 l.m.. . ",
". n.o.9 p.h h h o o o ~.~.~.~.~.~.o o ~.h v q.K h ~.o n n n n n n n n n j n o o o j n h o o o o h j n n n l o o o h j n n j h n n n n n o o o ~.o o o h h h n h r.s.t.$.u.v.w.: ( ( ( : x.y.z.A.#.g.B.h h o 8 C.D.n.. ",
". E.F.F.J o o o o o o o o o o o ~.o h G.H.I.J.K.L.M.~.N.O.P.Q.R.Q.S.T.U.U.V.o o W.X.U.Y.o o h h Z.S.Q.U.`. +.+++k @+#+S.Q.P.$+U.U.U.U.%+o o ~.o o o o o o o o h &+A.#.*+=+-+H V H D V V D Z ;+>+,+'+)+!+h ~.~.U F.E.. ",
"c ~+I 6 h h o ~.h o o o o o o o o ~.{+]+^+#.#.#.t./+(+_+:+#.c #.#.$.c %.<+[+~.~.}+%.%.|+1+o ~.h 2+<+$.#.$.$.$.3+4+5+6+#.#.#.#.#.c #.#.7+o ~.o ~.h o o o h o ~.8+9+$.%.0+a+F.U F.C.F.F.F.F.F.F.b+c+$.$.d+~.~.h 7 U e+c ",
"n.f+|.g+o o h h h o h n o h h h h ~.h+t.7.i+j+k+h.$.l+m+k+n+o+p+#.q+r+n+n+s+h t+u+$.#.v+w+~.x+h y+$.%.z+A+B+C+$.D+E+F+o+G+H+$.I+J+K+L+M+J ~.h h h h h h n n h N+g.c O+P+Q+R+S+T+U+p.R+R+R+S+S+R+V+h.$.W+X+h h g+I f+n.",
"Y+|.;.Z+h h n h h n h o h o n n h h K+$.`+ @h t+.@^./.+@o h ~.@@#.#@$@h h h h %@&@$.8.$.*@~.h x+=@$.^.-@h t+;@7.7.>@~.h ~.,@%.v+'@h ~.~.n h n n n n n o n n h )@~ c !@~@8 8 p.{@]@^@/@p.8 p.8 8 (@_@#.:@<@h h Z+;.|.[@",
"}@` R+o o o o o o o h h h h o o o h |@1@8.2@3@4@5@6@7@~.h h ~.8@9@0@$@h n o o a@$.b@c@#.d@t+h h e@#.^.-@h o f@g@$.h@~.o ~.i@c j@'@h h h h o h n n h h o h h o k@#.#.l@g+g+g+g+m@^.%.n@o@p@q@g+g+g+r@c #.s@~.o ~.S+` }@",
"t@R+u@n h h h h h h h h h h h h h ~.v@w@#.:@x@y@z@K o h o h ~.A@c #@$@~.o ~.~.B@$.C@D@^.g.E@~.o 2+$.t.F@G@H@I@#.J@K@h h o L@#.M@N@h h o h h h h h o h h h o 1+O@c 7.P@~.h ~.o Q@R@#.$.^.S@T@~.o h U@#.c V@~.o h u@R+t@",
"t@S+6 h h h h n h n n n h h h n h o h W@X@g.$.$.M@Y@Z@h o h ~.A@9@#@$@h h o `@J@^. #.#+#$.@#o h e@$.#.u.##$#<+%#&#*#n h o L@#.=#N@h n n n n n h h n n n n n -#;##.7.>#,#,#q.,#'#t.c $.g.)#!#,#,#,#~##.c {#h n n 6 S+t@",
"]#Q+6 ~.h h h h h h h h o o h h h h k k ^#/#(#b@%.<+_#~.o o ~.A@9@#@$@h n h :#$.<#[#}#|#c 3+1#~.2#%.$.3#A.%#$.4#5#~.o o o 6##.=#7#h h h h o h o h h h h h h h 8##.#.9#}.0#0#0#a#t.%.b#c#d#0#0#0#0#e##.#.f#h h h 6 u@}@",
"g#Q+6 h#n o o o o n o o o o n n h i#j#k#l#~.h m#n##.o#p#h h h q#c r#s#h h t#u#$.%.v#w#x##.%.y#h 2+$.7.z#A#B##.C#D#n h o h 6##.M@N@n h o o h o o o o o o o o h E#$.#.F# . . .G#H#:.I#J#K# . . . .L#M#c ^.N#o h ~.u@S+O#",
"n.P#6 Q#n n n h h n h h h n n n n R#S##.T#U#q.V#W#$.X#Y#n n -#q##.r#s#n n y#:@$.Z#`#Z#Z#h.~  $o y+%#^..$n +$^.%.@$~.n h n #$#.=#$$m n n n n h h h n n n n n n %$^+#.&$*$=$=$=$-$;$=$>$=$=$>$=$,$'$g.#.)$5#n h !$6 ~$n.",
"c {$7 ]$h n n n n n n n n h h h h h ^$1@R@/$($_$:$$.<$[$n n h q##.#@$@o o }$|$:.'@1$1$2$3$$.4$5$y+'+^.-@n ~.6$$.7$8$h n n #$#.=#N@h h h h h h n n n n h h h o 9$0$$.$.a$b$G@G@c$G@G@d$G@G@G@G@e$f$$.$.g$n n n ]$8 {$c ",
". h$i$p.n n n n n n n n n n n n l l j$k$l$%.$.$.7.m$n$n n n h A@%.o$s#h p$q$%.r$h n n n s$g.:@t$u$7.^+v$n n w$^+7.x$h h n y$%.v+$$n n n n n n n n n n n n n n z$A$B$#.7.C$D$z z E$z z z z E$F$G$%.#.H$I$l n o i$J$K$. ",
". L$M$N$O$n n n n n n n n n n n n n n P$Q$R$S$T$U$V$n n l n l W$X$Y$Z$n `$ %.%N+n n n n +%@%#%$%%%X$&%*%n n o =%-%;%>%l n ,%'%)%!%n n n n n n n n n n n n n n l Z$^$<+#.:@~%{%]%^%/%(%]%_%:%<%$.$.[%}%n n n k.|%1%2%. ",
". . 3%N$C h l l l l l n n n l l l n l l k 4%l l n n l j l j j j n l n l l j l n l l l n n n n j j j n k j j n j n l j j l k n j z$j l l l n l l l l l l l l l j l 5%6%:@$.~ 7%8%9%0%a%b%c%g.%.#.3#d%-#l j o C N$e%. . ",
". . f%g%g+!$h%v 4@4@4@4@4@4@4@4@4@v v v v 4@v v v 4@4@v v 4@v v v v v v 4@4@4@4@4@4@4@4@4@4@v h%v v v v v v 4@4@v 4@v v v v 4@4@4@v 4@4@4@4@4@4@4@4@4@4@4@4@4@4@v v t#i%8.#.c c $.<+$.$.c c 7.j%k%l%v v v O$g+m%f%. . ",
". . . n%o%k.~.p%K K K K K K K K K K K K K K K K K 4@K K K K K K K K K K K K K K K K K K p%K p%K K K K K K K K K K K K K K K K K K K K K K K K K K K K K K K K K K K K q%r%s%7%7.#.#.#.#.t.t%u%v%4@K K p%J 4.w%x%. . . ",
". . . c y%z%~.j A%A%A%A%A%A%A%A%A%A%A%A%A%A%A%A%A%A%A%A%A%A%A%A%A%A%A%A%A%A%A%A%A%A%A%A%A%A%A%A%A%A%A%A%A%A%A%A%A%A%A%A%A%A%A%A%A%A%A%A%A%A%A%A%A%A%A%A%A%A%A%A%A%A%A%A%q.B%C%D%E%F%G%H%I%J%A%A%A%A%q.n ~.5%y%c . . . ",
". . . . c K%t#v v A%B L%B -.L%L%L%L%L%L%L%L%L%L%L%L%L%L%L%L%L%L%L%L%L%L%L%L%L%L%L%L%L%L%L%L%L%L%L%L%L%L%L%L%L%L%L%L%L%B L%L%L%L%L%L%L%L%L%L%L%L%L%L%L%L%L%L%L%L%L%L%L%V#-.L%L%L%L%V#V#L%L%M%L%L%L%q.v i t#N%c . . . . ",
". . . . . c O%P%q.,#A%B w Q%w w Q%w w w w w w w w w w w Q%Q%w w Q%Q%w Q%w w R%w Q%Q%Q%w w Q%Q%Q%Q%w w w w w w Q%Q%Q%Q%Q%w Q%Q%Q%Q%w w w w w w Q%Q%Q%w w w Q%Q%Q%Q%S%S%w Q%Q%T%Q%Q%Q%K#Q%K#Q%Q%B A%,#U%V%W%c . . . . . ",
". . . . . . . X%Y%Z%}.}.`%S%Q%Q%T%K#K#K#K#K#K#K#K#K#K#K#T%G#G#G#K#K#K#K#G#G#G#T%K#K#K#K#G#G#G#T%K#K#K#K#K#K#K#K#K#K#K#K#T%K#K#K#K#K#K#Q%Q%Q%K#K#K#K#K#K#K#K#G#K#T%T%T%G#G#T%G#G#K#K#Q%Q%w S%`%0#`% &.&+&. . . . . . . ",
". . . . . . . . |$@&#&$&%&&&&&&&&& . . .%&%&%&%&%&%&%&%&&&&&&&&&%&%&%&%&&&&&&&&&&&&&&&&&&&&&&&&&%&%&%&%&%&%&%&%&%&%&%&%&%&%&%&%&%&%&%&%&%&%&%&%&%&%&%&%&%&%&%&%&%&%&&&&&&&&&&&&&&&&& .%&&&&&&&$&#&@&|$. . . . . . . . ",
". . . . . . . . . . . *&=&-&;&>&,&'&'&'&'&'&)&)&'&'&'&'&'&'&'&'&)&)&'&'&'&)&)&)&'&)&)&)&'&'&'&)&)&)&)&)&'&'&'&)&)&)&)&)&)&)&)&'&'&'&)&)&)&'&'&'&)&)&)&)&'&'&)&)&)&)&)&!&)&'&'&'&'&'&~&>&{&]&=&*&. . . . . . . . . . . "};
