/* XPM */
static char * taskbuttonbg_xpm[] = {
"1 44 30 1",
" 	c None",
".	c #FEFEFE",
"+	c #FDFDFD",
"@	c #FCFCFC",
"#	c #FBFBFB",
"$	c #FAFAFA",
"%	c #F9F9F9",
"&	c #F8F8F8",
"*	c #F8F7F7",
"=	c #F7F6F6",
"-	c #F7F5F6",
";	c #F6F5F5",
">	c #F5F5F4",
",	c #F4F4F3",
"'	c #F3F3F2",
")	c #F2F2F1",
"!	c #F2F1F1",
"~	c #F1F0F0",
"{	c #F1EFEF",
"]	c #F0EFEE",
"^	c #EFEFED",
"/	c #EEEEED",
"(	c #EDEDEC",
"_	c #ECECEB",
":	c #ECEBEB",
"<	c #EBEAEA",
"[	c #EBEAE9",
"}	c #EAE9E8",
"|	c #E9E8E7",
"1	c #E8E7E6",
".",
".",
"+",
"@",
"#",
"#",
"#",
"$",
"$",
"%",
"%",
"&",
"*",
"=",
"=",
"-",
";",
">",
",",
",",
"'",
"'",
")",
"!",
"~",
"~",
"{",
"]",
"^",
"/",
"/",
"(",
"(",
"_",
":",
"<",
"[",
"}",
"}",
"}",
"|",
"|",
"1",
"1"};
