/* XPM */
static char * taskbuttonactive_xpm[] = {
"1 44 17 1",
" 	c None",
".	c #BBC1D4",
"+	c #BAC0D3",
"@	c #BAC0D2",
"#	c #B9BFD1",
"$	c #B9BFD0",
"%	c #B8BECF",
"&	c #B7BDCE",
"*	c #B6BCCD",
"=	c #B6BCCC",
"-	c #B6BBCB",
";	c #B6BACA",
">	c #B5BAC9",
",	c #B4B9C8",
"'	c #B4B9C7",
")	c #B3B8C6",
"!	c #B2B7C5",
".",
".",
"+",
"@",
"#",
"#",
"$",
"%",
"%",
"&",
"&",
"*",
"=",
"-",
"-",
";",
">",
">",
",",
"'",
")",
")",
"!",
"!",
"!",
"!",
"!",
"!",
"!",
"!",
"!",
"!",
"!",
"!",
"!",
"!",
"!",
"!",
"!",
"!",
"!",
"!",
"!",
"!"};
