/* XPM */
static char * taskbuttonminimized_xpm[] = {
"1 44 43 1",
" 	c None",
".	c #EBEAE9",
"+	c #E9E8E7",
"@	c #E8E7E6",
"#	c #E6E5E4",
"$	c #E5E4E3",
"%	c #E4E3E1",
"&	c #E2E1DF",
"*	c #E1E0DE",
"=	c #E0DFDD",
"-	c #DEDDDC",
";	c #DDDCDA",
">	c #DBDAD8",
",	c #DAD9D7",
"'	c #D9D8D6",
")	c #D7D6D4",
"!	c #D6D5D3",
"~	c #D5D4D2",
"{	c #D4D2D0",
"]	c #D3D1CF",
"^	c #D2D0CE",
"/	c #D0CECC",
"(	c #CFCDCB",
"_	c #CDCBC9",
":	c #CCCAC8",
"<	c #CBC9C7",
"[	c #C9C7C5",
"}	c #C8C6C4",
"|	c #C7C5C3",
"1	c #C5C3C1",
"2	c #C4C2C0",
"3	c #C3C0BE",
"4	c #C1BEBC",
"5	c #C0BEBB",
"6	c #BEBCB9",
"7	c #BDBAB8",
"8	c #BCB9B7",
"9	c #BAB8B5",
"0	c #B9B7B4",
"a	c #B8B5B3",
"b	c #B6B3B1",
"c	c #B5B2B0",
"d	c #B4B1AE",
".",
".",
"+",
"@",
"#",
"$",
"%",
"&",
"*",
"=",
"-",
";",
">",
",",
"'",
")",
"!",
"~",
"{",
"]",
"^",
"/",
"(",
"_",
":",
"<",
"[",
"}",
"|",
"1",
"2",
"3",
"4",
"5",
"6",
"7",
"8",
"9",
"0",
"a",
"b",
"c",
"d",
"d"};
