/* XPM */
static char * start_button_22_xpm[] = {
"74 22 692 2",
"  	c None",
". 	c #FFFFFF",
"+ 	c #FEFAFA",
"@ 	c #F5D2D2",
"# 	c #F3A6A5",
"$ 	c #F48081",
"% 	c #F35856",
"& 	c #F15150",
"* 	c #F25150",
"= 	c #F1514F",
"- 	c #F2514F",
"; 	c #F25151",
"> 	c #F15151",
", 	c #F45758",
"' 	c #F37F7F",
") 	c #F4A5A5",
"! 	c #F4D2D2",
"~ 	c #FEFCFC",
"{ 	c #F3C4C4",
"] 	c #F25C5D",
"^ 	c #FA3E3D",
"/ 	c #FB3D3E",
"( 	c #F53B3C",
"_ 	c #F0393B",
": 	c #EF393B",
"< 	c #EF393C",
"[ 	c #EE393B",
"} 	c #EE3A3B",
"| 	c #EF393A",
"1 	c #F1393B",
"2 	c #F43B3C",
"3 	c #FA3D3E",
"4 	c #FC3C3E",
"5 	c #F35C5E",
"6 	c #F3C3C3",
"7 	c #FBF2F2",
"8 	c #F08587",
"9 	c #FB3B3F",
"0 	c #F53A3E",
"a 	c #E0353A",
"b 	c #CF3036",
"c 	c #CA3035",
"d 	c #C93036",
"e 	c #C93035",
"f 	c #C93034",
"g 	c #C93134",
"h 	c #C83135",
"i 	c #C83137",
"j 	c #C53237",
"k 	c #C73136",
"l 	c #E0353B",
"m 	c #F43B3D",
"n 	c #FB3C42",
"o 	c #F18788",
"p 	c #FBF1F1",
"q 	c #F06F72",
"r 	c #FB3B42",
"s 	c #E6353E",
"t 	c #CF2F37",
"u 	c #CA3038",
"v 	c #CB3037",
"w 	c #CA3037",
"x 	c #CB3038",
"y 	c #C93038",
"z 	c #C83038",
"A 	c #AE2B32",
"B 	c #964044",
"C 	c #A67B7D",
"D 	c #AC8789",
"E 	c #A47477",
"F 	c #973136",
"G 	c #B42D33",
"H 	c #CE2F38",
"I 	c #E5363D",
"J 	c #FA3B42",
"K 	c #F06F73",
"L 	c #FEFBFB",
"M 	c #F07F84",
"N 	c #FA3944",
"O 	c #E0333C",
"P 	c #CD2F39",
"Q 	c #CC2F38",
"R 	c #CC3038",
"S 	c #CD2F3A",
"T 	c #CC2F3A",
"U 	c #CC2F39",
"V 	c #CD2F38",
"W 	c #CB3039",
"X 	c #C02F38",
"Y 	c #AC7477",
"Z 	c #DFD2D4",
"` 	c #FDF9F9",
" .	c #FEFEFD",
"..	c #FEFEFE",
"+.	c #F9F5F6",
"@.	c #D4C4C7",
"#.	c #A75A5F",
"$.	c #C62F38",
"%.	c #CE2F39",
"&.	c #DF333C",
"*.	c #FA3A43",
"=.	c #F18083",
"-.	c #F2BBBD",
";.	c #FA3846",
">.	c #E73440",
",.	c #CE2F3C",
"'.	c #CF2F3B",
").	c #CF2F3C",
"!.	c #D02E3B",
"~.	c #D02F3B",
"{.	c #CF2E3B",
"].	c #D02F3C",
"^.	c #CE2F3B",
"/.	c #CE303B",
"(.	c #CF2F39",
"_.	c #CF2F3A",
":.	c #CE2F3A",
"<.	c #C32D3B",
"[.	c #CAA8AB",
"}.	c #FDFAFA",
"|.	c #FAFAF9",
"1.	c #E1D8DA",
"2.	c #D1B2B6",
"3.	c #CFA3A9",
"4.	c #D3B8BC",
"5.	c #E7E1E2",
"6.	c #FCFDFB",
"7.	c #F8F4F4",
"8.	c #BB898D",
"9.	c #C92F3B",
"0.	c #E83340",
"a.	c #F93944",
"b.	c #F1BBBD",
"c.	c #FCF6F6",
"d.	c #F14E59",
"e.	c #F33544",
"f.	c #D32E3D",
"g.	c #D12E3D",
"h.	c #D12F3E",
"i.	c #D12E3E",
"j.	c #D12F3D",
"k.	c #D02F3E",
"l.	c #C42D3C",
"m.	c #BE2C39",
"n.	c #C62D3C",
"o.	c #C62D3B",
"p.	c #C52D3B",
"q.	c #C42D3B",
"r.	c #C72D3B",
"s.	c #D22E3E",
"t.	c #C92D3B",
"u.	c #CD2E3C",
"v.	c #C82E3D",
"w.	c #D02F3D",
"x.	c #C42D3A",
"y.	c #C82D3B",
"z.	c #D22E3D",
"A.	c #CD2F3D",
"B.	c #CDA2A6",
"C.	c #FCFCFC",
"D.	c #F6F0F1",
"E.	c #DA9196",
"F.	c #ED4B4D",
"G.	c #FB3F3D",
"H.	c #FB3F3C",
"I.	c #F9403E",
"J.	c #E95355",
"K.	c #DDA9AD",
"L.	c #FAF8F8",
"M.	c #FBF8F8",
"N.	c #C37C81",
"O.	c #D32E3C",
"P.	c #F33545",
"Q.	c #F14C56",
"R.	c #F2C7C9",
"S.	c #FA3648",
"T.	c #E23141",
"U.	c #D32D3D",
"V.	c #D32E3E",
"W.	c #CD2E3D",
"X.	c #BF8386",
"Y.	c #DDCDCB",
"Z.	c #E7DADB",
"`.	c #DBC9C9",
" +	c #BD7779",
".+	c #CA2F3F",
"++	c #DBC3C5",
"@+	c #DED0D0",
"#+	c #DED0CF",
"$+	c #DED0D1",
"%+	c #DECFD2",
"&+	c #D7AEB1",
"*+	c #D5B9BA",
"=+	c #DCC9CB",
"-+	c #C73B48",
";+	c #D17980",
">+	c #DDCFD1",
",+	c #D7C4C5",
"'+	c #BF898D",
")+	c #C72F3D",
"!+	c #DABABE",
"~+	c #DECFD1",
"{+	c #D7B6B8",
"]+	c #D02F3F",
"^+	c #C85E65",
"/+	c #FAF5F6",
"(+	c #FCF8F8",
"_+	c #E7848E",
":+	c #F93946",
"<+	c #FB3844",
"[+	c #FA3943",
"}+	c #FC3843",
"|+	c #F63B47",
"1+	c #E9A7AE",
"2+	c #FEFCFD",
"3+	c #F2E6E7",
"4+	c #C83845",
"5+	c #FB3648",
"6+	c #F09499",
"7+	c #F73548",
"8+	c #D82D3F",
"9+	c #D52D3F",
"0+	c #D42E3F",
"a+	c #CF7F84",
"b+	c #F4E4E5",
"c+	c #E8C0C3",
"d+	c #F6EAEB",
"e+	c #FBF7F7",
"f+	c #C36A70",
"g+	c #E6C1C6",
"h+	c #EACDD1",
"i+	c #F1E3E6",
"j+	c #FCFDFD",
"k+	c #ECD9DA",
"l+	c #E9CDD0",
"m+	c #DFACB1",
"n+	c #D42E40",
"o+	c #C96069",
"p+	c #FEFAFB",
"q+	c #FDFEFD",
"r+	c #D39195",
"s+	c #DE939A",
"t+	c #FEFEFC",
"u+	c #EEDFE0",
"v+	c #E9CDD2",
"w+	c #F5E9EA",
"x+	c #D0979B",
"y+	c #E4B9BD",
"z+	c #E8CED1",
"A+	c #F0E0E1",
"B+	c #EEDCDD",
"C+	c #E9CED2",
"D+	c #E0B4B9",
"E+	c #D22F40",
"F+	c #D52D40",
"G+	c #E2BBBE",
"H+	c #F2C2C9",
"I+	c #F5334B",
"J+	c #F83348",
"K+	c #EE3C50",
"L+	c #CE4C58",
"M+	c #F33349",
"N+	c #F73348",
"O+	c #F83247",
"P+	c #F83248",
"Q+	c #EF3C50",
"R+	c #F8E0E2",
"S+	c #FEFCFE",
"T+	c #D79298",
"U+	c #F73547",
"V+	c #F05765",
"W+	c #F13247",
"X+	c #D72C3F",
"Y+	c #D62C3F",
"Z+	c #D52C3F",
"`+	c #D62D40",
" @	c #E5B3B8",
".@	c #C77F85",
"+@	c #D02E42",
"@@	c #D5737B",
"#@	c #EBD2D5",
"$@	c #DA8C95",
"%@	c #D42D40",
"&@	c #E3ABB1",
"*@	c #FDFDFC",
"=@	c #D77A84",
"-@	c #D42D41",
";@	c #D52D41",
">@	c #DAB2B5",
",@	c #FBF9F8",
"'@	c #F5EDEF",
")@	c #E9D2D5",
"!@	c #D02E41",
"~@	c #D72C40",
"{@	c #DE929B",
"]@	c #DB969E",
"^@	c #CB535F",
"/@	c #EBCCD0",
"(@	c #D52D42",
"_@	c #E19FA4",
":@	c #DA8D92",
"<@	c #D52C41",
"[@	c #D12B3F",
"}@	c #F4E4E7",
"|@	c #FEFDFE",
"1@	c #EA7987",
"2@	c #F32D49",
"3@	c #F42D49",
"4@	c #E9495C",
"5@	c #F9EDF1",
"6@	c #D4A8AE",
"7@	c #DC344D",
"8@	c #F22E4A",
"9@	c #F32D48",
"0@	c #EEA6AE",
"a@	c #FDFEFE",
"b@	c #E9C6CA",
"c@	c #D62C40",
"d@	c #F13246",
"e@	c #EF5865",
"f@	c #EE394D",
"g@	c #EE3046",
"h@	c #D82B41",
"i@	c #D72C41",
"j@	c #D82C41",
"k@	c #D72C42",
"l@	c #D87981",
"m@	c #FDF8F9",
"n@	c #F4ECEC",
"o@	c #CEAEB3",
"p@	c #B95F66",
"q@	c #C92D41",
"r@	c #E5ABB2",
"s@	c #FEFDFD",
"t@	c #D87A85",
"u@	c #D62D43",
"v@	c #CE2D41",
"w@	c #F3E9E9",
"x@	c #EFD5D8",
"y@	c #E3B6BB",
"z@	c #CB5662",
"A@	c #D62C42",
"B@	c #DF929A",
"C@	c #FFFDFE",
"D@	c #CA969C",
"E@	c #B52639",
"F@	c #BA757B",
"G@	c #FEFCFB",
"H@	c #E9C1C4",
"I@	c #D72C43",
"J@	c #E39DA5",
"K@	c #FEFEFF",
"L@	c #DD8C94",
"M@	c #D82C42",
"N@	c #D72B41",
"O@	c #D13246",
"P@	c #FCF4F6",
"Q@	c #FEF8F8",
"R@	c #E5445A",
"S@	c #EE2745",
"T@	c #ED2745",
"U@	c #E3445A",
"V@	c #FFF9FB",
"W@	c #F2E6E8",
"X@	c #DD8A92",
"Y@	c #EB2846",
"Z@	c #ED2746",
"`@	c #E57E8A",
" #	c #F0DADD",
".#	c #D42E43",
"+#	c #EE3047",
"@#	c #EE394F",
"##	c #ED384E",
"$#	c #EE2F47",
"%#	c #D92B42",
"&#	c #D92C41",
"*#	c #D97D86",
"=#	c #F0D5D9",
"-#	c #FEF8FA",
";#	c #DABEC2",
">#	c #CE3044",
",#	c #D92C42",
"'#	c #DA7A85",
")#	c #D92B41",
"!#	c #DA2B41",
"~#	c #D18288",
"{#	c #D99FA6",
"]#	c #CE6F7A",
"^#	c #FEFBFD",
"/#	c #DAABB0",
"(#	c #E0929A",
"_#	c #FAF5F4",
":#	c #F9EFF0",
"<#	c #FDFBFC",
"[#	c #F5E5E6",
"}#	c #D65D6A",
"|#	c #DE8C95",
"1#	c #D33146",
"2#	c #FEF8F9",
"3#	c #DD4255",
"4#	c #E4203D",
"5#	c #E5203D",
"6#	c #DA4054",
"7#	c #FFFAFC",
"8#	c #FEFDFC",
"9#	c #F7E3E8",
"0#	c #E18A92",
"a#	c #E3213E",
"b#	c #E5203F",
"c#	c #DE7D88",
"d#	c #FFFDFD",
"e#	c #F1DADD",
"f#	c #EE3048",
"g#	c #EE384F",
"h#	c #EE5667",
"i#	c #F12F49",
"j#	c #DB2A42",
"k#	c #DB2B42",
"l#	c #DA2B43",
"m#	c #C5646D",
"n#	c #C16B72",
"o#	c #D32E45",
"p#	c #D55765",
"q#	c #EAC7CB",
"r#	c #DB919B",
"s#	c #DA2B42",
"t#	c #E6ABB2",
"u#	c #DA7A84",
"v#	c #DB2A43",
"w#	c #D82C43",
"x#	c #E3C6CC",
"y#	c #FCFEFC",
"z#	c #E2D3D5",
"A#	c #DDCCCF",
"B#	c #FCFBFA",
"C#	c #F1E6E7",
"D#	c #D02C42",
"E#	c #E0929B",
"F#	c #E7C4C8",
"G#	c #E5B5B9",
"H#	c #DAB6B9",
"I#	c #D92C43",
"J#	c #E49DA5",
"K#	c #DB2B43",
"L#	c #D62941",
"M#	c #F5E4E6",
"N#	c #DB7981",
"O#	c #DB1D37",
"P#	c #DC1D38",
"Q#	c #D23D4F",
"R#	c #FCECEF",
"S#	c #E1A6AC",
"T#	c #D32C42",
"U#	c #DC1C37",
"V#	c #DB1E37",
"W#	c #E4A8AF",
"X#	c #ECC6CA",
"Y#	c #F03049",
"Z#	c #ED5768",
"`#	c #EE939A",
" $	c #F3304B",
".$	c #DE2944",
"+$	c #DC2A44",
"@$	c #DB2A44",
"#$	c #EDCACE",
"$$	c #BA676F",
"%$	c #BF253D",
"&$	c #C98F95",
"*$	c #FDFDFD",
"=$	c #E2A7AF",
"-$	c #DC2944",
";$	c #DB2944",
">$	c #E7ABB2",
",$	c #DB7A85",
"'$	c #CE4255",
")$	c #FBF4F6",
"!$	c #F4EBEE",
"~$	c #EBCFD3",
"{$	c #EAD0D4",
"]$	c #F2E1E3",
"^$	c #D17882",
"/$	c #DF929C",
"($	c #DD969E",
"_$	c #D72B46",
":$	c #F2DADD",
"<$	c #C95561",
"[$	c #DC2A45",
"}$	c #E49DA6",
"|$	c #E8BABF",
"1$	c #EBC9CE",
"2$	c #CD1C34",
"3$	c #D01C37",
"4$	c #CE273D",
"5$	c #CE4455",
"6$	c #D01C35",
"7$	c #D01C34",
"8$	c #D11C36",
"9$	c #CA2D40",
"0$	c #F6E4E8",
"a$	c #DF9099",
"b$	c #DD2A44",
"c$	c #F4304B",
"d$	c #EE939B",
"e$	c #F1C6CA",
"f$	c #F42E49",
"g$	c #E62B46",
"h$	c #DD2944",
"i$	c #DA6B75",
"j$	c #FAEBED",
"k$	c #FDF9F8",
"l$	c #F1EAEA",
"m$	c #FDF9FA",
"n$	c #F9ECED",
"o$	c #D95B6A",
"p$	c #DE2943",
"q$	c #FFFCFD",
"r$	c #DC7A85",
"s$	c #DB9DA4",
"t$	c #E29CA4",
"u$	c #DD2A45",
"v$	c #D96A76",
"w$	c #FEFBFC",
"x$	c #E4C2C7",
"y$	c #E1919B",
"z$	c #DE959E",
"A$	c #DD818B",
"B$	c #E2C1C5",
"C$	c #DA2A45",
"D$	c #DD2945",
"E$	c #E69DA5",
"F$	c #DF8C95",
"G$	c #D95D6A",
"H$	c #FCF5F6",
"I$	c #D5979E",
"J$	c #C31B35",
"K$	c #C41B33",
"L$	c #C31B34",
"M$	c #C41B34",
"N$	c #C01C33",
"O$	c #E2BCC0",
"P$	c #F7E5E8",
"Q$	c #D8364E",
"R$	c #DE2945",
"S$	c #F52E4A",
"T$	c #F0C6CA",
"U$	c #EB455A",
"V$	c #F02C49",
"W$	c #DE2845",
"X$	c #D74257",
"Y$	c #E1919A",
"Z$	c #E8A9B1",
"`$	c #E1969F",
" %	c #D9475B",
".%	c #DF2844",
"+%	c #DE6775",
"@%	c #DE949F",
"#%	c #DB4D5E",
"$%	c #DD7783",
"%%	c #DE959F",
"&%	c #DB4055",
"*%	c #DB2945",
"=%	c #DE8F9A",
"-%	c #DD8894",
";%	c #DA596B",
">%	c #D85C6C",
",%	c #D82A46",
"'%	c #DE8C97",
")%	c #DE8D98",
"!%	c #DC2B46",
"~%	c #DB616E",
"{%	c #DE95A0",
"]%	c #DB5565",
"^%	c #E3A2A8",
"/%	c #FDFCFD",
"(%	c #FDFAFB",
"_%	c #DCB7B8",
":%	c #B3424E",
"<%	c #B31931",
"[%	c #B41931",
"}%	c #B11A30",
"|%	c #B95A64",
"1%	c #E6CCCF",
"2%	c #FDF6F7",
"3%	c #DB7B86",
"4%	c #EA465B",
"5%	c #EEB9BD",
"6%	c #E72945",
"7%	c #DD2744",
"8%	c #DE2744",
"9%	c #DD2745",
"0%	c #DC2844",
"a%	c #DC2843",
"b%	c #DC2744",
"c%	c #DD2743",
"d%	c #DD2843",
"e%	c #DD2742",
"f%	c #DE2644",
"g%	c #DC2842",
"h%	c #DC2743",
"i%	c #DE2743",
"j%	c #DB2844",
"k%	c #DF2644",
"l%	c #DA2945",
"m%	c #E3A7AF",
"n%	c #FCF7F8",
"o%	c #EADBDC",
"p%	c #E3D1D3",
"q%	c #EEDFE2",
"r%	c #FAF2F3",
"s%	c #DD8892",
"t%	c #DB2843",
"u%	c #E72A45",
"v%	c #EF2C4A",
"w%	c #EEB8BC",
"x%	c #E67A84",
"y%	c #EC2946",
"z%	c #E22744",
"A%	c #DC2543",
"B%	c #DB2643",
"C%	c #DA2643",
"D%	c #DB2543",
"E%	c #DC2643",
"F%	c #DB2644",
"G%	c #DB2642",
"H%	c #DC2544",
"I%	c #DA2644",
"J%	c #D97381",
"K%	c #EED1D5",
"L%	c #FFF6F9",
"M%	c #FDF2F5",
"N%	c #E9C3C8",
"O%	c #D6596A",
"P%	c #E32742",
"Q%	c #EC2947",
"R%	c #E67983",
"S%	c #F9F0F1",
"T%	c #E06672",
"U%	c #E62744",
"V%	c #DF2443",
"W%	c #D72340",
"X%	c #D72441",
"Y%	c #D62441",
"Z%	c #D72440",
"`%	c #D52540",
" &	c #CF4354",
".&	c #D97884",
"+&	c #DC8590",
"@&	c #D9737E",
"#&	c #CE3449",
"$&	c #D52440",
"%&	c #D6243F",
"&&	c #DD2641",
"*&	c #E62646",
"=&	c #DE6771",
"-&	c #F8F1F2",
";&	c #DB7E86",
">&	c #DD2441",
",&	c #DC2440",
"'&	c #D6233F",
")&	c #D2213D",
"!&	c #D0223D",
"~&	c #D0223E",
"{&	c #CF233C",
"]&	c #D1213D",
"^&	c #D0213E",
"/&	c #D1213E",
"(&	c #D3213D",
"_&	c #D6223F",
":&	c #DB2442",
"<&	c #DD2442",
"[&	c #F9F1F2",
"}&	c #E5BFC2",
"|&	c #CD4C5C",
"1&	c #D1223D",
"2&	c #D2213E",
"3&	c #D2203C",
"4&	c #CF203C",
"5&	c #CF203B",
"6&	c #CF203D",
"7&	c #CF213C",
"8&	c #D1203C",
"9&	c #CE4B5B",
"0&	c #E5BFC3",
"a&	c #E7CFD1",
"b&	c #D69FA3",
"c&	c #CB747C",
"d&	c #C14051",
"e&	c #BD3548",
"f&	c #BD3547",
"g&	c #BE3547",
"h&	c #CA737B",
"i&	c #D69FA4",
". . . . . . + @ # $ % & * * * * * * * & & * & * & * * * * * * * & * * = - = - - - * * * * * * * & * * * & * * * * ; ; ; > & & , ' ) ! + . . . . . . ",
". . . . ~ { ] ^ / ( _ : : : < < [ [ } [ [ [ [ [ : : : : [ } : [ [ [ : [ [ [ : : : } [ [ [ } [ [ [ } [ [ [ [ [ : : < | : : : : 1 2 3 4 5 6 ~ . . . . ",
". . . 7 8 9 0 a b c d e e f g g g e e e e e e e e e e e e e e e e e e e e e e e e e e e e e e e e e e e e e e e e e e e h i j k d b l m n o 7 . . . ",
". . p q r s t u v u w v x x v x x x x x x x x x x x x x x x x x x x x x x x x x x x x v v v x x x x x x x x x x x y z A B C D E F G u H I J K p . . ",
". L M N O P Q P Q Q Q R Q Q S T U Q Q Q Q Q R R R R Q R Q V R Q Q V Q R Q R R Q Q R Q R R Q V Q R Q Q R R R Q Q W X Y Z `  ... .+.@.#.$.%.&.*.=.L . ",
". -.;.>.,.'.'.'.'.'.'.'.'.'.).!.'.~.{.).).].'.'.'.^.'.'.'./.'.'.'.'.'.'.'.'.~.~.'.(._._.(._.'.'.'.'.'.'.'.'.:.'.<.[.}.|.1.2.3.4.5.6.7.8.9.].0.a.b.. ",
"c.d.e.f.g.g.h.i.i.i.i.j.g.k.l.m.n.k.k.o.p.q.q.p.q.r.g.s.t.o.k.h.h.u.p.p.p.v.w.i.r.x.x.q.p.p.y.k.s.h.i.h.g.g.z.A.B.C.D.E.F.G.H.I.J.K.L.M.N.w.O.P.Q.c.",
"R.S.T.U.V.V.V.V.V.V.V.z.W.X.Y.Z.`. +.+++@+@+#+$+%+&+s.A.*+=+-+V.V.;+@+$+>+,+'+)+!+~+@+#+$+@+{+]+f.V.V.V.V.V.s.^+/+(+_+:+<+[+<+}+N |+1+2+3+4+z.T.5+R.",
"6+7+8+9+9+9+9+9+9+9+9+0+a++ b+c+d+e+f+g+h+i+j+k+l+m+n+o+p+q+r+n+9+s+t+u+v+w+~ x+y+z+A+q+B+C+D+E+9+9+9+9+9+9+F+G+..H+I+J+K+L+M+N+O+P+Q+R+S+T+F+8+U+6+",
"V+W+X+Y+Z+`+Z+`+Z+F+Z+`+ @ ..@+@@@#@$@n+%@&@*@=@-@;@;@>@,@'@)@!@~@{@ .]@9+^@p+/@n+(@_@ .:@;@n+<@F+Z+Z+Z+`+Z+[@}@|@1@2@3@4@5@6@7@8@2@9@0@a@b@9+c@d@e@",
"f@g@h@i@i@i@j@i@i@i@i@k@l@m@n@o@p@q@h@i@i@r@s@t@j@u@v@w@x@y@` z@A@B@C@D@E@F@G@H@I@k@J@K@L@~@M@M@k@N@i@j@i@j@O@P@Q@R@S@T@U@V@s@W@X@Y@Z@`@s@ #.#j@+#@#",
"##$#%#%#%#%#%#%#%#%#%#&#M@*#=#-#}.;#>#,#&#r@s@'#)#!#~#~ {#]#^#/#M@(#a@_#:#<#[#}#)#%#J@K@|#)#%#%#%#%#%#%#%#%#1#P@2#3#4#5#6#7#8#9#0#a#b#c#d#e#u@%#f#g#",
"h#i#j#k#k#k#k#k#k#k#k#l#m#n#o#p#q#s@r#,#s#t#s@u#v#w#x#y#z#A#B#C#D#E#s@F#G#~ H#I#s#l#J#..|#k#K#k#k#k#k#k#s#s#L#M#s@N#O#P#Q#R#S#T#U#V#P#W#..X#&#v#Y#Z#",
"`# $.$+$+$+$+$+$+$@$@$@$#$` $$%$&$*$=$-$;$>$s@,$j#'$)$!$~${$]$2+^$/$s@($_$:$)$<$+$[$}$..|#v#@$@$@$+$+$+$+$@$v#|$..1$2$3$4$5$6$7$8$8$9$0$a@a$@$b$c$d$",
"e$f$g$h$h$h$h$h$h$h$h$-$i$j$k$l$m$n$o$p$b$>$q$r$[$s$s@t$+$u$v$w$x$y$..z$.$A$w$B$C$D$E$..F$h$D$b$b$h$h$h$h$h$+$G$H$w$I$J$K$K$L$M$K$N$O$*$P$Q$R$g$S$T$",
"H$U$V$.$h$h$h$h$h$h$h$.$W$X$Y$Z$`$ %.$.%h$+%@%#%D$$%%%&%h$.$*%=%-%;%z$>%.$,%'%)%!%.$~%{%]%p$D$h$h$h$h$h$h$h$p$R$^%/%(%_%:%<%[%}%|%1%8#2%3%D$W$V$4%H$",
". 5%V$6%7%8%7%7%7%7%7%9%0%a%7%b%c%7%d%e%f%a%0%a%g%0%9%7%8%7%7%a%7%d%d%8%h%i%i%c%0%j%9%0%k%7%8%7%7%7%7%7%7%7%c%7%l%m%m$ .n%o%p%q%w$*$r%s%t%8%u%v%w%. ",
". L x%y%z%A%A%B%B%C%B%D%B%B%A%B%E%B%B%F%B%B%D%F%B%B%C%B%B%D%C%E%C%B%E%G%B%B%G%B%B%D%C%B%B%C%B%B%B%B%B%B%B%B%B%B%H%I%J%K%L% .q+|@M%N%O%B%D%P%Q%R%L . ",
". . S%T%U%V%W%X%X%Y%X%X%X%X%X%X%X%X%X%X%X%X%X%X%X%X%X%X%X%X%X%X%X%X%X%X%X%X%X%X%Z%Z%X%X%X%X%X%X%X%X%X%X%X%Z%X%X%Z%Z%Z%`% &.&+&@&#&$&%&Z%&&*&=&S%. . ",
". . . -&;&>&,&'&)&!&!&!&!&!&!&!&!&!&!&!&!&~&!&!&!&!&!&!&!&!&!&!&!&!&!&!&!&!&!&!&!&!&!&!&!&~&!&!&!&!&!&!&~&!&!&!&!&{&]&^&]&!&/&^&]&(&_&:&<&;&[&. . . ",
". . . . ~ }&|&1&2&3&4&4&5&5&5&5&5&5&5&4&6&6&5&5&4&4&6&4&5&4&6&6&4&5&5&5&5&5&5&5&4&4&5&5&5&4&5&5&5&5&5&5&4&5&5&5&4&6&4&6&4&6&4&7&8&(&2&9&0&~ . . . . ",
". . . . . . m$a&b&c&d&e&f&g&g&g&g&g&g&g&g&g&g&g&g&g&g&g&g&g&g&g&g&g&g&g&g&g&g&g&g&g&g&g&g&g&g&g&g&g&g&g&g&g&g&g&g&g&g&g&g&g&f&d&h&i&a&m$. . . . . . "};
