/* XPM */
static char *fedora_logo_icon[] = {
/* columns rows colors chars-per-pixel */
"32 32 116 2 ",
"   c #294171",
".  c #294172",
"X  c #294272",
"o  c #294275",
"O  c #2A4274",
"+  c #2A4375",
"@  c #2B4578",
"#  c #2B4679",
"$  c #354E7D",
"%  c #39517F",
"&  c #2D4A80",
"*  c #2D4B81",
"=  c #2D4C81",
"-  c #2E4C82",
";  c #2E4D84",
":  c #2F4E85",
">  c #2F4F86",
",  c #2F5088",
"<  c #375183",
"1  c #375184",
"2  c #3C5382",
"3  c #3F5684",
"4  c #30528B",
"5  c #30538D",
"6  c #31548E",
"7  c #31558E",
"8  c #32558F",
"9  c #315590",
"0  c #325591",
"q  c #325691",
"w  c #325793",
"e  c #335A97",
"r  c #345C9A",
"t  c #365F9D",
"y  c #355F9E",
"u  c #365F9F",
"i  c #36609F",
"p  c #3761A1",
"a  c #3762A1",
"s  c #3763A3",
"d  c #3966A9",
"f  c #3967A9",
"g  c #3967AA",
"h  c #3A67AB",
"j  c #3968AC",
"k  c #3A69AC",
"l  c #3A68AD",
"z  c #3A6AAE",
"x  c #3B6BAE",
"c  c #3B6BB0",
"v  c #3A6CB0",
"b  c #3B6EB3",
"n  c #3C6EB3",
"m  c #3C6EB4",
"M  c #425A88",
"N  c #455C8A",
"B  c #4C6491",
"V  c #4D6491",
"C  c #536A96",
"Z  c #546C97",
"A  c #5573A2",
"S  c #5775A6",
"D  c #4172B6",
"F  c #4474B7",
"G  c #697FA8",
"H  c #6A80A8",
"J  c #6D83AA",
"K  c #6F85AC",
"L  c #7087AC",
"P  c #7288AD",
"I  c #7389AF",
"U  c #768CB1",
"Y  c #7C92B6",
"T  c #7A97C1",
"R  c #7A98C2",
"E  c #7A9BCB",
"W  c #7A9CCC",
"Q  c #7E9ECD",
"!  c #7E9FCD",
"~  c #8095B8",
"^  c #8097BB",
"/  c #8197BB",
"(  c #889DBE",
")  c #8A9DBF",
"_  c #8A9EBF",
"`  c #8FA2C3",
"'  c #99ABC9",
"]  c #9FB0CD",
"[  c #ABBCD5",
"{  c #B4C3DA",
"}  c #B6C4DB",
"|  c #BDCBDF",
" . c #BDCEE6",
".. c #BFCFE6",
"X. c #C3CFE2",
"o. c #C6D2E3",
"O. c #C5D2E4",
"+. c #C9D5E5",
"@. c #CDD7E7",
"#. c #C6D4E9",
"$. c #C7D5EA",
"%. c #D5E0EF",
"&. c #E2E9F2",
"*. c #E4EAF3",
"=. c #EEF3F8",
"-. c #EFF3F9",
";. c #EFF4F9",
":. c #F0F4F8",
">. c #F2F5FA",
",. c #F3F6FA",
"<. c #F5F7FB",
"1. c #F6F8FB",
"2. c #FDFEFE",
"3. c #FEFEFF",
"4. c white",
"5. c None",
/* pixels */
"5.5.5.5.5.5.5.5.5.5.5.5.5.X . . . . . X 5.5.5.5.5.5.5.5.5.5.5.5.",
"5.5.5.5.5.5.5.5.5.5.. . . . . . . . . . . . . 5.5.5.5.5.5.5.5.5.",
"5.5.5.5.5.5.5.5.X . . . . . . . . . . . . . . . X 5.5.5.5.5.5.5.",
"5.5.5.5.5.5.5.. . . . . . . . . . . . . . . . . . . 5.5.5.5.5.5.",
"5.5.5.5.5.5.. . . . . . . . . . . 2 ' O.-.=.o.A O . . 5.5.5.5.5.",
"5.5.5.5.5.. . . . . . . . . . . K =.4.4.4.4.4.%.d & . . 5.5.5.5.",
"5.5.5.5.. . . . . . . . . . . Y 4.4.4.4.4.4.4...m b * . . 5.5.5.",
"5.5.5.X . . . . . . . . . . M ,.4.4.4.X._ ^ R F m m g O .   5.5.",
"5.5.5.. . . . . . . . . . . { 4.4.2.I . . . . q m m m 8 . . 5.5.",
"5.5.. . . . . . . . . . . . *.4.4.[ . . . . . . s m m y . . . 5.",
"5.5.. . . . . . . . . . . % 4.4.4.G . . . . . . 0 m m k . . . 5.",
"5.5.. . . . . . . . . . . C 4.4.4.V . . . . . . 6 m m z . . . 5.",
"5.X . . . . . . . . . . . Z 4.4.4.V . . . . . . t m m a . . . X ",
"5.. . . . . . . . . . . . Z 4.4.4.V . . . . . : n m m w . . . . ",
"5.. . . . . . . . + 1 V V L 4.4.4.) V V < ; e b m m z @ . . . . ",
"5.. . . . . # r f Q 1.4.4.4.4.4.4.4.4.4.1.W m m m m , . . . . . ",
"5.. . . . 4 v m m $.4.4.4.4.4.4.4.4.4.4.4.#.m m c 4 . . . . . . ",
"5.. . . , m m m m ! 1.4.4.4.4.4.4.4.4.4.1.E d r @ . . . . . . . ",
"5.. . @ z m m b e ; < V V ` 4.4.4.H V V 1 + . . . . . . . . . X ",
"5.. . w m m m > . . . . . Z 4.4.4.V . . . . . . . . . . . . . 5.",
"5.. . p m m u . . . . . . Z 4.4.4.V . . . . . . . . . . . . . 5.",
"5.. . x m m 5 . . . . . . Z 4.4.4.B . . . . . . . . . . . . . 5.",
"5.. . l m m 7 . . . . . . J 4.4.3.$ . . . . . . . . . . . . 5.5.",
"5.. . i m m s . . . . . . [ 4.4.&.. . . . . . . . . . . .   5.5.",
"5.. . 9 m m m q . . . . P 2.4.4.} . . . . . . . . . . . . 5.5.5.",
"5.. . o h m m D T / ( | 4.4.4.<.N . . . . . . . . . . . 5.5.5.5.",
"5.. . . = m m  .4.4.4.4.4.4.4.~ . . . . . . . . . . . 5.5.5.5.5.",
"5.. . . . - j %.4.4.4.4.4.:.U . . . . . . . . . . . 5.5.5.5.5.5.",
"5.  . . . . + S @.>.;.+.] 3 . . . . . . . . . . X 5.5.5.5.5.5.5.",
"5.5.. . . . . . . . . . . . . . . . . . . . . 5.5.5.5.5.5.5.5.5.",
"5.5.5.  . . . . . . . . . . . . . . . X 5.5.5.5.5.5.5.5.5.5.5.5.",
"5.5.5.5.5.5.5.5.5.5.5.5.5.5.5.5.5.5.5.5.5.5.5.5.5.5.5.5.5.5.5.5."
};
