/* XPM */
static char * start_button_xpm[] = {
"54 16 414 2",
"  	c None",
". 	c #FFFFFF",
"+ 	c #FBEEEE",
"@ 	c #F6B9B9",
"# 	c #F58383",
"$ 	c #F85D5D",
"% 	c #F64D4C",
"& 	c #F54D4C",
"* 	c #F64D4D",
"= 	c #F85C5D",
"- 	c #FEFCFC",
"; 	c #F4B5B6",
"> 	c #F84345",
", 	c #F03A3C",
"' 	c #E13539",
") 	c #D83438",
"! 	c #D73337",
"~ 	c #D63337",
"{ 	c #D73338",
"] 	c #D93437",
"^ 	c #E03639",
"/ 	c #F1393D",
"( 	c #F84245",
"_ 	c #F4B5B5",
": 	c #FFFCFC",
"< 	c #F29496",
"[ 	c #F63A41",
"} 	c #DA323A",
"| 	c #CB3038",
"1 	c #CA3037",
"2 	c #CB3037",
"3 	c #C83037",
"4 	c #AE2F36",
"5 	c #AF7475",
"6 	c #BA8F90",
"7 	c #B07779",
"8 	c #AC3338",
"9 	c #C73037",
"0 	c #D9323A",
"a 	c #F53A41",
"b 	c #F4AFB2",
"c 	c #F53843",
"d 	c #D3303A",
"e 	c #CD2F39",
"f 	c #CD2F3A",
"g 	c #CC2F39",
"h 	c #CD2F38",
"i 	c #C42E39",
"j 	c #C59D9F",
"k 	c #F3EEEE",
"l 	c #F8F8F8",
"m 	c #EFEEF0",
"n 	c #F7F7F8",
"o 	c #F4F0F1",
"p 	c #C8A6A8",
"q 	c #C22E37",
"r 	c #F63842",
"s 	c #F4B0B2",
"t 	c #F9E9EA",
"u 	c #F73847",
"v 	c #DB303E",
"w 	c #D02F3D",
"x 	c #CD2F3D",
"y 	c #C92E3B",
"z 	c #CE303E",
"A 	c #CE303F",
"B 	c #CE2F3D",
"C 	c #D12E3D",
"D 	c #CE2F3E",
"E 	c #CF2F3E",
"F 	c #CF2F3D",
"G 	c #CE303D",
"H 	c #D12F3D",
"I 	c #D02E3C",
"J 	c #CD2F3C",
"K 	c #D6B4B7",
"L 	c #FBFAFA",
"M 	c #E3BBBD",
"N 	c #E36367",
"O 	c #EC5152",
"P 	c #E35F62",
"Q 	c #E2B5B8",
"R 	c #FAF9F8",
"S 	c #DBBFC0",
"T 	c #CC2E3C",
"U 	c #DB313E",
"V 	c #F63947",
"W 	c #F4ACAF",
"X 	c #F03445",
"Y 	c #D32D3E",
"Z 	c #D32E3E",
"` 	c #D42E3E",
" .	c #C76C70",
"..	c #DCCACA",
"+.	c #E3D6D7",
"@.	c #D2AFAF",
"#.	c #C4424D",
"$.	c #DCCDCE",
"%.	c #DBCFD0",
"&.	c #DBCFCF",
"*.	c #D7B5B9",
"=.	c #D09295",
"-.	c #D9C5C7",
";.	c #CD3040",
">.	c #D42E3F",
",.	c #D18A8F",
"'.	c #DCCFCF",
").	c #DBCED0",
"!.	c #D9C5C5",
"~.	c #C66C72",
"{.	c #D4AAAD",
"].	c #DCCECF",
"^.	c #D15962",
"/.	c #D17C81",
"(.	c #FDFBFC",
"_.	c #EEAFB3",
":.	c #F83A46",
"<.	c #F93945",
"[.	c #FB3844",
"}.	c #FC3843",
"|.	c #EDA4AA",
"1.	c #FDFCFC",
"2.	c #D38A8E",
"3.	c #F13344",
"4.	c #F26F77",
"5.	c #E43043",
"6.	c #D62D3F",
"7.	c #D52D3F",
"8.	c #D32E40",
"9.	c #F1E1E2",
"0.	c #E9C7CA",
"a.	c #DB8990",
"b.	c #F9EEF0",
"c.	c #D99DA2",
"d.	c #DC9096",
"e.	c #E4B3B8",
"f.	c #FAF5F5",
"g.	c #D89297",
"h.	c #D98187",
"i.	c #D22E40",
"j.	c #EDDEDF",
"k.	c #FCFBFA",
"l.	c #D38388",
"m.	c #D52D40",
"n.	c #E1AAAE",
"o.	c #F5EBEB",
"p.	c #DC9198",
"q.	c #EACBCD",
"r.	c #F4E6E8",
"s.	c #D5787F",
"t.	c #DB9297",
"u.	c #FBF3F5",
"v.	c #E4BBBC",
"w.	c #DC9097",
"x.	c #D44553",
"y.	c #D52C3F",
"z.	c #E9CBCD",
"A.	c #FAECEE",
"B.	c #F03A50",
"C.	c #F63049",
"D.	c #E08A93",
"E.	c #DA6771",
"F.	c #F33149",
"G.	c #F1344C",
"H.	c #F8E5E7",
"I.	c #ECD3D6",
"J.	c #F26F78",
"K.	c #F13A4E",
"L.	c #E02D43",
"M.	c #D72C41",
"N.	c #D62C42",
"O.	c #EFD4D7",
"P.	c #EADFDF",
"Q.	c #CA8A91",
"R.	c #C03D4C",
"S.	c #D43548",
"T.	c #D62C40",
"U.	c #E08991",
"V.	c #FBF2F4",
"W.	c #D12C40",
"X.	c #D16A72",
"Y.	c #FCF5F5",
"Z.	c #E4C1C4",
"`.	c #E6CACD",
" +	c #D62C41",
".+	c #E2A9AF",
"++	c #F0E2E4",
"@+	c #BD2438",
"#+	c #D09DA0",
"$+	c #FAEEEF",
"%+	c #D22B40",
"&+	c #D42D41",
"*+	c #FCF0F2",
"=+	c #DF979D",
"-+	c #D52D41",
";+	c #F5E5E7",
">+	c #F2CCCF",
",+	c #EE2846",
"'+	c #EF2846",
")+	c #EFB9BF",
"!+	c #FCF8F9",
"~+	c #E3BBBF",
"{+	c #E8475A",
"]+	c #F1C4C9",
"^+	c #F9EEEE",
"/+	c #D32E42",
"(+	c #DF2E43",
"_+	c #F13B4F",
":+	c #F03950",
"<+	c #E02C44",
"[+	c #D92B42",
"}+	c #D92C41",
"|+	c #D24655",
"1+	c #E6B3B9",
"2+	c #F7E9EB",
"3+	c #F1E7E8",
"4+	c #D25E69",
"5+	c #D92C42",
"6+	c #E18891",
"7+	c #D42B41",
"8+	c #DA2B42",
"9+	c #E1BBBD",
"0+	c #E3D0D2",
"a+	c #C2737B",
"b+	c #FBF6F7",
"c+	c #CF4553",
"d+	c #E3A9AF",
"e+	c #FDFBFB",
"f+	c #FBF1F1",
"g+	c #FEFAFB",
"h+	c #DB9298",
"i+	c #D82C41",
"j+	c #FCEFF2",
"k+	c #E1979D",
"l+	c #D82B42",
"m+	c #F5E5E6",
"n+	c #EECCCF",
"o+	c #E2203C",
"p+	c #E3203C",
"q+	c #EAB9BD",
"r+	c #FDF8F8",
"s+	c #E9B9BF",
"t+	c #E04454",
"u+	c #E31F3D",
"v+	c #EDC3C9",
"w+	c #F9EDEF",
"x+	c #D52D43",
"y+	c #E12C44",
"z+	c #EF6D78",
"A+	c #E72C46",
"B+	c #DB2A43",
"C+	c #D53449",
"D+	c #DFCDCF",
"E+	c #CC6971",
"F+	c #CE3047",
"G+	c #F1E5E6",
"H+	c #E3ABB1",
"I+	c #DA2A43",
"J+	c #E38891",
"K+	c #D52A42",
"L+	c #D32D45",
"M+	c #F6EEF0",
"N+	c #FDF5F7",
"O+	c #FDF3F6",
"P+	c #FDFCFB",
"Q+	c #DEA2A8",
"R+	c #E3A9B0",
"S+	c #F2E3E5",
"T+	c #D45362",
"U+	c #FBF3F4",
"V+	c #D7949A",
"W+	c #DB2A44",
"X+	c #D82B43",
"Y+	c #E1979E",
"Z+	c #ECCACE",
"`+	c #D22C40",
" @	c #D61C37",
".@	c #DA868F",
"+@	c #D4606B",
"@@	c #D51D36",
"#@	c #D12339",
"$@	c #F6E7EA",
"%@	c #EFD2D6",
"&@	c #DA2B43",
"*@	c #E62C46",
"=@	c #F06D7A",
"-@	c #F2AAB0",
";@	c #EE2D48",
">@	c #DD2944",
",@	c #EABEC3",
"'@	c #F5EEEE",
")@	c #E6DBDC",
"!@	c #DE7781",
"~@	c #DD2943",
"{@	c #E48892",
"]@	c #FBF1F3",
"^@	c #D72A44",
"/@	c #DD8C94",
"(@	c #FCF4F6",
"_@	c #D34054",
":@	c #D82D46",
"<@	c #E7B7BB",
"[@	c #EFDCDF",
"}@	c #F3E1E4",
"|@	c #DC2A44",
"1@	c #E7AFB5",
"2@	c #F3E7E9",
"3@	c #D73249",
"4@	c #DB2A45",
"5@	c #E3969D",
"6@	c #DD2A44",
"7@	c #DE7B84",
"8@	c #E5BCC1",
"9@	c #C31A34",
"0@	c #C41B34",
"a@	c #C51B33",
"b@	c #C31B33",
"c@	c #DFB2B6",
"d@	c #FDFDFD",
"e@	c #E08891",
"f@	c #DE2944",
"g@	c #EF2C47",
"h@	c #F1AAB0",
"i@	c #F8E9EA",
"j@	c #EF2E4B",
"k@	c #E32945",
"l@	c #DD2945",
"m@	c #DC2946",
"n@	c #DC5F6E",
"o@	c #E07C87",
"p@	c #DB485C",
"q@	c #DE2844",
"r@	c #DE2845",
"s@	c #DE4256",
"t@	c #DE6B79",
"u@	c #DC2944",
"v@	c #DD5465",
"w@	c #DD6473",
"x@	c #DC485B",
"y@	c #DE6D7B",
"z@	c #DB4E60",
"A@	c #DD6573",
"B@	c #DB3B51",
"C@	c #DE6F7C",
"D@	c #DD384F",
"E@	c #DC2945",
"F@	c #DD6A78",
"G@	c #DD4659",
"H@	c #E8B4BA",
"I@	c #FDFCFD",
"J@	c #EAD4D5",
"K@	c #C8888E",
"L@	c #BA666C",
"M@	c #C68389",
"N@	c #E6CED1",
"O@	c #FDFDFC",
"P@	c #EBBDC2",
"Q@	c #DB2945",
"R@	c #EF2E4A",
"S@	c #EEADB2",
"T@	c #EC2946",
"U@	c #DE2643",
"V@	c #DC2644",
"W@	c #DC2643",
"X@	c #DB2643",
"Y@	c #DB2644",
"Z@	c #DA2644",
"`@	c #E29CA4",
" #	c #F8EDEF",
".#	c #FEFDFD",
"+#	c #FEFDFE",
"@#	c #F9EFF1",
"##	c #E4A4AB",
"$#	c #D92743",
"%#	c #EC2947",
"&#	c #EDADB1",
"*#	c #FEFBFC",
"=#	c #E48F96",
"-#	c #E32644",
";#	c #DA2441",
">#	c #D62340",
",#	c #D62440",
"'#	c #D72340",
")#	c #D32B44",
"!#	c #D8717B",
"~#	c #E08C96",
"{#	c #D9757F",
"]#	c #D22E46",
"^#	c #D6243F",
"/#	c #D92440",
"(#	c #E42643",
"_#	c #E6B1B5",
":#	c #D52B44",
"<#	c #D6223F",
"[#	c #D2213E",
"}#	c #D0213C",
"|#	c #CF213C",
"1#	c #CF203D",
"2#	c #CF213D",
"3#	c #D0213D",
"4#	c #CF203E",
"5#	c #D0203D",
"6#	c #D2203D",
"7#	c #D5223F",
"8#	c #D62B45",
"9#	c #E5B2B5",
"0#	c #F6EDEE",
"a#	c #E0B5B8",
"b#	c #CF7980",
"c#	c #C84A58",
"d#	c #C33245",
"e#	c #C33246",
"f#	c #C33145",
"g#	c #C84957",
". . . . + @ # $ % % % % & % & & & & % % % % % % % % % & % % % & % % % % % % & % % * * * * & = # @ + . . . . ",
". . - ; > , ' ) ! ~ ~ ~ ~ ~ ~ ~ ~ ~ ! ! ~ ~ ~ ~ ~ ~ ~ ~ ~ ~ ~ ~ ~ ~ ~ ~ ~ ~ ~ ~ ~ ~ ~ ~ ! { ] ^ / ( _ : . . ",
". - < [ } | 1 1 1 1 1 2 2 2 2 1 2 1 1 1 2 2 2 2 2 1 2 1 1 1 2 1 1 1 2 2 1 2 2 1 1 1 3 4 5 6 7 8 9 0 a < - . ",
". b c d e e e e e e f f e e e e e e g e e e e e e e h e e e h h h e e e e e e e e i j k l m n o p q d r s . ",
"t u v w w w w w w w x y w w z A z z B C w z w w w z D E C F G G G B w H w w w I J K L M N O P Q R S T U V t ",
"W X Y Z Z Z ` Z Z  ...+.@.#.$.%.&.%.*.Z =.-.;.>.,.'.).!.~.{.%.'.'.].^.Z Z ` Z Z /.(._.:.<.[.}.<.|.1.2.Z 3.W ",
"4.5.6.7.7.7.7.7.8.9.0.a.b.c.d.e.f.g.h.i.j.k.l.m.n.o.p.q.r.s.t.u.v.w.x.7.7.y.7.7.z.A.B.C.D.E.F.C.G.H.I.7.5.J.",
"K.L.M.M.M.M.M.M.N.O.P.Q.R.S.T.U.V.W.N.X.Y.Z.`. +.+++@+#+$+%+&+*+=+M.M.M.M.M.M.-+;+>+,+'+)+!+~+{+'+]+^+/+(+_+",
":+<+[+[+[+[+[+[+}+|+1+2+3+4+5+6+V.7+8+9+0+a+b+c+d+e+f+g+h+i+N.j+k+[+[+[+[+[+[+l+m+n+o+p+q+r+s+t+u+v+w+x+y+:+",
"z+A+B+B+B+B+B+B+C+D+E+F+G+H+I+J+V.K+L+M+N+O+P+Q+R+S+T+U+V+W+X+j+Y+B+B+B+B+B+B+B+Z+b.`+ @.@+@@@ @#@$@%@&@*@=@",
"-@;@>@>@>@>@>@>@W+,@'@)@u.!@~@{@]@^@/@(@_@:@<@[@d+}@|@1@2@3@4@j+5@>@6@>@>@>@>@|@7@1.8@9@0@a@0@b@c@d@e@f@g@h@",
"i@j@k@>@>@>@>@>@l@m@n@o@p@q@r@s@t@u@v@w@>@>@x@y@z@A@>@B@C@D@E@F@G@q@>@>@>@>@>@>@l@H@I@J@K@L@M@N@O@P@Q@k@R@i@",
". S@T@U@V@V@W@V@W@X@W@X@X@X@W@X@X@W@X@Y@V@V@W@Y@X@X@X@W@W@X@W@Y@W@W@V@V@V@W@V@W@W@Z@`@ #.#.#+#@###$#U@%#&#. ",
". *#=#-#;#>#>#,#,#,#,#,#,#,#,#,#,#,#,#,#,#,#,#,#,#,#,#,#,#,#,#,#,#,#,#,#,#,#,#,#,#'#,#)#!#~#{#]#^#/#(#=#*#. ",
". . - _#:#<#[#}#|#|#|#|#|#|#1#2#2#2#2#2#2#2#1#1#2#2#|#|#2#2#2#2#2#3#|#|#2#2#3#2#2#2#}#4#5#5#2#6#7#8#9#- . . ",
". . . . 0#a#b#c#d#d#d#d#d#d#e#e#d#d#e#f#d#d#e#e#d#d#d#d#d#d#d#d#d#d#d#d#d#d#d#d#d#d#d#e#e#d#g#b#a#0#. . . . "};
