/* XPM */
static char *fedora_logo_icon[] = {
/* columns rows colors chars-per-pixel */
"24 24 79 1 ",
"  c #294172",
". c #294172",
"X c #294172",
"o c #294172",
"O c #294172",
"+ c #294172",
"@ c #294271",
"# c #294172",
"$ c #294172",
"% c #2A4173",
"& c #294273",
"* c #294172",
"= c #294172",
"- c #294274",
"; c #2A4274",
": c #2B4375",
"> c #2A4376",
", c #2D4577",
"< c #2D487C",
"1 c #304778",
"2 c #334B7B",
"3 c #38507F",
"4 c #39507F",
"5 c #284172",
"6 c #294172",
"7 c #284172",
"8 c #284172",
"9 c #2A4072",
"0 c #314F85",
"q c #395C96",
"w c #395E99",
"e c #395E9A",
"r c #3A5F9A",
"t c #3A5F9B",
"y c #3F6199",
"u c #3B609C",
"i c #3B619D",
"p c #3B619E",
"a c #3C63A0",
"s c #475E8C",
"d c #536B96",
"f c #546D97",
"g c #5B739F",
"h c #426CAC",
"j c #436FAF",
"k c #5174AA",
"l c #4470B2",
"z c #4471B3",
"x c #4572B4",
"c c #4573B6",
"v c #4775B8",
"b c #497ABE",
"n c #497ABF",
"m c #4A7BC1",
"M c #4B7DC3",
"N c #769CD1",
"B c #9DAFCD",
"V c #A0B2CF",
"C c #A7B9D4",
"Z c #CCD9EA",
"A c #D7E0EE",
"S c #D4E0F0",
"D c #D4E0F1",
"F c #DCE5F1",
"G c #E6ECF5",
"H c #F6F9FC",
"J c #F9FAFD",
"K c #FEFEFF",
"L c white",
"P c #2A4072",
"I c #284370",
"U c #2A4174",
"Y c #2A4371",
"T c #294074",
"R c #2C4275",
"E c #2E4674",
"W c #334D66",
"Q c #1C3971",
"! c None",
/* pixels */
"!!!!!!!!!!!!!!!!!!!!!!!!",
"!!!!!!!!TP6oXo6PT!!!!!!!",
"!!!!!!Q8$#######$9Q!!!!!",
"!!!!!I@###########+Y!!!!",
"!!!!U=######,BFJZy%*Y!!!",
"!!!QO######1ALLLKNh%+Q!!",
"!!!8#######VLHCgkmMq#9!!",
"!!T$#######GLB###aMz#$T!",
"!!P#######2KLs###0Mn##P!",
"!!6#######4LL4###pMx##6!",
"!!o#####>3sLLf3<tnMr##o!",
"!!.##;uvSLLLLLLDMMj-##X!",
"!!##-lMMDLLLLLLSce&###o!",
"!!##tMbw<3dLLs3:######6!",
"!!##xMi###4LL4########P!",
"!!##nM0###sLK2#######$T!",
"!!##zMa###BLG########9!!",
"!!##qMmkgCHLV#######+Q!!",
"!!##%hNKLLLA1######*Y!!!",
"!!.##%yZJFB,######+Y!!!!",
"!!5#############$9Q!!!!!",
"!!R5.#######.o6PT!!!!!!!",
"!!!!!!!!!!!!!!!!!!!!!!!!",
"!!!!!!!!!!!!!!!!!!!!!!!!"
};
