/* XPM */
static char *fedora_logo_icon[] = {
/* columns rows colors chars-per-pixel */
"16 16 40 1 ",
"  c #294072",
". c #284172",
"X c #294172",
"o c #294073",
"O c #2B4476",
"+ c #2F4C80",
"@ c #304E83",
"# c #34558E",
"$ c #35568E",
"% c #3E65A3",
"& c #546B96",
"* c #5A719C",
"= c #5D749E",
"- c #416BAB",
"; c #426EAF",
": c #4571B3",
"> c #4979BE",
", c #497ABE",
"< c #4A7CC1",
"1 c #4B7DC3",
"2 c #8FADD6",
"3 c #9FB5D6",
"4 c #A2B7D8",
"5 c #A2B9D9",
"6 c #B7C5DD",
"7 c #C2CFE4",
"8 c #C3D1E7",
"9 c #D0DBEB",
"0 c #D7E0EE",
"q c #D9E2F0",
"w c #DCE5F1",
"e c #E3EAF4",
"r c #F6F9FC",
"t c #F8FAFC",
"y c #FAFBFD",
"u c #FBFCFD",
"i c #FDFDFE",
"p c #FEFEFF",
"a c white",
"s c None",
/* pixels */
"ssssssoXXXosssss",
"ssss XXXXXXX sss",
"sss.XXXX=9r8$.ss",
"ss.XXXX&uy721# s",
"ssXXXXX6a*XO>:Xs",
"s.XXXXXqeXXX-,Xo",
"sXXXXXXwwXX+<;XX",
"sXX+%30tp051<@XX",
"sX@<150it04%+XXX",
"sX;<+XXwwXXXXXXo",
"sX,-XXXeqXXXXXXs",
"sX:>OX*a6XXXXX s",
"sX#127yu&XXXX.ss",
"sXX$8r9=XXXX sss",
"ssXXXXXXXXosssss",
"ssssssssssssssss"
};
