/* XPM */
static char * icewm_22_xpm[] = {
"74 22 428 2",
"  	c None",
". 	c #FFFFFF",
"+ 	c #FEFEFF",
"@ 	c #DBE2F5",
"# 	c #ABBDE9",
"$ 	c #7C9CE0",
"% 	c #4681DA",
"& 	c #2E78D8",
"* 	c #2D78D8",
"= 	c #4581DA",
"- 	c #7B9BDF",
"; 	c #ACBDE9",
"> 	c #DAE2F6",
", 	c #D8E0F5",
"' 	c #6B92DC",
") 	c #1C6ED3",
"! 	c #1C6ED2",
"~ 	c #1C6CCE",
"{ 	c #1B6ACA",
"] 	c #1B69C8",
"^ 	c #1B69C9",
"/ 	c #1C6ED1",
"( 	c #D6DFF5",
"_ 	c #FDFDFF",
": 	c #A5B9E8",
"< 	c #1B6DD1",
"[ 	c #1C6CCF",
"} 	c #1A66C2",
"| 	c #185FB5",
"1 	c #185CB0",
"2 	c #175CB0",
"3 	c #185DB0",
"4 	c #185DB1",
"5 	c #185DB2",
"6 	c #1C6DCF",
"7 	c #1B6ED1",
"8 	c #A8BBE8",
"9 	c #96ADE4",
"0 	c #185EB3",
"a 	c #175CAF",
"b 	c #14519B",
"c 	c #4366A0",
"d 	c #778AB1",
"e 	c #7D90B2",
"f 	c #5D77A8",
"g 	c #0E4E97",
"h 	c #1759AA",
"i 	c #185EB4",
"j 	c #96ADE3",
"k 	c #FDFEFF",
"l 	c #B3C2EA",
"m 	c #1B6CCE",
"n 	c #1A67C4",
"o 	c #1557A7",
"p 	c #8597BC",
"q 	c #D9E0ED",
"r 	c #FCFDFF",
"s 	c #E9EEF7",
"t 	c #A9B6CF",
"u 	c #2A5CA3",
"v 	c #1A67C5",
"w 	c #B3C2E9",
"x 	c #E4E9F7",
"y 	c #1B6DCE",
"z 	c #1A68C7",
"A 	c #185EB2",
"B 	c #1E5BAB",
"C 	c #BDC8DE",
"D 	c #FBFDFF",
"E 	c #F2F6FD",
"F 	c #C0D3F4",
"G 	c #96B4EC",
"H 	c #8EAFEB",
"I 	c #B0C7F1",
"J 	c #E4ECFA",
"K 	c #E0E6F2",
"L 	c #5474AF",
"M 	c #1B68C7",
"N 	c #1C6DCE",
"O 	c #8FA8DF",
"P 	c #1B6ACB",
"Q 	c #1860B6",
"R 	c #175BAE",
"S 	c #1658A8",
"T 	c #175AAB",
"U 	c #175BAD",
"V 	c #175AAC",
"W 	c #165CB0",
"X 	c #BAC6DF",
"Y 	c #DDE7F9",
"Z 	c #5C91E1",
"` 	c #1F71D5",
" .	c #1C6FD4",
"..	c #1C6FD3",
"+.	c #1C6FD5",
"@.	c #387EDB",
"#.	c #B8CDF2",
"$.	c #E5EAF5",
"%.	c #3A69B1",
"&.	c #8EA7DF",
"*.	c #F0F3FB",
"=.	c #196BCC",
"-.	c #1A66C3",
";.	c #5F7CB4",
">.	c #C1C9DC",
",.	c #D5DDEC",
"'.	c #CAD3E5",
").	c #8598C1",
"!.	c #ADBBDA",
"~.	c #CDD4E3",
"{.	c #CDD4E2",
"].	c #B3C0DE",
"^.	c #ABB8D5",
"/.	c #C9D1E2",
"(.	c #3668B5",
"_.	c #6A8AC4",
":.	c #CDD3E2",
"<.	c #CCD3E2",
"[.	c #C0C9DB",
"}.	c #7F94BE",
"|.	c #B7C3DF",
"1.	c #CDD3E3",
"2.	c #CED4E3",
"3.	c #A7B6D6",
"4.	c #7993C7",
"5.	c #F9FCFE",
"6.	c #EAF1FB",
"7.	c #4D85D9",
"8.	c #1B6BCD",
"9.	c #1B6CCD",
"0.	c #2771D0",
"a.	c #C5D5F2",
"b.	c #BAC6E0",
"c.	c #C9D3EE",
"d.	c #1962BA",
"e.	c #416FB9",
"f.	c #EFF3FA",
"g.	c #EBF0FA",
"h.	c #BBC9E6",
"i.	c #DBE3F3",
"j.	c #FAFCFE",
"k.	c #849BCB",
"l.	c #AABBE0",
"m.	c #C9D4EB",
"n.	c #D8E1F2",
"o.	c #D9E2F3",
"p.	c #C9D3EB",
"q.	c #B1C1E5",
"r.	c #3A6BB7",
"s.	c #F4F7FC",
"t.	c #98AAD2",
"u.	c #849ED0",
"v.	c #DCE3F4",
"w.	c #C8D3EB",
"x.	c #E6ECF8",
"y.	c #FAFCFF",
"z.	c #8CA0CD",
"A.	c #B5C4E6",
"B.	c #CAD4EB",
"C.	c #DFE6F4",
"D.	c #D4DDF1",
"E.	c #A4B6DC",
"F.	c #175DB2",
"G.	c #D0D9ED",
"H.	c #99B3E3",
"I.	c #1A68C5",
"J.	c #3A72C5",
"K.	c #2363B7",
"L.	c #1A68C6",
"M.	c #4E81D1",
"N.	c #F4F8FE",
"O.	c #F3F7FD",
"P.	c #3A6DBA",
"Q.	c #1961B9",
"R.	c #C9D4EE",
"S.	c #A7B9E3",
"T.	c #185FB4",
"U.	c #7F98CD",
"V.	c #A7B5D5",
"W.	c #3B6EBD",
"X.	c #CAD6EF",
"Y.	c #9BB0DD",
"Z.	c #839ED2",
"`.	c #8CA4D4",
" +	c #9DAFD5",
".+	c #E7EEF9",
"++	c #D6DEEE",
"@+	c #839ED0",
"#+	c #91A7D7",
"$+	c #4272BE",
"%+	c #F9FBFE",
"&+	c #C4D0E9",
"*+	c #A3B5DA",
"=+	c #7290CD",
"-+	c #2865B7",
";+	c #F6F9FE",
">+	c #3772C6",
",+	c #1963BE",
"'+	c #1963BD",
")+	c #7B9BD7",
"!+	c #E3E9F4",
"~+	c #869CC9",
"{+	c #1760B8",
"]+	c #1964BE",
"^+	c #CFDAF1",
"/+	c #8AA2D2",
"(+	c #A8B9E4",
"_+	c #9FB0DE",
":+	c #3A6DBB",
"<+	c #F3F6FB",
"[+	c #B5C0D7",
"}+	c #6883B7",
"|+	c #1659AA",
"1+	c #8BA4D4",
"2+	c #175EB2",
"3+	c #DAE1F0",
"4+	c #DAE3F4",
"5+	c #A4B6DD",
"6+	c #577CBD",
"7+	c #92A5CE",
"8+	c #1253A0",
"9+	c #6B87BD",
"0+	c #B7C6E4",
"a+	c #A2B4DA",
"b+	c #FEFFFF",
"c+	c #4D79C3",
"d+	c #FCFEFF",
"e+	c #E4EBF8",
"f+	c #125DB5",
"g+	c #7B99D1",
"h+	c #D0DAEC",
"i+	c #6283C2",
"j+	c #B2C1E3",
"k+	c #A6B7DC",
"l+	c #9FB0DD",
"m+	c #1A67C3",
"n+	c #557CC2",
"o+	c #C4D1EA",
"p+	c #F2F7FD",
"q+	c #CCD5E7",
"r+	c #3767B1",
"s+	c #849ED2",
"t+	c #5C7FBF",
"u+	c #A6B7DA",
"v+	c #4E77BC",
"w+	c #F8FBFE",
"x+	c #AFBDDC",
"y+	c #839DD0",
"z+	c #EBF2FC",
"A+	c #E0E7F6",
"B+	c #4D77BF",
"C+	c #4E7AC3",
"D+	c #E5ECF8",
"E+	c #0F57A9",
"F+	c #1758A9",
"G+	c #7B97CC",
"H+	c #CFD9ED",
"I+	c #6282BF",
"J+	c #1759A9",
"K+	c #B3C1E0",
"L+	c #A8B9E2",
"M+	c #4C72B5",
"N+	c #6B83B5",
"O+	c #2361B3",
"P+	c #336ABB",
"Q+	c #A9BBE0",
"R+	c #ADBCDE",
"S+	c #B2C0DD",
"T+	c #D4DBE9",
"U+	c #C9D1E0",
"V+	c #F6F8FD",
"W+	c #E8EDF7",
"X+	c #115CB2",
"Y+	c #BFCDEA",
"Z+	c #ADBEE2",
"`+	c #AEBCDA",
" @	c #2A66B7",
".@	c #3968B0",
"+@	c #1655A1",
"@@	c #1655A2",
"#@	c #7995C8",
"$@	c #E1E9F6",
"%@	c #849BC9",
"&@	c #1455A3",
"*@	c #1555A2",
"=@	c #D1DAED",
"-@	c #8AA2D3",
";@	c #C9D3ED",
">@	c #9EB1DA",
",@	c #8DA1C9",
"'@	c #1554A1",
")@	c #5778B4",
"!@	c #BECCE8",
"~@	c #839ED1",
"{@	c #1E5EB0",
"]@	c #E8EDF8",
"^@	c #ECF0FA",
"/@	c #CAD5EE",
"(@	c #CBD5EE",
"_@	c #DBE3F4",
":@	c #7B94C8",
"<@	c #90A7D7",
"[@	c #165DB2",
"}@	c #D6DFF2",
"|@	c #F1F5FB",
"1@	c #436EB6",
"2@	c #A1B4DA",
"3@	c #7290CC",
"4@	c #175DB1",
"5@	c #CFD9EE",
"6@	c #A5B5D6",
"7@	c #15529D",
"8@	c #15529C",
"9@	c #3564AA",
"0@	c #2159A2",
"a@	c #5A7AB6",
"b@	c #F6FAFE",
"c@	c #F4F7FD",
"d@	c #3A6EBC",
"e@	c #1960B7",
"f@	c #1A66C1",
"g@	c #C9D3EC",
"h@	c #1665C1",
"i@	c #1962BB",
"j@	c #356AB9",
"k@	c #D8E1F3",
"l@	c #E7EDF9",
"m@	c #718FC9",
"n@	c #849ED1",
"o@	c #7D96CA",
"p@	c #A5B7DC",
"q@	c #4C77C0",
"r@	c #C4CEE5",
"s@	c #829DD0",
"t@	c #7895CD",
"u@	c #FBFCFF",
"v@	c #B8C4DE",
"w@	c #A2B4D9",
"x@	c #7794CD",
"y@	c #6E87B8",
"z@	c #144F96",
"A@	c #144F97",
"B@	c #315EA2",
"C@	c #B9C7E6",
"D@	c #1765C1",
"E@	c #8EA4D8",
"F@	c #1A5FB3",
"G@	c #7C98CE",
"H@	c #A2B5DA",
"I@	c #95ABD7",
"J@	c #4B76BE",
"K@	c #8EA4D3",
"L@	c #4F79BF",
"M@	c #6386C5",
"N@	c #4270BB",
"O@	c #839CCF",
"P@	c #829CD1",
"Q@	c #4A75BD",
"R@	c #527AC0",
"S@	c #839DD2",
"T@	c #5D80C1",
"U@	c #8EA4D2",
"V@	c #406FBC",
"W@	c #B9C8E6",
"X@	c #F2F6FC",
"Y@	c #9BABCC",
"Z@	c #1E5295",
"`@	c #134A8E",
" #	c #134B8E",
".#	c #114A8F",
"+#	c #7189B7",
"@#	c #DFE5F2",
"##	c #E2E9F6",
"$#	c #396CBA",
"%#	c #8EA4D7",
"&#	c #E4E9F6",
"*#	c #1763BD",
"=#	c #1961B8",
"-#	c #175CAE",
";#	c #1F60B3",
">#	c #BBC9E7",
",#	c #FBFCFE",
"'#	c #F0F4FB",
")#	c #D2DAEB",
"!#	c #CED6E8",
"~#	c #E4EAF5",
"{#	c #DEE6F5",
"]#	c #527ABE",
"^#	c #1864BE",
"/#	c #E3E8F6",
"(#	c #B2BFE1",
"_#	c #175AAD",
":#	c #165AAD",
"<#	c #839CCE",
"[#	c #E8EEF9",
"}#	c #A7B9DD",
"|#	c #2C64B3",
"1#	c #B1BFE1",
"2#	c #95A7D5",
"3#	c #1758A8",
"4#	c #1759A8",
"5#	c #1659A9",
"6#	c #4471B8",
"7#	c #7491C7",
"8#	c #7B96C9",
"9#	c #5D80BF",
"0#	c #1359AC",
"a#	c #A4B3D9",
"b#	c #165AAB",
"c#	c #1658A7",
"d#	c #1656A4",
"e#	c #1656A3",
"f#	c #1655A3",
"g#	c #165AAC",
"h#	c #A4B4D9",
"i#	c #D5DCED",
"j#	c #6884BC",
"k#	c #1555A1",
"l#	c #6883BC",
"m#	c #D6DCED",
"n#	c #D9DFEE",
"o#	c #AAB5D2",
"p#	c #798DBB",
"q#	c #3768AE",
"r#	c #1A5BAB",
"s#	c #195BAB",
"t#	c #3667AD",
"u#	c #788DBB",
". . . . . . + @ # $ % & * * * * * * * * * * * * * * * * * * * * * * * * * * * * * * * * * * * * * * * * * * * * * * * * * * * = - ; > + . . . . . . ",
". . . . . , ' ) ! ~ { ] ^ ^ ^ ^ ] ] ^ ^ ] ] ] ] ] ] ^ ^ ^ ^ ^ ] ] ] ^ ^ ^ ] ] ^ ^ ^ ] ] ^ ^ ^ ] ] ^ ] ^ ] ] ^ ^ ^ ^ ] ^ ] ] ] { ~ ! / ' ( . . . . . ",
". . . _ : < [ } | 1 2 3 4 4 4 4 4 4 4 4 4 4 4 3 3 4 4 3 3 4 4 4 4 4 4 4 4 4 4 4 4 4 4 4 4 4 4 4 4 4 4 4 4 3 3 4 4 1 3 4 4 4 5 4 1 | } 6 7 8 _ . . . ",
". . _ 9 6 ] 0 4 4 4 4 4 4 4 4 4 4 4 4 4 4 4 4 4 4 4 4 4 4 4 4 4 4 4 4 4 4 4 4 4 4 4 4 4 4 4 4 4 4 4 4 4 4 4 4 4 4 4 a b c d e f g h 4 i ] 6 j k . . ",
". . l m n 4 4 4 4 4 5 5 4 4 4 4 4 4 4 4 4 4 5 5 5 4 4 5 4 4 5 5 4 4 4 5 4 5 4 4 4 5 5 5 5 4 4 4 5 4 4 5 5 5 4 4 5 o p q r + k r s t u 4 4 v ~ w . . ",
". x y z 0 5 5 5 5 5 5 5 5 5 5 4 5 5 4 5 5 5 5 5 5 5 5 5 5 A 5 5 5 A 5 5 5 5 5 5 5 5 5 5 4 5 5 5 5 5 5 5 5 5 5 5 B C D E F G H I J k K L 5 A M N x . ",
". O P Q 5 5 A A A A A A A 0 R S T A A U V V T T T V A A U T A A A 1 T T T a A A V V T V T V U 0 A A A A 4 5 5 W X r Y Z `  ...+.@.#.r $.%.5 Q { &.. ",
"*.=.-.5 A A A A A A A A 5 ;.>.,.'.).2 !.~.{.{.{.{.].5 A ^./.(.5 A _.:.~.<.[.}.a |.1.~.{.2.~.3.5 A A A A A A A 4.5.6.7.8.9.9.9.8.8.0.a.r b.5 A } =.*.",
"c.^ d.5 A 5 5 5 A 5 A A e.f.g.h.i.j.k.l.m.n.r o.p.q.A r.s.k t.0 5 u.k v.w.x.y.z.A.B.C.k D.B.E.0 0 5 5 5 5 5 F.G.k H.I.I.J.K.L.L.I.I.M.N.O.P.5 Q.^ R.",
"S.z T.5 5 A 5 A 5 A 5 5 U.r V.1 W.X.Y.0 5 Z.k `.5 5 5  +j..+++F.5 @+k #+A $+%+&+0 0 *+k =+0 A 5 5 5 5 5 A 5 -+O.;+>+,+'+)+!+~+{+]+]+]+^+k /+A T.M (+",
"_+v 4 5 5 5 5 5 5 5 5 5 :+g.<+[+}+|+5 5 5 Z.+ 1+A A 2+3+4+5+j.6+5 @+k 7+8+9+D 0+5 5 a+b+=+5 5 5 5 4 5 5 5 5 c+d+e+f+i T.g+r D h+i+i T.j++ k+A A v _+",
"l+m+5 5 5 5 5 5 5 5 5 5 A n+o+p+D q+r+A A s++ 1+5 5 t+y.u+v+w+x+A y+k E z+%+A+B+5 5 a++ =+5 5 5 5 5 5 5 4 4 C+d+D+E+F+F+G+k D H+I+J+J+K++ k+5 5 n l+",
"L+} i 5 A A A A A A 5 5 M+N+O+P+Q+D R+A 5 Z.+ `.5 5 S+k T+U+V+W+X+@+k Y+Z+D `+5 5 5 a+b+=+4 A A A A A A 4 4  @p+;+.@+@@@#@$@%@&@+@@@*@=@k -@5 0 -.L+",
";@} Q 4 4 5 4 5 5 5 4 4 >@r ,@'@)@w+!@4 4 ~@k `.5 {@]@^@/@(@_@r :@u.k <@[@}@|@1@5 4 2@b+3@4 4 4 5 5 4 4 4 4 4@5@k 6@7@8@9@0@8@8@8@8@a@b@c@d@4 e@f@g@",
"f.h@i@4 4 4 4 4 4 4 4 4 j@k@y.l@c@E m@4 4 n@k `.5 o@r p@5 5 q@w+r@s@k <@4 t@u@v@5 4 w@+ =+4 4 5 5 4 4 4 4 4 4 x@j.O.y@z@z@z@A@z@z@B@3+r C@4 4 i@D@*.",
". E@'+0 4 4 4 4 4 4 4 4 4 F@G@H@I@J@4 4 4 J@K@L@4 M@K@N@4 4 5 O@P@Q@K@R@4 4@n@S@5 4 T@U@V@4 4 4 4 4 4 4 4 4 4 [@W@k X@Y@Z@`@ #.#+#@#r ##$#4 A '+%#. ",
". &#*#=#a a -#a a a -#a a a a a a a a a R a a a a a -#a a a a a a a a a a a R a a a -#a R -#-#a a -#-#-#-#-#-#a ;#>#,#k '#)#!#~#r D {#]#a a Q.^#/#. ",
". . (#Q 0 V V V V V V V V V V V V V V V V V V V V V V V V V V V U V V V V V V V V V _#V V V V V V V V V V V V V V :#<#n.w+k k D [#}#|#V V 0 Q 1#. . ",
". . _ 2#4 R J+3#4#4#4#4#4#4#4#4#4#4#4#4#4#4#4#4#4#4#4#4#4#4#4#4#4#4#4#4#4#4#4#4#3#3#4#4#4#4#4#4#4#4#4#4#3#3#4#4#3#4#S 5#6#7#8#9#0#J+S J+a 5 2#_ . . ",
". . . _ a#b#T c#d#e#d#e#d#d#d#d#d#d#d#e#e#d#e#e#e#d#d#e#e#e#e#e#e#e#e#d#d#d#e#e#e#e#e#e#e#d#d#d#d#e#e#e#e#e#e#e#d#d#e#e#e#e#f#e#f#d#S T g#h#_ . . . ",
". . . . . i#j#e#e#@@+@k#k#k#k#k#k#k#k#'@'@'@k#k#k#'@'@'@k#k#'@'@'@k#k#k#k#k#k#k#+@+@k#k#k#k#k#k#k#k#k#k#k#+@k#k#k#'@'@'@'@'@@@@@@@e#e#l#m#. . . . . ",
". . . . . . k n#o#p#q#r#r#r#r#s#s#r#r#r#r#r#r#r#r#r#s#s#r#r#r#r#r#s#s#r#r#r#r#r#r#r#r#r#r#s#s#s#r#r#r#r#s#r#r#r#s#s#s#r#r#r#r#t#u#o#n#k . . . . . . "};
