/* XPM */
static char * taskbarbg_xpm[] = {
"1 33 26 1",
" 	c None",
".	c #FEFEFE",
"+	c #FDFDFD",
"@	c #FCFCFC",
"#	c #FBFBFB",
"$	c #FAFAFA",
"%	c #F9F9F9",
"&	c #F8F8F8",
"*	c #F7F7F7",
"=	c #F6F6F6",
"-	c #F5F5F5",
";	c #F4F4F4",
">	c #F4F3F3",
",	c #F3F2F2",
"'	c #F2F1F0",
")	c #F1F0F0",
"!	c #F0EFEF",
"~	c #EFEEED",
"{	c #EEEDED",
"]	c #EDECEC",
"^	c #ECEBEB",
"/	c #EBEAEA",
"(	c #EAE9E9",
"_	c #E9E8E8",
":	c #E8E7E7",
"<	c #E8E7E6",
".",
"+",
"+",
"@",
"#",
"$",
"$",
"%",
"&",
"*",
"*",
"=",
"-",
";",
";",
">",
",",
"'",
")",
")",
"!",
"~",
"{",
"{",
"]",
"^",
"/",
"/",
"(",
"_",
":",
":",
"<"};
