/* XPM */
static char * taskbarbg_xpm[] = {
"1 33 6 1",
" 	c None",
".	c #3B3B3B",
"+	c #3A3A3A",
"@	c #393939",
"#	c #383838",
"$	c #373737",
".",
"+",
"+",
"+",
"+",
"+",
"+",
"+",
"+",
"@",
"@",
"@",
"@",
"@",
"@",
"@",
"@",
"#",
"#",
"#",
"#",
"#",
"#",
"#",
"#",
"$",
"$",
"$",
"$",
"$",
"$",
"$",
"$"};
