/* XPM */
static char * taskbuttonactive_xpm[] = {
"1 28 4 1",
" 	c None",
".	c #2C2C2C",
"+	c #2B2B2B",
"@	c #2A2A2A",
".",
".",
".",
".",
".",
".",
"+",
"+",
"+",
"+",
"+",
"+",
"@",
"@",
"@",
"@",
"@",
"@",
"@",
"@",
"@",
"@",
"@",
"@",
"@",
"@",
"@",
"@"};
